# Created by Kenney (www.kenney.nl)

mtllib barrelOpen.mtl

g barrelOpen

v 0.02324449 0 0.11825
v -0.02324449 0 0.11825
v 0.02324449 0.043 0.11825
v -0.02324449 0.043 0.11825
v 0.11825 0 0.02324449
v 0.11825 0 -0.02324449
v 0.09449861 0 0.09449861
v 0.09449861 0 -0.09449861
v 0.02324449 0 -0.11825
v -0.02324449 0 -0.11825
v -0.09449861 0 0.09449861
v -0.09449861 0 -0.09449861
v -0.11825 0 0.02324449
v -0.11825 0 -0.02324449
v -0.11825 0.043 -0.02324449
v -0.11825 0.043 0.02324449
v 0.09449861 0.043 0.09449861
v 0.11825 0.043 -0.02324449
v 0.11825 0.043 0.02324449
v -0.09449861 0.043 -0.09449861
v -0.09449861 0.043 0.09449861
v 0.09449861 0.043 -0.09449861
v -0.02324449 0.043 -0.11825
v 0.02324449 0.043 -0.11825
v 0.09449861 0.344 -0.09449861
v 0.09449861 0.301 -0.09449861
v 0.11825 0.344 -0.02324449
v 0.11825 0.301 -0.02324449
v 0.02324449 0.301 0.11825
v -0.02324449 0.301 0.11825
v 0.02324449 0.344 0.11825
v -0.02324449 0.344 0.11825
v -0.09449861 0.301 0.09449861
v -0.09449861 0.344 0.09449861
v -0.09449861 0.301 -0.09449861
v -0.09449861 0.344 -0.09449861
v -0.11825 0.301 -0.02324449
v -0.11825 0.344 -0.02324449
v 0.11825 0.344 0.02324449
v 0.11825 0.301 0.02324449
v 0.09675 0.344 -0.01975552
v 0.07750138 0.344 -0.07750138
v 0.09675 0.344 0.01975552
v 0.02324449 0.344 -0.11825
v 0.09449861 0.344 0.09449861
v 0.01975552 0.344 -0.09675
v 0.07750138 0.344 0.07750138
v 0.01975552 0.344 0.09675
v -0.02324449 0.344 -0.11825
v -0.01975552 0.344 -0.09675
v -0.07750138 0.344 -0.07750138
v -0.09675 0.344 -0.01975552
v -0.01975552 0.344 0.09675
v -0.07750138 0.344 0.07750138
v -0.09675 0.344 0.01975552
v -0.11825 0.344 0.02324449
v 0.09449861 0.301 0.09449861
v -0.02324449 0.301 -0.11825
v 0.02324449 0.301 -0.11825
v -0.11825 0.301 0.02324449
v 0.1075 0.301 0.0215
v 0.086 0.301 0.086
v 0.1075 0.301 -0.0215
v 0.0215 0.301 0.1075
v 0.086 0.301 -0.086
v 0.0215 0.301 -0.1075
v -0.0215 0.301 0.1075
v -0.086 0.301 0.086
v -0.1075 0.301 0.0215
v -0.0215 0.301 -0.1075
v -0.086 0.301 -0.086
v -0.1075 0.301 -0.0215
v 0.1075 0.043 -0.0215
v 0.1075 0.043 0.0215
v 0.086 0.043 -0.086
v 0.086 0.043 0.086
v 0.0215 0.043 -0.1075
v 0.0215 0.043 0.1075
v -0.0215 0.043 -0.1075
v -0.086 0.043 -0.086
v -0.1075 0.043 -0.0215
v -0.0215 0.043 0.1075
v -0.086 0.043 0.086
v -0.1075 0.043 0.0215
v 0.11825 0.129 -0.02324449
v 0.11825 0.129 0.02324449
v 0.09449861 0.129 -0.09449861
v 0.1075 0.129 -0.0215
v 0.1075 0.129 0.0215
v 0.086 0.129 -0.086
v 0.09449861 0.129 0.09449861
v 0.02324449 0.129 -0.11825
v 0.086 0.129 0.086
v 0.0215 0.129 -0.1075
v 0.02324449 0.129 0.11825
v 0.0215 0.129 0.1075
v -0.02324449 0.129 -0.11825
v -0.0215 0.129 -0.1075
v -0.086 0.129 -0.086
v -0.09449861 0.129 -0.09449861
v -0.1075 0.129 -0.0215
v -0.11825 0.129 -0.02324449
v -0.02324449 0.129 0.11825
v -0.0215 0.129 0.1075
v -0.086 0.129 0.086
v -0.09449861 0.129 0.09449861
v -0.1075 0.129 0.0215
v -0.11825 0.129 0.02324449
v 0.11825 0.215 0.02324449
v 0.11825 0.215 -0.02324449
v 0.09449861 0.215 0.09449861
v 0.1075 0.215 0.0215
v 0.086 0.215 0.086
v 0.1075 0.215 -0.0215
v 0.02324449 0.215 0.11825
v 0.09449861 0.215 -0.09449861
v 0.0215 0.215 0.1075
v 0.086 0.215 -0.086
v 0.02324449 0.215 -0.11825
v 0.0215 0.215 -0.1075
v -0.02324449 0.215 0.11825
v -0.0215 0.215 0.1075
v -0.086 0.215 0.086
v -0.09449861 0.215 0.09449861
v -0.02324449 0.215 -0.11825
v -0.0215 0.215 -0.1075
v -0.086 0.215 -0.086
v -0.09449861 0.215 -0.09449861
v -0.1075 0.215 -0.0215
v -0.11825 0.215 -0.02324449
v -0.1075 0.215 0.0215
v -0.11825 0.215 0.02324449
v 0.11825 0.2365 -0.02324449
v 0.11825 0.2365 0.02324449
v 0.09449861 0.2365 -0.09449861
v 0.1075 0.2365 -0.0215
v 0.1075 0.2365 0.0215
v 0.086 0.2365 -0.086
v 0.09449861 0.2365 0.09449861
v 0.02324449 0.2365 -0.11825
v 0.086 0.2365 0.086
v 0.0215 0.2365 -0.1075
v 0.02324449 0.2365 0.11825
v 0.0215 0.2365 0.1075
v -0.02324449 0.2365 -0.11825
v -0.0215 0.2365 -0.1075
v -0.086 0.2365 -0.086
v -0.09449861 0.2365 -0.09449861
v -0.1075 0.2365 -0.0215
v -0.11825 0.2365 -0.02324449
v -0.02324449 0.2365 0.11825
v -0.0215 0.2365 0.1075
v -0.086 0.2365 0.086
v -0.09449861 0.2365 0.09449861
v -0.1075 0.2365 0.0215
v -0.11825 0.2365 0.02324449
v 0.02324449 0.1075 -0.11825
v 0.09449861 0.1075 -0.09449861
v -0.02324449 0.1075 -0.11825
v 0.11825 0.1075 0.02324449
v 0.09449861 0.1075 0.09449861
v -0.09449861 0.1075 -0.09449861
v -0.11825 0.1075 -0.02324449
v 0.11825 0.1075 -0.02324449
v -0.11825 0.1075 0.02324449
v 0.1075 0.1075 0.0215
v 0.086 0.1075 0.086
v 0.1075 0.1075 -0.0215
v 0.02324449 0.1075 0.11825
v 0.0215 0.1075 0.1075
v 0.086 0.1075 -0.086
v 0.0215 0.1075 -0.1075
v -0.02324449 0.1075 0.11825
v -0.0215 0.1075 0.1075
v -0.086 0.1075 0.086
v -0.09449861 0.1075 0.09449861
v -0.0215 0.1075 -0.1075
v -0.086 0.1075 -0.086
v -0.1075 0.1075 -0.0215
v -0.1075 0.1075 0.0215
v -0.09675 0.02325 0.01975552
v -0.07750138 0.02325 0.07750138
v 0.09675 0.02325 -0.01975552
v 0.09675 0.02325 0.01975552
v 0.07750138 0.02325 -0.07750138
v 0.07750138 0.02325 0.07750138
v 0.01975552 0.02325 -0.09675
v 0.01975552 0.02325 0.09675
v -0.01975552 0.02325 0.09675
v -0.01975552 0.02325 -0.09675
v -0.07750138 0.02325 -0.07750138
v -0.09675 0.02325 -0.01975552

vn 0.06887836 0 0.4244476
vn -0.06887836 0 0.4244476
vn 0 -0.43 0
vn -0.4244476 0 -0.06887836
vn -0.4244476 0 0.06887836
vn 0.3040559 0 0.3040559
vn 0.4244476 0 -0.06887836
vn 0.4244476 0 0.06887836
vn -0.3040559 0 -0.3040559
vn -0.3040559 0 0.3040559
vn 0.3040559 0 -0.3040559
vn -0.06887836 0 -0.4244476
vn 0.06887836 0 -0.4244476
vn 0 0.43 0

vt 2.128226 0
vt -2.128226 0
vt 2.128226 3.937008
vt -2.128226 3.937008
vt 10.82677 2.128226
vt 10.82677 -2.128226
vt 8.652135 8.652135
vt 8.652135 -8.652135
vt 2.128226 10.82677
vt 2.128226 -10.82677
vt -2.128226 10.82677
vt -2.128226 -10.82677
vt -8.652135 8.652135
vt -8.652135 -8.652135
vt -10.82677 2.128226
vt -10.82677 -2.128226
vt 5.472091 0
vt -1.404713 0
vt 5.472091 3.937008
vt -1.404713 3.937008
vt -5.472091 0
vt -5.472091 3.937008
vt 1.404713 0
vt 1.404713 3.937008
vt 5.472091 31.49606
vt 5.472091 27.55906
vt -1.404713 31.49606
vt -1.404713 27.55906
vt 2.128226 27.55906
vt -2.128226 27.55906
vt 2.128226 31.49606
vt -2.128226 31.49606
vt 1.404713 27.55906
vt -5.472091 27.55906
vt 1.404713 31.49606
vt -5.472091 31.49606
vt -8.858268 -1.808782
vt -7.095896 -7.095896
vt -8.858268 1.808782
vt -1.808782 -8.858268
vt -7.095896 7.095896
vt -1.808782 8.858268
vt 1.808782 -8.858268
vt 7.095896 -7.095896
vt 8.858268 -1.808782
vt 1.808782 8.858268
vt 7.095896 7.095896
vt 8.858268 1.808782
vt 9.84252 1.968504
vt 7.874016 7.874016
vt 9.84252 -1.968504
vt 1.968504 9.84252
vt 7.874016 -7.874016
vt 1.968504 -9.84252
vt -1.968504 9.84252
vt -7.874016 7.874016
vt -9.84252 1.968504
vt -1.968504 -9.84252
vt -7.874016 -7.874016
vt -9.84252 -1.968504
vt 1.404713 9.84252
vt -5.472091 9.84252
vt 1.404713 11.81102
vt -5.472091 11.81102
vt 2.128226 9.84252
vt -2.128226 9.84252
vt 2.128226 11.81102
vt -2.128226 11.81102
vt 5.472091 9.84252
vt -1.404713 9.84252
vt 5.472091 11.81102
vt -1.404713 11.81102
vt 4.979965 3.937008
vt -1.244991 3.937008
vt 4.979965 9.84252
vt -1.244991 9.84252
vt 1.244991 3.937008
vt -4.979965 3.937008
vt 1.244991 9.84252
vt -4.979965 9.84252
vt 1.968504 3.937008
vt -1.968504 3.937008
vt 1.404713 19.68504
vt -5.472091 19.68504
vt 1.404713 21.65354
vt -5.472091 21.65354
vt 5.472091 19.68504
vt -1.404713 19.68504
vt 5.472091 21.65354
vt -1.404713 21.65354
vt -2.128226 19.68504
vt -2.128226 21.65354
vt 2.128226 19.68504
vt 2.128226 21.65354
vt -1.968504 21.65354
vt -1.968504 27.55906
vt 1.968504 21.65354
vt 1.968504 27.55906
vt -1.244991 21.65354
vt -1.244991 27.55906
vt 4.979965 21.65354
vt 4.979965 27.55906
vt 1.244991 21.65354
vt -4.979965 21.65354
vt 1.244991 27.55906
vt -4.979965 27.55906
vt 1.085269 31.49606
vt 1.085269 2.128731
vt -4.487839 31.49606
vt -4.487839 2.128731
vt 4.487839 2.128731
vt -1.085269 2.128731
vt 4.487839 31.49606
vt -1.085269 31.49606
vt 1.808782 31.49606
vt 1.808782 2.128731
vt -1.808782 31.49606
vt -1.808782 2.128731
vt 1.968504 11.81102
vt -1.968504 11.81102
vt 1.968504 19.68504
vt -1.968504 19.68504
vt 1.244991 11.81102
vt -4.979965 11.81102
vt 1.244991 19.68504
vt -4.979965 19.68504
vt 4.979965 19.68504
vt 4.979965 11.81102
vt -1.244991 19.68504
vt -1.244991 11.81102

usemtl cloth

f 3/3/1 2/2/2 1/1/1
f 2/2/2 3/3/1 4/4/2
f 7/7/3 6/6/3 5/5/3
f 6/6/3 7/7/3 8/8/3
f 8/8/3 7/7/3 1/9/3
f 8/8/3 1/9/3 9/10/3
f 9/10/3 1/9/3 2/11/3
f 9/10/3 2/11/3 10/12/3
f 10/12/3 2/11/3 11/13/3
f 10/12/3 11/13/3 12/14/3
f 12/14/3 11/13/3 13/15/3
f 12/14/3 13/15/3 14/16/3
f 13/1/5 15/4/4 14/2/4
f 15/4/4 13/1/5 16/3/5
f 17/19/6 1/18/1 7/17/6
f 1/18/1 17/19/6 3/20/1
f 19/4/8 6/1/7 18/3/7
f 6/1/7 19/4/8 5/2/8
f 14/23/4 20/22/9 12/21/9
f 20/22/9 14/23/4 15/24/4
f 17/22/6 5/23/8 19/24/8
f 5/23/8 17/22/6 7/21/6
f 4/24/2 11/21/10 2/23/2
f 11/21/10 4/24/2 21/22/10
f 18/20/7 8/17/11 22/19/11
f 8/17/11 18/20/7 6/18/7
f 20/19/9 10/18/12 12/17/9
f 10/18/12 20/19/9 23/20/12
f 23/3/12 9/2/13 10/1/12
f 9/2/13 23/3/12 24/4/13
f 11/17/10 16/20/5 13/18/5
f 16/20/5 11/17/10 21/19/10
f 24/24/13 8/21/11 9/23/13
f 8/21/11 24/24/13 22/22/11
f 27/27/7 26/26/11 25/25/11
f 26/26/11 27/27/7 28/28/7
f 31/31/1 30/30/2 29/29/1
f 30/30/2 31/31/1 32/32/2
f 32/35/2 33/34/10 30/33/2
f 33/34/10 32/35/2 34/36/10
f 37/33/4 36/36/9 35/34/9
f 36/36/9 37/33/4 38/35/4
f 39/32/8 28/29/7 27/31/7
f 28/29/7 39/32/8 40/30/8
f 25/14/14 39/15/14 27/16/14
f 39/15/14 25/14/14 41/37/14
f 41/37/14 25/14/14 42/38/14
f 43/39/14 39/15/14 41/37/14
f 42/38/14 25/14/14 44/12/14
f 39/15/14 43/39/14 45/13/14
f 42/38/14 44/12/14 46/40/14
f 45/13/14 43/39/14 47/41/14
f 45/13/14 47/41/14 31/11/14
f 31/11/14 47/41/14 48/42/14
f 46/40/14 44/12/14 49/10/14
f 46/40/14 49/10/14 50/43/14
f 50/43/14 49/10/14 51/44/14
f 51/44/14 49/10/14 36/8/14
f 51/44/14 36/8/14 52/45/14
f 52/45/14 36/8/14 38/6/14
f 31/11/14 48/42/14 32/9/14
f 32/9/14 48/42/14 53/46/14
f 32/9/14 53/46/14 54/47/14
f 32/9/14 54/47/14 34/7/14
f 52/45/14 38/6/14 55/48/14
f 34/7/14 54/47/14 55/48/14
f 56/5/14 55/48/14 38/6/14
f 34/7/14 55/48/14 56/5/14
f 45/25/6 29/28/1 57/26/6
f 29/28/1 45/25/6 31/27/1
f 49/31/12 59/30/13 58/29/12
f 59/30/13 49/31/12 44/32/13
f 36/25/9 58/28/12 35/26/9
f 58/28/12 36/25/9 49/27/12
f 44/35/13 26/34/11 59/33/13
f 26/34/11 44/35/13 25/36/11
f 33/26/10 56/27/5 60/28/5
f 56/27/5 33/26/10 34/25/10
f 60/29/5 38/32/4 37/30/4
f 38/32/4 60/29/5 56/31/5
f 45/36/6 40/33/8 39/35/8
f 40/33/8 45/36/6 57/34/6
f 57/7/3 28/6/3 40/5/3
f 28/6/3 57/7/3 61/49/3
f 61/49/3 57/7/3 62/50/3
f 63/51/3 28/6/3 61/49/3
f 62/50/3 57/7/3 29/9/3
f 28/6/3 63/51/3 26/8/3
f 62/50/3 29/9/3 64/52/3
f 26/8/3 63/51/3 65/53/3
f 26/8/3 65/53/3 59/10/3
f 59/10/3 65/53/3 66/54/3
f 64/52/3 29/9/3 30/11/3
f 64/52/3 30/11/3 67/55/3
f 67/55/3 30/11/3 68/56/3
f 68/56/3 30/11/3 33/13/3
f 68/56/3 33/13/3 69/57/3
f 69/57/3 33/13/3 60/15/3
f 59/10/3 66/54/3 58/12/3
f 58/12/3 66/54/3 70/58/3
f 58/12/3 70/58/3 71/59/3
f 58/12/3 71/59/3 35/14/3
f 69/57/3 60/15/3 72/60/3
f 35/14/3 71/59/3 72/60/3
f 37/16/3 72/60/3 60/15/3
f 35/14/3 72/60/3 37/16/3
f 22/14/14 19/15/14 18/16/14
f 19/15/14 22/14/14 73/60/14
f 19/15/14 73/60/14 74/57/14
f 73/60/14 22/14/14 75/59/14
f 74/57/14 17/13/14 19/15/14
f 75/59/14 22/14/14 24/12/14
f 17/13/14 74/57/14 76/56/14
f 75/59/14 24/12/14 77/58/14
f 17/13/14 76/56/14 3/11/14
f 3/11/14 76/56/14 78/55/14
f 77/58/14 24/12/14 23/10/14
f 77/58/14 23/10/14 79/54/14
f 79/54/14 23/10/14 80/53/14
f 80/53/14 23/10/14 20/8/14
f 80/53/14 20/8/14 81/51/14
f 81/51/14 20/8/14 15/6/14
f 3/11/14 78/55/14 4/9/14
f 4/9/14 78/55/14 82/52/14
f 4/9/14 82/52/14 83/50/14
f 4/9/14 83/50/14 21/7/14
f 81/51/14 15/6/14 84/49/14
f 21/7/14 83/50/14 84/49/14
f 16/5/14 84/49/14 15/6/14
f 21/7/14 84/49/14 16/5/14
f 87/14/14 86/15/14 85/16/14
f 86/15/14 87/14/14 88/60/14
f 86/15/14 88/60/14 89/57/14
f 88/60/14 87/14/14 90/59/14
f 89/57/14 91/13/14 86/15/14
f 90/59/14 87/14/14 92/12/14
f 91/13/14 89/57/14 93/56/14
f 90/59/14 92/12/14 94/58/14
f 91/13/14 93/56/14 95/11/14
f 95/11/14 93/56/14 96/55/14
f 94/58/14 92/12/14 97/10/14
f 94/58/14 97/10/14 98/54/14
f 98/54/14 97/10/14 99/53/14
f 99/53/14 97/10/14 100/8/14
f 99/53/14 100/8/14 101/51/14
f 101/51/14 100/8/14 102/6/14
f 95/11/14 96/55/14 103/9/14
f 103/9/14 96/55/14 104/52/14
f 103/9/14 104/52/14 105/50/14
f 103/9/14 105/50/14 106/7/14
f 101/51/14 102/6/14 107/49/14
f 106/7/14 105/50/14 107/49/14
f 108/5/14 107/49/14 102/6/14
f 106/7/14 107/49/14 108/5/14
f 111/7/3 110/6/3 109/5/3
f 110/6/3 111/7/3 112/49/3
f 112/49/3 111/7/3 113/50/3
f 114/51/3 110/6/3 112/49/3
f 113/50/3 111/7/3 115/9/3
f 110/6/3 114/51/3 116/8/3
f 113/50/3 115/9/3 117/52/3
f 116/8/3 114/51/3 118/53/3
f 116/8/3 118/53/3 119/10/3
f 119/10/3 118/53/3 120/54/3
f 117/52/3 115/9/3 121/11/3
f 117/52/3 121/11/3 122/55/3
f 122/55/3 121/11/3 123/56/3
f 123/56/3 121/11/3 124/13/3
f 119/10/3 120/54/3 125/12/3
f 125/12/3 120/54/3 126/58/3
f 125/12/3 126/58/3 127/59/3
f 125/12/3 127/59/3 128/14/3
f 128/14/3 127/59/3 129/60/3
f 128/14/3 129/60/3 130/16/3
f 123/56/3 124/13/3 131/57/3
f 130/16/3 129/60/3 131/57/3
f 131/57/3 124/13/3 132/15/3
f 130/16/3 131/57/3 132/15/3
f 135/14/14 134/15/14 133/16/14
f 134/15/14 135/14/14 136/60/14
f 134/15/14 136/60/14 137/57/14
f 136/60/14 135/14/14 138/59/14
f 137/57/14 139/13/14 134/15/14
f 138/59/14 135/14/14 140/12/14
f 139/13/14 137/57/14 141/56/14
f 138/59/14 140/12/14 142/58/14
f 139/13/14 141/56/14 143/11/14
f 143/11/14 141/56/14 144/55/14
f 142/58/14 140/12/14 145/10/14
f 142/58/14 145/10/14 146/54/14
f 146/54/14 145/10/14 147/53/14
f 147/53/14 145/10/14 148/8/14
f 147/53/14 148/8/14 149/51/14
f 149/51/14 148/8/14 150/6/14
f 143/11/14 144/55/14 151/9/14
f 151/9/14 144/55/14 152/52/14
f 151/9/14 152/52/14 153/50/14
f 151/9/14 153/50/14 154/7/14
f 149/51/14 150/6/14 155/49/14
f 154/7/14 153/50/14 155/49/14
f 156/5/14 155/49/14 150/6/14
f 154/7/14 155/49/14 156/5/14
f 92/63/13 158/62/11 157/61/13
f 158/62/11 92/63/13 87/64/11
f 97/67/12 157/66/13 159/65/12
f 157/66/13 97/67/12 92/68/13
f 91/64/6 160/61/8 86/63/8
f 160/61/8 91/64/6 161/62/6
f 100/71/9 159/70/12 162/69/9
f 159/70/12 100/71/9 97/72/12
f 163/61/4 100/64/9 162/62/9
f 100/64/9 163/61/4 102/63/4
f 85/72/7 158/69/11 87/71/11
f 158/69/11 85/72/7 164/70/7
f 165/65/5 102/68/4 163/66/4
f 102/68/4 165/65/5 108/67/5
f 161/7/3 164/6/3 160/5/3
f 164/6/3 161/7/3 166/49/3
f 166/49/3 161/7/3 167/50/3
f 168/51/3 164/6/3 166/49/3
f 167/50/3 161/7/3 169/9/3
f 164/6/3 168/51/3 158/8/3
f 167/50/3 169/9/3 170/52/3
f 158/8/3 168/51/3 171/53/3
f 158/8/3 171/53/3 157/10/3
f 157/10/3 171/53/3 172/54/3
f 170/52/3 169/9/3 173/11/3
f 170/52/3 173/11/3 174/55/3
f 174/55/3 173/11/3 175/56/3
f 175/56/3 173/11/3 176/13/3
f 157/10/3 172/54/3 159/12/3
f 159/12/3 172/54/3 177/58/3
f 159/12/3 177/58/3 178/59/3
f 159/12/3 178/59/3 162/14/3
f 162/14/3 178/59/3 179/60/3
f 162/14/3 179/60/3 163/16/3
f 175/56/3 176/13/3 180/57/3
f 163/16/3 179/60/3 180/57/3
f 180/57/3 176/13/3 165/15/3
f 163/16/3 180/57/3 165/15/3
f 86/68/8 164/65/7 85/67/7
f 164/65/7 86/68/8 160/66/8
f 91/71/6 169/70/1 161/69/6
f 169/70/1 91/71/6 95/72/1
f 103/63/2 176/62/10 173/61/2
f 176/62/10 103/63/2 106/64/10
f 176/69/10 108/72/5 165/70/5
f 108/72/5 176/69/10 106/71/10
f 95/67/1 173/66/2 169/65/1
f 173/66/2 95/67/1 103/68/2
f 167/75/6 78/74/1 76/73/6
f 78/74/1 167/75/6 170/76/1
f 174/79/2 83/78/10 82/77/2
f 83/78/10 174/79/2 175/80/10
f 166/79/8 76/78/6 74/77/8
f 76/78/6 166/79/8 167/80/6
f 178/75/9 79/74/12 80/73/9
f 79/74/12 178/75/9 177/76/12
f 84/74/5 175/75/10 180/76/5
f 175/75/10 84/74/5 83/73/10
f 170/52/1 82/82/2 78/81/1
f 82/82/2 170/52/1 174/55/2
f 168/76/7 75/73/11 171/75/11
f 75/73/11 168/76/7 73/74/7
f 84/81/5 179/55/4 81/82/4
f 179/55/4 84/81/5 180/52/5
f 172/79/13 75/78/11 77/77/13
f 75/78/11 172/79/13 171/80/11
f 168/52/7 74/82/8 73/81/7
f 74/82/8 168/52/7 166/55/8
f 81/77/4 178/80/9 80/78/9
f 178/80/9 81/77/4 179/79/4
f 177/52/12 77/82/13 79/81/12
f 77/82/13 177/52/12 172/55/13
f 151/85/2 124/84/10 121/83/2
f 124/84/10 151/85/2 154/86/10
f 130/83/4 148/86/9 128/84/9
f 148/86/9 130/83/4 150/85/4
f 148/89/9 125/88/12 128/87/9
f 125/88/12 148/89/9 145/90/12
f 139/89/6 115/88/1 111/87/6
f 115/88/1 139/89/6 143/90/1
f 132/93/5 150/92/4 130/91/4
f 150/92/4 132/93/5 156/94/5
f 140/85/13 116/84/11 119/83/13
f 116/84/11 140/85/13 135/86/11
f 134/92/8 110/93/7 133/94/7
f 110/93/7 134/92/8 109/91/8
f 145/94/12 119/91/13 125/93/12
f 119/91/13 145/94/12 140/92/13
f 143/94/1 121/91/2 115/93/1
f 121/91/2 143/94/1 151/92/2
f 133/90/7 116/87/11 135/89/11
f 116/87/11 133/90/7 110/88/7
f 124/87/10 156/90/5 132/88/5
f 156/90/5 124/87/10 154/89/10
f 139/86/6 109/83/8 134/85/8
f 109/83/8 139/86/6 111/84/6
f 155/97/5 72/96/4 149/95/4
f 72/96/4 155/97/5 69/98/5
f 153/101/10 69/100/5 155/99/5
f 69/100/5 153/101/10 68/102/10
f 67/105/2 153/104/10 152/103/2
f 153/104/10 67/105/2 68/106/10
f 61/96/8 136/97/7 63/98/7
f 136/97/7 61/96/8 137/95/8
f 66/105/13 138/104/11 142/103/13
f 138/104/11 66/105/13 65/106/11
f 62/106/6 137/103/8 61/105/8
f 137/103/8 62/106/6 141/104/6
f 63/100/7 138/101/11 65/102/11
f 138/101/11 63/100/7 136/99/7
f 149/103/4 71/106/9 147/104/9
f 71/106/9 149/103/4 72/105/4
f 71/102/9 146/99/12 147/101/9
f 146/99/12 71/102/9 70/100/12
f 62/102/6 144/99/1 141/101/6
f 144/99/1 62/102/6 64/100/1
f 64/98/1 152/95/2 144/97/1
f 152/95/2 64/98/1 67/96/2
f 70/98/12 142/95/13 146/97/12
f 142/95/13 70/98/12 66/96/13

usemtl metal

f 54/109/11 181/108/7 55/107/7
f 181/108/7 54/109/11 182/110/11
f 185/38/14 184/39/14 183/37/14
f 184/39/14 185/38/14 186/41/14
f 186/41/14 185/38/14 187/40/14
f 186/41/14 187/40/14 188/42/14
f 188/42/14 187/40/14 189/46/14
f 189/46/14 187/40/14 190/43/14
f 189/46/14 190/43/14 191/44/14
f 189/46/14 191/44/14 182/47/14
f 182/47/14 191/44/14 181/48/14
f 181/48/14 191/44/14 192/45/14
f 54/113/11 189/112/13 182/111/11
f 189/112/13 54/113/11 53/114/13
f 186/111/9 43/114/4 184/112/4
f 43/114/4 186/111/9 47/113/9
f 52/114/8 191/111/6 51/113/6
f 191/111/6 52/114/8 192/112/8
f 55/117/7 192/116/8 52/115/8
f 192/116/8 55/117/7 181/118/7
f 53/115/13 188/118/12 189/116/13
f 188/118/12 53/115/13 48/117/12
f 46/115/2 190/118/1 187/116/2
f 190/118/1 46/115/2 50/117/1
f 183/108/5 42/109/10 185/110/10
f 42/109/10 183/108/5 41/107/5
f 48/107/12 186/110/9 188/108/12
f 186/110/9 48/107/12 47/109/9
f 184/116/4 41/117/5 183/118/5
f 41/117/5 184/116/4 43/115/4
f 42/113/10 187/112/2 185/111/10
f 187/112/2 42/113/10 46/114/2
f 50/107/1 191/110/6 190/108/1
f 191/110/6 50/107/1 51/109/6
f 126/121/12 94/120/13 98/119/12
f 94/120/13 126/121/12 120/122/13
f 122/125/2 105/124/10 104/123/2
f 105/124/10 122/125/2 123/126/10
f 117/121/1 104/120/2 96/119/1
f 104/120/2 117/121/1 122/122/2
f 112/122/8 88/119/7 114/121/7
f 88/119/7 112/122/8 89/120/8
f 114/129/7 90/128/11 118/127/11
f 90/128/11 114/129/7 88/130/7
f 113/126/6 89/123/8 112/125/8
f 89/123/8 113/126/6 93/124/6
f 105/128/10 131/129/5 107/130/5
f 131/129/5 105/128/10 123/127/10
f 107/119/5 129/122/4 101/120/4
f 129/122/4 107/119/5 131/121/5
f 113/127/6 96/130/1 93/128/6
f 96/130/1 113/127/6 117/129/1
f 127/127/9 98/130/12 99/128/9
f 98/130/12 127/127/9 126/129/12
f 101/123/4 127/126/9 99/124/9
f 127/126/9 101/123/4 129/125/4
f 120/125/13 90/124/11 94/123/13
f 90/124/11 120/125/13 118/126/11

