# Created by Kenney (www.kenney.nl)

mtllib barrel.mtl

g barrel

v 0.02324449 0 0.11825
v -0.02324449 0 0.11825
v 0.02324449 0.043 0.11825
v -0.02324449 0.043 0.11825
v 0.11825 0 0.02324449
v 0.11825 0 -0.02324449
v 0.09449861 0 0.09449861
v 0.09449861 0 -0.09449861
v 0.02324449 0 -0.11825
v -0.02324449 0 -0.11825
v -0.09449861 0 0.09449861
v -0.09449861 0 -0.09449861
v -0.11825 0 0.02324449
v -0.11825 0 -0.02324449
v -0.11825 0.043 -0.02324449
v -0.11825 0.043 0.02324449
v 0.09449861 0.043 0.09449861
v 0.11825 0.043 -0.02324449
v 0.11825 0.043 0.02324449
v -0.09449861 0.043 -0.09449861
v -0.09449861 0.043 0.09449861
v 0.09449861 0.043 -0.09449861
v -0.02324449 0.043 -0.11825
v 0.02324449 0.043 -0.11825
v 0.09449861 0.344 -0.09449861
v 0.09449861 0.301 -0.09449861
v 0.11825 0.344 -0.02324449
v 0.11825 0.301 -0.02324449
v -0.09675 0.344 0.01975552
v -0.09675 0.33325 0.01975552
v -0.07750138 0.344 0.07750138
v -0.07750138 0.33325 0.07750138
v 0.09675 0.33325 -0.01975552
v 0.09675 0.33325 0.01975552
v 0.07750138 0.33325 -0.07750138
v 0.07750138 0.33325 0.07750138
v 0.01975552 0.33325 -0.09675
v 0.01975552 0.33325 0.09675
v -0.01975552 0.33325 0.09675
v -0.01975552 0.33325 -0.09675
v -0.03225 0.33325 -0.01075
v -0.07750138 0.33325 -0.07750138
v -0.03225 0.33325 0.01075
v -0.043 0.33325 -0.0215
v -0.0645 0.33325 -0.0215
v -0.043 0.33325 0.0215
v -0.07525 0.33325 -0.01075
v -0.0645 0.33325 0.0215
v -0.07525 0.33325 0.01075
v -0.09675 0.33325 -0.01975552
v 0.02324449 0.301 0.11825
v -0.02324449 0.301 0.11825
v 0.02324449 0.344 0.11825
v -0.02324449 0.344 0.11825
v -0.09449861 0.301 0.09449861
v -0.09449861 0.344 0.09449861
v -0.01975552 0.344 0.09675
v 0.09675 0.344 0.01975552
v 0.07750138 0.344 0.07750138
v -0.09449861 0.301 -0.09449861
v -0.09449861 0.344 -0.09449861
v -0.11825 0.301 -0.02324449
v -0.11825 0.344 -0.02324449
v 0.11825 0.344 0.02324449
v 0.11825 0.301 0.02324449
v 0.09675 0.344 -0.01975552
v 0.07750138 0.344 -0.07750138
v 0.02324449 0.344 -0.11825
v 0.09449861 0.344 0.09449861
v 0.01975552 0.344 -0.09675
v 0.01975552 0.344 0.09675
v -0.02324449 0.344 -0.11825
v -0.01975552 0.344 -0.09675
v -0.07750138 0.344 -0.07750138
v -0.09675 0.344 -0.01975552
v -0.11825 0.344 0.02324449
v 0.09449861 0.301 0.09449861
v -0.02324449 0.301 -0.11825
v 0.02324449 0.301 -0.11825
v -0.11825 0.301 0.02324449
v 0.1075 0.301 0.0215
v 0.086 0.301 0.086
v 0.1075 0.301 -0.0215
v 0.0215 0.301 0.1075
v 0.086 0.301 -0.086
v 0.0215 0.301 -0.1075
v -0.0215 0.301 0.1075
v -0.086 0.301 0.086
v -0.1075 0.301 0.0215
v -0.0215 0.301 -0.1075
v -0.086 0.301 -0.086
v -0.1075 0.301 -0.0215
v 0.1075 0.043 -0.0215
v 0.1075 0.043 0.0215
v 0.086 0.043 -0.086
v 0.086 0.043 0.086
v 0.0215 0.043 -0.1075
v 0.0215 0.043 0.1075
v -0.0215 0.043 -0.1075
v -0.086 0.043 -0.086
v -0.1075 0.043 -0.0215
v -0.0215 0.043 0.1075
v -0.086 0.043 0.086
v -0.1075 0.043 0.0215
v 0.11825 0.129 -0.02324449
v 0.11825 0.129 0.02324449
v 0.09449861 0.129 -0.09449861
v 0.1075 0.129 -0.0215
v 0.1075 0.129 0.0215
v 0.086 0.129 -0.086
v 0.09449861 0.129 0.09449861
v 0.02324449 0.129 -0.11825
v 0.086 0.129 0.086
v 0.0215 0.129 -0.1075
v 0.02324449 0.129 0.11825
v 0.0215 0.129 0.1075
v -0.02324449 0.129 -0.11825
v -0.0215 0.129 -0.1075
v -0.086 0.129 -0.086
v -0.09449861 0.129 -0.09449861
v -0.1075 0.129 -0.0215
v -0.11825 0.129 -0.02324449
v -0.02324449 0.129 0.11825
v -0.0215 0.129 0.1075
v -0.086 0.129 0.086
v -0.09449861 0.129 0.09449861
v -0.1075 0.129 0.0215
v -0.11825 0.129 0.02324449
v 0.11825 0.215 0.02324449
v 0.11825 0.215 -0.02324449
v 0.09449861 0.215 0.09449861
v 0.1075 0.215 0.0215
v 0.086 0.215 0.086
v 0.1075 0.215 -0.0215
v 0.02324449 0.215 0.11825
v 0.09449861 0.215 -0.09449861
v 0.0215 0.215 0.1075
v 0.086 0.215 -0.086
v 0.02324449 0.215 -0.11825
v 0.0215 0.215 -0.1075
v -0.02324449 0.215 0.11825
v -0.0215 0.215 0.1075
v -0.086 0.215 0.086
v -0.09449861 0.215 0.09449861
v -0.02324449 0.215 -0.11825
v -0.0215 0.215 -0.1075
v -0.086 0.215 -0.086
v -0.09449861 0.215 -0.09449861
v -0.1075 0.215 -0.0215
v -0.11825 0.215 -0.02324449
v -0.1075 0.215 0.0215
v -0.11825 0.215 0.02324449
v 0.11825 0.2365 -0.02324449
v 0.11825 0.2365 0.02324449
v 0.09449861 0.2365 -0.09449861
v 0.1075 0.2365 -0.0215
v 0.1075 0.2365 0.0215
v 0.086 0.2365 -0.086
v 0.09449861 0.2365 0.09449861
v 0.02324449 0.2365 -0.11825
v 0.086 0.2365 0.086
v 0.0215 0.2365 -0.1075
v 0.02324449 0.2365 0.11825
v 0.0215 0.2365 0.1075
v -0.02324449 0.2365 -0.11825
v -0.0215 0.2365 -0.1075
v -0.086 0.2365 -0.086
v -0.09449861 0.2365 -0.09449861
v -0.1075 0.2365 -0.0215
v -0.11825 0.2365 -0.02324449
v -0.02324449 0.2365 0.11825
v -0.0215 0.2365 0.1075
v -0.086 0.2365 0.086
v -0.09449861 0.2365 0.09449861
v -0.1075 0.2365 0.0215
v -0.11825 0.2365 0.02324449
v 0.02324449 0.1075 -0.11825
v 0.09449861 0.1075 -0.09449861
v -0.02324449 0.1075 -0.11825
v 0.11825 0.1075 0.02324449
v 0.09449861 0.1075 0.09449861
v -0.09449861 0.1075 -0.09449861
v -0.11825 0.1075 -0.02324449
v 0.11825 0.1075 -0.02324449
v -0.11825 0.1075 0.02324449
v 0.1075 0.1075 0.0215
v 0.086 0.1075 0.086
v 0.1075 0.1075 -0.0215
v 0.02324449 0.1075 0.11825
v 0.0215 0.1075 0.1075
v 0.086 0.1075 -0.086
v 0.0215 0.1075 -0.1075
v -0.02324449 0.1075 0.11825
v -0.0215 0.1075 0.1075
v -0.086 0.1075 0.086
v -0.09449861 0.1075 0.09449861
v -0.0215 0.1075 -0.1075
v -0.086 0.1075 -0.086
v -0.1075 0.1075 -0.0215
v -0.1075 0.1075 0.0215
v -0.043 0.344 0.0215
v -0.0645 0.344 0.0215
v -0.07525 0.344 -0.01075
v -0.07525 0.344 0.01075
v -0.03225 0.344 -0.01075
v -0.03225 0.344 0.01075
v -0.0645 0.344 -0.0215
v -0.043 0.344 -0.0215

vn 0.06887836 0 0.4244476
vn -0.06887836 0 0.4244476
vn 0 -0.43 0
vn -0.4244476 0 -0.06887836
vn -0.4244476 0 0.06887836
vn 0.3040559 0 0.3040559
vn 0.4244476 0 -0.06887836
vn 0.4244476 0 0.06887836
vn -0.3040559 0 -0.3040559
vn -0.3040559 0 0.3040559
vn 0.3040559 0 -0.3040559
vn -0.06887836 0 -0.4244476
vn 0.06887836 0 -0.4244476
vn 0 0.43 0
vn 0.1645539 0 0.3972682
vn -0.1645539 0 0.3972682
vn -0.3972682 0 -0.1645539
vn -0.3972682 0 0.1645539
vn 0.3972682 0 -0.1645539
vn 0.3972682 0 0.1645539
vn -0.1645539 0 -0.3972682
vn 0.1645539 0 -0.3972682

vt 2.128226 0
vt -2.128226 0
vt 2.128226 3.937008
vt -2.128226 3.937008
vt 10.82677 2.128226
vt 10.82677 -2.128226
vt 8.652135 8.652135
vt 8.652135 -8.652135
vt 2.128226 10.82677
vt 2.128226 -10.82677
vt -2.128226 10.82677
vt -2.128226 -10.82677
vt -8.652135 8.652135
vt -8.652135 -8.652135
vt -10.82677 2.128226
vt -10.82677 -2.128226
vt 5.472091 0
vt -1.404713 0
vt 5.472091 3.937008
vt -1.404713 3.937008
vt -5.472091 0
vt -5.472091 3.937008
vt 1.404713 0
vt 1.404713 3.937008
vt 5.472091 31.49606
vt 5.472091 27.55906
vt -1.404713 31.49606
vt -1.404713 27.55906
vt 1.085269 31.49606
vt 1.085269 30.51181
vt -4.487839 31.49606
vt -4.487839 30.51181
vt -8.858268 -1.808782
vt -8.858268 1.808782
vt -7.095896 -7.095896
vt -7.095896 7.095896
vt -1.808782 -8.858268
vt -1.808782 8.858268
vt 1.808782 8.858268
vt 1.808782 -8.858268
vt 2.952756 -0.984252
vt 7.095896 -7.095896
vt 2.952756 0.984252
vt 3.937008 -1.968504
vt 7.095896 7.095896
vt 5.905512 -1.968504
vt 3.937008 1.968504
vt 6.889764 -0.984252
vt 5.905512 1.968504
vt 6.889764 0.984252
vt 8.858268 1.808782
vt 8.858268 -1.808782
vt 2.128226 27.55906
vt -2.128226 27.55906
vt 2.128226 31.49606
vt -2.128226 31.49606
vt 1.404713 27.55906
vt -5.472091 27.55906
vt 1.404713 31.49606
vt -5.472091 31.49606
vt 4.487839 30.51181
vt -1.085269 30.51181
vt 4.487839 31.49606
vt -1.085269 31.49606
vt 1.808782 31.49606
vt 1.808782 30.51181
vt -1.808782 31.49606
vt -1.808782 30.51181
vt 9.84252 1.968504
vt 7.874016 7.874016
vt 9.84252 -1.968504
vt 1.968504 9.84252
vt 7.874016 -7.874016
vt 1.968504 -9.84252
vt -1.968504 9.84252
vt -7.874016 7.874016
vt -9.84252 1.968504
vt -1.968504 -9.84252
vt -7.874016 -7.874016
vt -9.84252 -1.968504
vt 1.404713 9.84252
vt -5.472091 9.84252
vt 1.404713 11.81102
vt -5.472091 11.81102
vt 2.128226 9.84252
vt -2.128226 9.84252
vt 2.128226 11.81102
vt -2.128226 11.81102
vt 5.472091 9.84252
vt -1.404713 9.84252
vt 5.472091 11.81102
vt -1.404713 11.81102
vt 4.979965 3.937008
vt -1.244991 3.937008
vt 4.979965 9.84252
vt -1.244991 9.84252
vt 1.244991 3.937008
vt -4.979965 3.937008
vt 1.244991 9.84252
vt -4.979965 9.84252
vt 1.968504 3.937008
vt -1.968504 3.937008
vt 1.404713 19.68504
vt -5.472091 19.68504
vt 1.404713 21.65354
vt -5.472091 21.65354
vt 5.472091 19.68504
vt -1.404713 19.68504
vt 5.472091 21.65354
vt -1.404713 21.65354
vt -2.128226 19.68504
vt -2.128226 21.65354
vt 2.128226 19.68504
vt 2.128226 21.65354
vt -1.968504 21.65354
vt -1.968504 27.55906
vt 1.968504 21.65354
vt 1.968504 27.55906
vt -1.244991 21.65354
vt -1.244991 27.55906
vt 4.979965 21.65354
vt 4.979965 27.55906
vt 1.244991 21.65354
vt -4.979965 21.65354
vt 1.244991 27.55906
vt -4.979965 27.55906
vt -3.937008 30.51181
vt -5.905512 30.51181
vt -3.937008 31.49606
vt -5.905512 31.49606
vt -0.984252 30.51181
vt -0.984252 31.49606
vt 0.984252 30.51181
vt 0.984252 31.49606
vt 5.905512 30.51181
vt 3.937008 30.51181
vt 5.905512 31.49606
vt 3.937008 31.49606
vt 4.175828 31.49606
vt 4.175828 30.51181
vt 2.783885 31.49606
vt 2.783885 30.51181
vt -4.175828 30.51181
vt -4.175828 31.49606
vt -2.783885 30.51181
vt -2.783885 31.49606
vt 1.968504 11.81102
vt -1.968504 11.81102
vt 1.968504 19.68504
vt -1.968504 19.68504
vt 1.244991 11.81102
vt -4.979965 11.81102
vt 1.244991 19.68504
vt -4.979965 19.68504
vt 4.979965 19.68504
vt 4.979965 11.81102
vt -1.244991 19.68504
vt -1.244991 11.81102

usemtl cloth

f 3/3/1 2/2/2 1/1/1
f 2/2/2 3/3/1 4/4/2
f 7/7/3 6/6/3 5/5/3
f 6/6/3 7/7/3 8/8/3
f 8/8/3 7/7/3 1/9/3
f 8/8/3 1/9/3 9/10/3
f 9/10/3 1/9/3 2/11/3
f 9/10/3 2/11/3 10/12/3
f 10/12/3 2/11/3 11/13/3
f 10/12/3 11/13/3 12/14/3
f 12/14/3 11/13/3 13/15/3
f 12/14/3 13/15/3 14/16/3
f 13/1/5 15/4/4 14/2/4
f 15/4/4 13/1/5 16/3/5
f 17/19/6 1/18/1 7/17/6
f 1/18/1 17/19/6 3/20/1
f 19/4/8 6/1/7 18/3/7
f 6/1/7 19/4/8 5/2/8
f 14/23/4 20/22/9 12/21/9
f 20/22/9 14/23/4 15/24/4
f 17/22/6 5/23/8 19/24/8
f 5/23/8 17/22/6 7/21/6
f 4/24/2 11/21/10 2/23/2
f 11/21/10 4/24/2 21/22/10
f 18/20/7 8/17/11 22/19/11
f 8/17/11 18/20/7 6/18/7
f 20/19/9 10/18/12 12/17/9
f 10/18/12 20/19/9 23/20/12
f 23/3/12 9/2/13 10/1/12
f 9/2/13 23/3/12 24/4/13
f 11/17/10 16/20/5 13/18/5
f 16/20/5 11/17/10 21/19/10
f 24/24/13 8/21/11 9/23/13
f 8/21/11 24/24/13 22/22/11
f 27/27/7 26/26/11 25/25/11
f 26/26/11 27/27/7 28/28/7
f 31/31/11 30/30/7 29/29/7
f 30/30/7 31/31/11 32/32/11
f 35/35/14 34/34/14 33/33/14
f 34/34/14 35/35/14 36/36/14
f 36/36/14 35/35/14 37/37/14
f 36/36/14 37/37/14 38/38/14
f 38/38/14 37/37/14 39/39/14
f 39/39/14 37/37/14 40/40/14
f 39/39/14 40/40/14 41/41/14
f 41/41/14 40/40/14 42/42/14
f 43/43/14 39/39/14 41/41/14
f 41/41/14 42/42/14 44/44/14
f 39/39/14 43/43/14 32/45/14
f 44/44/14 42/42/14 45/46/14
f 32/45/14 43/43/14 46/47/14
f 45/46/14 42/42/14 47/48/14
f 32/45/14 46/47/14 48/49/14
f 32/45/14 48/49/14 49/50/14
f 47/48/14 42/42/14 49/50/14
f 49/50/14 42/42/14 32/45/14
f 32/45/14 42/42/14 30/51/14
f 30/51/14 42/42/14 50/52/14
f 53/55/1 52/54/2 51/53/1
f 52/54/2 53/55/1 54/56/2
f 54/59/2 55/58/10 52/57/2
f 55/58/10 54/59/2 56/60/10
f 31/63/11 39/62/13 32/61/11
f 39/62/13 31/63/11 57/64/13
f 36/61/9 58/64/4 34/62/4
f 58/64/4 36/61/9 59/63/9
f 62/57/4 61/60/9 60/58/9
f 61/60/9 62/57/4 63/59/4
f 64/56/8 28/53/7 27/55/7
f 28/53/7 64/56/8 65/54/8
f 25/14/14 64/15/14 27/16/14
f 64/15/14 25/14/14 66/33/14
f 66/33/14 25/14/14 67/35/14
f 58/34/14 64/15/14 66/33/14
f 67/35/14 25/14/14 68/12/14
f 64/15/14 58/34/14 69/13/14
f 67/35/14 68/12/14 70/37/14
f 69/13/14 58/34/14 59/36/14
f 69/13/14 59/36/14 53/11/14
f 53/11/14 59/36/14 71/38/14
f 70/37/14 68/12/14 72/10/14
f 70/37/14 72/10/14 73/40/14
f 73/40/14 72/10/14 74/42/14
f 74/42/14 72/10/14 61/8/14
f 74/42/14 61/8/14 75/52/14
f 75/52/14 61/8/14 63/6/14
f 53/11/14 71/38/14 54/9/14
f 54/9/14 71/38/14 57/39/14
f 54/9/14 57/39/14 31/45/14
f 54/9/14 31/45/14 56/7/14
f 75/52/14 63/6/14 29/51/14
f 56/7/14 31/45/14 29/51/14
f 76/5/14 29/51/14 63/6/14
f 56/7/14 29/51/14 76/5/14
f 75/64/8 42/61/6 74/63/6
f 42/61/6 75/64/8 50/62/8
f 29/67/7 50/66/8 75/65/8
f 50/66/8 29/67/7 30/68/7
f 57/65/13 38/68/12 39/66/13
f 38/68/12 57/65/13 71/67/12
f 69/25/6 51/28/1 77/26/6
f 51/28/1 69/25/6 53/27/1
f 70/65/2 40/68/1 37/66/2
f 40/68/1 70/65/2 73/67/1
f 33/30/5 67/31/10 35/32/10
f 67/31/10 33/30/5 66/29/5
f 71/29/12 36/32/9 38/30/12
f 36/32/9 71/29/12 59/31/9
f 72/55/12 79/54/13 78/53/12
f 79/54/13 72/55/12 68/56/13
f 61/25/9 78/28/12 60/26/9
f 78/28/12 61/25/9 72/27/12
f 68/59/13 26/58/11 79/57/13
f 26/58/11 68/59/13 25/60/11
f 55/26/10 76/27/5 80/28/5
f 76/27/5 55/26/10 56/25/10
f 34/66/4 66/67/5 33/68/5
f 66/67/5 34/66/4 58/65/4
f 80/53/5 63/56/4 62/54/4
f 63/56/4 80/53/5 76/55/5
f 69/60/6 65/57/8 64/59/8
f 65/57/8 69/60/6 77/58/6
f 67/63/10 37/62/2 35/61/10
f 37/62/2 67/63/10 70/64/2
f 73/29/1 42/32/6 40/30/1
f 42/32/6 73/29/1 74/31/6
f 77/7/3 28/6/3 65/5/3
f 28/6/3 77/7/3 81/69/3
f 81/69/3 77/7/3 82/70/3
f 83/71/3 28/6/3 81/69/3
f 82/70/3 77/7/3 51/9/3
f 28/6/3 83/71/3 26/8/3
f 82/70/3 51/9/3 84/72/3
f 26/8/3 83/71/3 85/73/3
f 26/8/3 85/73/3 79/10/3
f 79/10/3 85/73/3 86/74/3
f 84/72/3 51/9/3 52/11/3
f 84/72/3 52/11/3 87/75/3
f 87/75/3 52/11/3 88/76/3
f 88/76/3 52/11/3 55/13/3
f 88/76/3 55/13/3 89/77/3
f 89/77/3 55/13/3 80/15/3
f 79/10/3 86/74/3 78/12/3
f 78/12/3 86/74/3 90/78/3
f 78/12/3 90/78/3 91/79/3
f 78/12/3 91/79/3 60/14/3
f 89/77/3 80/15/3 92/80/3
f 60/14/3 91/79/3 92/80/3
f 62/16/3 92/80/3 80/15/3
f 60/14/3 92/80/3 62/16/3
f 22/14/14 19/15/14 18/16/14
f 19/15/14 22/14/14 93/80/14
f 19/15/14 93/80/14 94/77/14
f 93/80/14 22/14/14 95/79/14
f 94/77/14 17/13/14 19/15/14
f 95/79/14 22/14/14 24/12/14
f 17/13/14 94/77/14 96/76/14
f 95/79/14 24/12/14 97/78/14
f 17/13/14 96/76/14 3/11/14
f 3/11/14 96/76/14 98/75/14
f 97/78/14 24/12/14 23/10/14
f 97/78/14 23/10/14 99/74/14
f 99/74/14 23/10/14 100/73/14
f 100/73/14 23/10/14 20/8/14
f 100/73/14 20/8/14 101/71/14
f 101/71/14 20/8/14 15/6/14
f 3/11/14 98/75/14 4/9/14
f 4/9/14 98/75/14 102/72/14
f 4/9/14 102/72/14 103/70/14
f 4/9/14 103/70/14 21/7/14
f 101/71/14 15/6/14 104/69/14
f 21/7/14 103/70/14 104/69/14
f 16/5/14 104/69/14 15/6/14
f 21/7/14 104/69/14 16/5/14
f 107/14/14 106/15/14 105/16/14
f 106/15/14 107/14/14 108/80/14
f 106/15/14 108/80/14 109/77/14
f 108/80/14 107/14/14 110/79/14
f 109/77/14 111/13/14 106/15/14
f 110/79/14 107/14/14 112/12/14
f 111/13/14 109/77/14 113/76/14
f 110/79/14 112/12/14 114/78/14
f 111/13/14 113/76/14 115/11/14
f 115/11/14 113/76/14 116/75/14
f 114/78/14 112/12/14 117/10/14
f 114/78/14 117/10/14 118/74/14
f 118/74/14 117/10/14 119/73/14
f 119/73/14 117/10/14 120/8/14
f 119/73/14 120/8/14 121/71/14
f 121/71/14 120/8/14 122/6/14
f 115/11/14 116/75/14 123/9/14
f 123/9/14 116/75/14 124/72/14
f 123/9/14 124/72/14 125/70/14
f 123/9/14 125/70/14 126/7/14
f 121/71/14 122/6/14 127/69/14
f 126/7/14 125/70/14 127/69/14
f 128/5/14 127/69/14 122/6/14
f 126/7/14 127/69/14 128/5/14
f 131/7/3 130/6/3 129/5/3
f 130/6/3 131/7/3 132/69/3
f 132/69/3 131/7/3 133/70/3
f 134/71/3 130/6/3 132/69/3
f 133/70/3 131/7/3 135/9/3
f 130/6/3 134/71/3 136/8/3
f 133/70/3 135/9/3 137/72/3
f 136/8/3 134/71/3 138/73/3
f 136/8/3 138/73/3 139/10/3
f 139/10/3 138/73/3 140/74/3
f 137/72/3 135/9/3 141/11/3
f 137/72/3 141/11/3 142/75/3
f 142/75/3 141/11/3 143/76/3
f 143/76/3 141/11/3 144/13/3
f 139/10/3 140/74/3 145/12/3
f 145/12/3 140/74/3 146/78/3
f 145/12/3 146/78/3 147/79/3
f 145/12/3 147/79/3 148/14/3
f 148/14/3 147/79/3 149/80/3
f 148/14/3 149/80/3 150/16/3
f 143/76/3 144/13/3 151/77/3
f 150/16/3 149/80/3 151/77/3
f 151/77/3 144/13/3 152/15/3
f 150/16/3 151/77/3 152/15/3
f 155/14/14 154/15/14 153/16/14
f 154/15/14 155/14/14 156/80/14
f 154/15/14 156/80/14 157/77/14
f 156/80/14 155/14/14 158/79/14
f 157/77/14 159/13/14 154/15/14
f 158/79/14 155/14/14 160/12/14
f 159/13/14 157/77/14 161/76/14
f 158/79/14 160/12/14 162/78/14
f 159/13/14 161/76/14 163/11/14
f 163/11/14 161/76/14 164/75/14
f 162/78/14 160/12/14 165/10/14
f 162/78/14 165/10/14 166/74/14
f 166/74/14 165/10/14 167/73/14
f 167/73/14 165/10/14 168/8/14
f 167/73/14 168/8/14 169/71/14
f 169/71/14 168/8/14 170/6/14
f 163/11/14 164/75/14 171/9/14
f 171/9/14 164/75/14 172/72/14
f 171/9/14 172/72/14 173/70/14
f 171/9/14 173/70/14 174/7/14
f 169/71/14 170/6/14 175/69/14
f 174/7/14 173/70/14 175/69/14
f 176/5/14 175/69/14 170/6/14
f 174/7/14 175/69/14 176/5/14
f 112/83/13 178/82/11 177/81/13
f 178/82/11 112/83/13 107/84/11
f 117/87/12 177/86/13 179/85/12
f 177/86/13 117/87/12 112/88/13
f 111/84/6 180/81/8 106/83/8
f 180/81/8 111/84/6 181/82/6
f 120/91/9 179/90/12 182/89/9
f 179/90/12 120/91/9 117/92/12
f 183/81/4 120/84/9 182/82/9
f 120/84/9 183/81/4 122/83/4
f 105/92/7 178/89/11 107/91/11
f 178/89/11 105/92/7 184/90/7
f 185/85/5 122/88/4 183/86/4
f 122/88/4 185/85/5 128/87/5
f 181/7/3 184/6/3 180/5/3
f 184/6/3 181/7/3 186/69/3
f 186/69/3 181/7/3 187/70/3
f 188/71/3 184/6/3 186/69/3
f 187/70/3 181/7/3 189/9/3
f 184/6/3 188/71/3 178/8/3
f 187/70/3 189/9/3 190/72/3
f 178/8/3 188/71/3 191/73/3
f 178/8/3 191/73/3 177/10/3
f 177/10/3 191/73/3 192/74/3
f 190/72/3 189/9/3 193/11/3
f 190/72/3 193/11/3 194/75/3
f 194/75/3 193/11/3 195/76/3
f 195/76/3 193/11/3 196/13/3
f 177/10/3 192/74/3 179/12/3
f 179/12/3 192/74/3 197/78/3
f 179/12/3 197/78/3 198/79/3
f 179/12/3 198/79/3 182/14/3
f 182/14/3 198/79/3 199/80/3
f 182/14/3 199/80/3 183/16/3
f 195/76/3 196/13/3 200/77/3
f 183/16/3 199/80/3 200/77/3
f 200/77/3 196/13/3 185/15/3
f 183/16/3 200/77/3 185/15/3
f 106/88/8 184/85/7 105/87/7
f 184/85/7 106/88/8 180/86/8
f 111/91/6 189/90/1 181/89/6
f 189/90/1 111/91/6 115/92/1
f 123/83/2 196/82/10 193/81/2
f 196/82/10 123/83/2 126/84/10
f 196/89/10 128/92/5 185/90/5
f 128/92/5 196/89/10 126/91/10
f 115/87/1 193/86/2 189/85/1
f 193/86/2 115/87/1 123/88/2
f 187/95/6 98/94/1 96/93/6
f 98/94/1 187/95/6 190/96/1
f 194/99/2 103/98/10 102/97/2
f 103/98/10 194/99/2 195/100/10
f 186/99/8 96/98/6 94/97/8
f 96/98/6 186/99/8 187/100/6
f 198/95/9 99/94/12 100/93/9
f 99/94/12 198/95/9 197/96/12
f 104/94/5 195/95/10 200/96/5
f 195/95/10 104/94/5 103/93/10
f 190/72/1 102/102/2 98/101/1
f 102/102/2 190/72/1 194/75/2
f 188/96/7 95/93/11 191/95/11
f 95/93/11 188/96/7 93/94/7
f 104/101/5 199/75/4 101/102/4
f 199/75/4 104/101/5 200/72/5
f 192/99/13 95/98/11 97/97/13
f 95/98/11 192/99/13 191/100/11
f 188/72/7 94/102/8 93/101/7
f 94/102/8 188/72/7 186/75/8
f 101/97/4 198/100/9 100/98/9
f 198/100/9 101/97/4 199/99/4
f 197/72/12 97/102/13 99/101/12
f 97/102/13 197/72/12 192/75/13
f 171/105/2 144/104/10 141/103/2
f 144/104/10 171/105/2 174/106/10
f 150/103/4 168/106/9 148/104/9
f 168/106/9 150/103/4 170/105/4
f 168/109/9 145/108/12 148/107/9
f 145/108/12 168/109/9 165/110/12
f 159/109/6 135/108/1 131/107/6
f 135/108/1 159/109/6 163/110/1
f 152/113/5 170/112/4 150/111/4
f 170/112/4 152/113/5 176/114/5
f 160/105/13 136/104/11 139/103/13
f 136/104/11 160/105/13 155/106/11
f 154/112/8 130/113/7 153/114/7
f 130/113/7 154/112/8 129/111/8
f 165/114/12 139/111/13 145/113/12
f 139/111/13 165/114/12 160/112/13
f 163/114/1 141/111/2 135/113/1
f 141/111/2 163/114/1 171/112/2
f 153/110/7 136/107/11 155/109/11
f 136/107/11 153/110/7 130/108/7
f 144/107/10 176/110/5 152/108/5
f 176/110/5 144/107/10 174/109/10
f 159/106/6 129/103/8 154/105/8
f 129/103/8 159/106/6 131/104/6
f 175/117/5 92/116/4 169/115/4
f 92/116/4 175/117/5 89/118/5
f 173/121/10 89/120/5 175/119/5
f 89/120/5 173/121/10 88/122/10
f 87/125/2 173/124/10 172/123/2
f 173/124/10 87/125/2 88/126/10
f 81/116/8 156/117/7 83/118/7
f 156/117/7 81/116/8 157/115/8
f 86/125/13 158/124/11 162/123/13
f 158/124/11 86/125/13 85/126/11
f 82/126/6 157/123/8 81/125/8
f 157/123/8 82/126/6 161/124/6
f 83/120/7 158/121/11 85/122/11
f 158/121/11 83/120/7 156/119/7
f 167/124/9 92/125/4 91/126/9
f 92/125/4 167/124/9 169/123/4
f 91/122/9 166/119/12 167/121/9
f 166/119/12 91/122/9 90/120/12
f 82/122/6 164/119/1 161/121/6
f 164/119/1 82/122/6 84/120/1
f 84/118/1 172/115/2 164/117/1
f 172/115/2 84/118/1 87/116/2
f 90/118/12 162/115/13 166/117/12
f 162/115/13 90/118/12 86/116/13

usemtl metal

f 201/129/15 48/128/16 46/127/15
f 48/128/16 201/129/15 202/130/16
f 49/133/18 203/132/17 47/131/17
f 203/132/17 49/133/18 204/134/18
f 206/132/20 41/133/19 205/134/19
f 41/133/19 206/132/20 43/131/20
f 207/137/21 44/136/22 45/135/21
f 44/136/22 207/137/21 208/138/22
f 208/44/14 206/43/14 205/41/14
f 206/43/14 208/44/14 201/47/14
f 201/47/14 208/44/14 207/46/14
f 201/47/14 207/46/14 202/49/14
f 202/49/14 207/46/14 203/48/14
f 202/49/14 203/48/14 204/50/14
f 205/141/19 44/140/22 208/139/22
f 44/140/22 205/141/19 41/142/19
f 47/140/17 207/141/21 45/142/21
f 207/141/21 47/140/17 203/139/17
f 48/145/16 204/144/18 49/143/18
f 204/144/18 48/145/16 202/146/16
f 201/144/15 43/145/20 206/146/20
f 43/145/20 201/144/15 46/143/15
f 146/149/12 114/148/13 118/147/12
f 114/148/13 146/149/12 140/150/13
f 142/153/2 125/152/10 124/151/2
f 125/152/10 142/153/2 143/154/10
f 137/149/1 124/148/2 116/147/1
f 124/148/2 137/149/1 142/150/2
f 132/150/8 108/147/7 134/149/7
f 108/147/7 132/150/8 109/148/8
f 134/157/7 110/156/11 138/155/11
f 110/156/11 134/157/7 108/158/7
f 133/154/6 109/151/8 132/153/8
f 109/151/8 133/154/6 113/152/6
f 125/156/10 151/157/5 127/158/5
f 151/157/5 125/156/10 143/155/10
f 127/147/5 149/150/4 121/148/4
f 149/150/4 127/147/5 151/149/5
f 133/155/6 116/158/1 113/156/6
f 116/158/1 133/155/6 137/157/1
f 147/155/9 118/158/12 119/156/9
f 118/158/12 147/155/9 146/157/12
f 121/151/4 147/154/9 119/152/9
f 147/154/9 121/151/4 149/153/4
f 140/153/13 110/152/11 114/151/13
f 110/152/11 140/153/13 138/154/11

