# Created by Kenney (www.kenney.nl)

mtllib bedrollFrame.mtl

g bedrollFrame

v -0.01633781 0.06616798 -0.3031254
v 0.01633781 0.06616798 -0.3031254
v -0.01633781 0.08154395 -0.3031254
v 0.01633781 0.08154395 -0.3031254
v -0.01633781 0.06616798 -0.2653912
v -0.01633781 0.08154395 -0.2653912
v 0.01633781 0.08154395 -0.24647
v 0.01633781 0.08154395 0.2451389
v -0.01633781 0.08154395 -0.24647
v -0.01633781 0.08154395 0.2451389
v -0.01633781 0.06616798 -0.24647
v -0.01633781 0.06616797 0.2451389
v 0.01633781 0.06616798 -0.24647
v 0.01633781 0.06616797 0.2451389
v 0.01633781 0.06616797 0.2640601
v -0.01633781 0.06616797 0.2640601
v 0.01633781 0.06616797 0.3031254
v -0.01633781 0.06616797 0.3031254
v 0.01633781 0.08154395 0.2640601
v 0.01633781 0.08154395 0.3031254
v -0.01633781 0.08154395 0.2640601
v -0.01633781 0.08154395 0.3031254
v 0.01633781 0.06616798 -0.2653912
v 0.01633781 0.08154395 -0.2653912
v -0.1242763 4.511946E-17 -0.2653912
v -0.1361237 0.025177 -0.2653912
v -0.1242763 4.511946E-17 -0.24647
v -0.1361237 0.025177 -0.24647
v 0.1242763 4.511946E-17 -0.24647
v -3.1085E-10 0.05847999 -0.24647
v 0.1361237 0.025177 -0.24647
v 0.03267562 0.07385597 -0.24647
v 0.1361237 0.1225349 -0.24647
v -0.03267562 0.07385597 -0.24647
v -0.1361237 0.1225349 -0.24647
v -3.1085E-10 0.08923195 -0.24647
v 0.1242763 0.1477119 -0.24647
v -0.1242763 0.1477119 -0.24647
v -1.036166E-10 0.08923195 -0.2653912
v -0.1242763 0.1477119 -0.2653912
v 0.1242763 0.1477119 -0.2653912
v 0.1242763 4.511946E-17 -0.2653912
v -1.036166E-10 0.05847999 -0.2653912
v 0.1361237 0.1225349 -0.2653912
v 0.03267562 0.07385597 -0.2653912
v 0.1361237 0.025177 -0.2653912
v -0.1361237 0.1225349 -0.2653912
v -0.03267562 0.07385597 -0.2653912
v 0.1242763 0 0.2451389
v 0.1242763 0 0.2640601
v 0.1361237 0.025177 0.2451389
v 0.1361237 0.025177 0.2640601
v 0.03267562 0.07385597 0.2451389
v 0.03267562 0.07385597 0.2640601
v 0.1242763 0.1477119 0.2451389
v 0.1242763 0.1477119 0.2640601
v 3.108503E-10 0.08923195 0.2451389
v 1.036169E-10 0.08923195 0.2640601
v -0.1361237 0.1225349 0.2451389
v -0.1242763 0.1477119 0.2451389
v -0.1361237 0.1225349 0.2640601
v -0.1242763 0.1477119 0.2640601
v -0.03267562 0.07385597 0.2451389
v -0.03267562 0.07385597 0.2640601
v -0.1242763 0 0.2451389
v -0.1361237 0.025177 0.2451389
v -0.1242763 0 0.2640601
v -0.1361237 0.025177 0.2640601
v 3.108503E-10 0.05847999 0.2451389
v 0.1361237 0.1225349 0.2451389
v 1.036169E-10 0.05847999 0.2640601
v 0.1361237 0.1225349 0.2640601

vn 0 0 -1
vn -1 0 0
vn 0 1 0
vn 1 0 0
vn 0 -1 0
vn -0.9048271 -0.4257793 0
vn 0 0 1
vn 0.4257793 0.9048271 0
vn -0.4257793 0.9048271 0
vn -0.4257793 -0.9048271 0
vn 0.4257793 -0.9048271 0
vn 0.9048271 -0.4257793 0
vn -0.9048271 0.4257793 0
vn 0.9048271 0.4257793 0

vt 0.643221 2.605038
vt -0.6432209 2.605038
vt 0.643221 3.210392
vt -0.6432209 3.210392
vt -11.93407 2.605039
vt -11.93407 3.210392
vt -10.44847 2.605039
vt -10.44847 3.210392
vt -0.6432209 -9.703546
vt -0.6432208 9.651139
vt 0.6432209 -9.703546
vt 0.643221 9.651139
vt -9.703546 3.210392
vt 9.651139 3.210392
vt -9.703546 2.605039
vt 9.651139 2.605038
vt 9.703546 3.210392
vt 9.703546 2.605039
vt -9.651139 3.210392
vt -9.651139 2.605038
vt 0.6432208 10.39607
vt -0.643221 10.39607
vt 0.6432208 11.93407
vt -0.643221 11.93407
vt -0.6432208 10.39607
vt -0.6432208 11.93407
vt 0.643221 10.39607
vt 0.643221 11.93407
vt 10.39607 3.210392
vt 11.93407 3.210392
vt 10.39607 2.605038
vt 11.93407 2.605038
vt -10.39607 3.210392
vt -10.39607 2.605038
vt -11.93407 2.605038
vt 0.6432209 -11.93407
vt -0.6432209 -11.93407
vt 0.6432209 -10.44847
vt -0.6432209 -10.44847
vt 0.6432208 9.651139
vt -0.643221 9.651139
vt 11.93407 2.605039
vt 10.44847 3.210392
vt 10.44847 2.605039
vt -10.44847 2.083239
vt -10.44847 3.17872
vt -9.703546 2.083239
vt -9.703546 3.17872
vt 4.892768 9.778955E-08
vt -6.138108E-08 2.302362
vt 5.3592 0.9912205
vt 0.6432208 2.605039
vt 1.286442 2.907715
vt 0.6432208 3.210392
vt -0.643221 2.605039
vt 5.3592 4.82421
vt -1.286442 2.907715
vt -0.643221 3.210392
vt -5.359201 0.9912205
vt -4.892768 9.778955E-08
vt -5.359201 4.82421
vt -6.138108E-08 3.513069
vt 4.892768 5.815431
vt -4.892768 5.815431
vt 10.44847 1.495792
vt 9.703546 1.495792
vt 10.44847 6.903199
vt 9.703546 6.903199
vt -10.44847 6.903199
vt -9.703546 6.903199
vt -10.44847 1.495792
vt -9.703546 1.495792
vt -10.44847 -4.427108
vt -10.44847 0.9802982
vt -9.703546 -4.427108
vt -9.703546 0.9802982
vt 9.703546 2.402052
vt 10.44847 2.402052
vt 10.44847 2.083239
vt 9.703546 2.083239
vt 10.44847 3.17872
vt 9.703546 3.17872
vt 10.44847 -4.427108
vt 9.703546 -4.427108
vt 10.44847 0.07403783
vt 9.703546 0.07403782
vt -10.44847 2.083239
vt -9.703546 2.083239
vt -10.44847 2.402053
vt -9.703546 2.402053
vt 4.892768 1.052967E-07
vt 5.699491E-08 2.302362
vt 5.359201 0.9912205
vt 1.286442 2.907715
vt 0.643221 2.605039
vt 0.643221 3.210392
vt 5.359201 4.82421
vt -0.6432208 2.605039
vt -0.6432208 3.210392
vt -1.286442 2.907715
vt -5.3592 0.9912205
vt -4.892768 1.052967E-07
vt -5.3592 4.82421
vt 5.699491E-08 3.513069
vt 10.44847 2.083239
vt 9.703546 2.083239
vt -10.44847 0.07403762
vt -9.703546 0.0740376
vt -10.44847 -4.427109
vt -9.703546 -4.427109
vt 10.44847 0.980298
vt 10.44847 -4.427109
vt 9.703546 0.9802979
vt 9.703546 -4.427109
vt 0.6432209 2.605038
vt -0.643221 2.605038
vt 0.6432209 3.210392
vt -0.643221 3.210392
vt -9.651139 2.083239
vt -10.39607 2.083239
vt -9.651139 3.17872
vt -10.39607 3.17872
vt -9.651139 -4.427109
vt -10.39607 -4.427109
vt -9.651139 0.07403742
vt -10.39607 0.07403741
vt 9.651139 6.903199
vt 10.39607 6.903199
vt 9.651139 1.495792
vt 10.39607 1.495792
vt 9.651139 2.083239
vt 9.651139 3.17872
vt 10.39607 2.083239
vt 10.39607 3.17872
vt 9.651139 2.402052
vt 9.651139 6.903198
vt 10.39607 2.402052
vt 10.39607 6.903198
vt 9.651139 2.083239
vt 10.39607 2.083239
vt 4.892768 -9.72614E-08
vt -6.111568E-08 2.302362
vt 5.3592 0.9912204
vt -5.359201 0.9912204
vt -4.892768 -9.72614E-08
vt -6.111568E-08 3.513069
vt 4.892768 -1.047686E-07
vt 5.672952E-08 2.302362
vt 5.359201 0.9912204
vt -5.3592 0.9912204
vt -4.892768 -1.047686E-07
vt 5.672952E-08 3.513069
vt -9.651139 2.083239
vt -10.39607 2.083239
vt -9.651139 1.495792
vt -10.39607 1.495792
vt -9.651139 6.903198
vt -10.39607 6.903198
vt 9.651139 -4.427109
vt 9.651139 0.9802977
vt 10.39607 -4.427109
vt 10.39607 0.9802977
vt -10.39607 6.903199
vt -9.651139 6.903199
vt -10.39607 2.402052
vt -9.651139 2.402052
vt -9.651139 0.980298
vt -10.39607 0.980298
vt 9.651139 0.07403763
vt 10.39607 0.07403762

usemtl wood

f 3/3/1 2/2/1 1/1/1
f 2/2/1 3/3/1 4/4/1
f 5/7/2 3/6/2 1/5/2
f 3/6/2 5/7/2 6/8/2
f 9/11/3 8/10/3 7/9/3
f 8/10/3 9/11/3 10/12/3
f 11/15/2 10/14/2 9/13/2
f 10/14/2 11/15/2 12/16/2
f 8/19/4 13/18/4 7/17/4
f 13/18/4 8/19/4 14/20/4
f 17/23/5 16/22/5 15/21/5
f 16/22/5 17/23/5 18/24/5
f 21/27/3 20/26/3 19/25/3
f 20/26/3 21/27/3 22/28/3
f 16/31/2 22/30/2 21/29/2
f 22/30/2 16/31/2 18/32/2
f 20/6/4 15/34/4 19/33/4
f 15/34/4 20/6/4 17/35/4
f 23/38/5 1/37/5 2/36/5
f 1/37/5 23/38/5 5/39/5
f 14/40/5 11/9/5 13/11/5
f 11/9/5 14/40/5 12/41/5
f 24/43/4 2/42/4 4/30/4
f 2/42/4 24/43/4 23/44/4
f 3/36/3 24/39/3 4/37/3
f 24/39/3 3/36/3 6/38/3
f 27/47/6 26/46/6 25/45/6
f 26/46/6 27/47/6 28/48/6
f 31/51/7 30/50/7 29/49/7
f 30/50/7 31/51/7 13/52/7
f 13/52/7 31/51/7 32/53/7
f 13/52/7 32/53/7 7/54/7
f 11/55/7 30/50/7 13/52/7
f 7/54/7 32/53/7 33/56/7
f 34/57/7 30/50/7 11/55/7
f 34/57/7 11/55/7 9/58/7
f 28/59/7 30/50/7 34/57/7
f 30/50/7 28/59/7 27/60/7
f 34/57/7 9/58/7 35/61/7
f 35/61/7 9/58/7 7/54/7
f 7/54/7 33/56/7 36/62/7
f 35/61/7 7/54/7 36/62/7
f 36/62/7 33/56/7 37/63/7
f 35/61/7 36/62/7 38/64/7
f 40/67/8 36/66/8 39/65/8
f 36/66/8 40/67/8 38/68/8
f 39/71/9 37/70/9 41/69/9
f 37/70/9 39/71/9 36/72/9
f 29/75/10 43/74/10 42/73/10
f 43/74/10 29/75/10 30/76/10
f 32/77/11 44/67/11 33/68/11
f 44/67/11 32/77/11 45/78/11
f 46/81/12 29/80/12 42/79/12
f 29/80/12 46/81/12 31/82/12
f 45/85/8 31/84/8 46/83/8
f 31/84/8 45/85/8 32/86/8
f 35/88/13 40/46/13 47/87/13
f 40/46/13 35/88/13 38/48/13
f 34/90/10 47/69/10 48/89/10
f 47/69/10 34/90/10 35/70/10
f 26/93/1 43/92/1 25/91/1
f 43/92/1 26/93/1 48/94/1
f 43/92/1 48/94/1 5/95/1
f 5/95/1 48/94/1 6/96/1
f 6/96/1 48/94/1 47/97/1
f 23/98/1 43/92/1 5/95/1
f 6/96/1 47/97/1 24/99/1
f 45/100/1 43/92/1 23/98/1
f 45/100/1 23/98/1 24/99/1
f 46/101/1 43/92/1 45/100/1
f 43/92/1 46/101/1 42/102/1
f 45/100/1 24/99/1 44/103/1
f 24/99/1 47/97/1 39/104/1
f 44/103/1 24/99/1 39/104/1
f 39/104/1 47/97/1 40/63/1
f 44/103/1 39/104/1 41/64/1
f 37/82/14 44/105/14 41/81/14
f 44/105/14 37/82/14 33/106/14
f 26/109/9 34/108/9 48/107/9
f 34/108/9 26/109/9 28/110/9
f 30/113/11 25/112/11 43/111/11
f 25/112/11 30/113/11 27/114/11
f 20/117/7 18/116/7 17/115/7
f 18/116/7 20/117/7 22/118/7
f 51/121/12 50/120/12 49/119/12
f 50/120/12 51/121/12 52/122/12
f 53/125/8 52/124/8 51/123/8
f 52/124/8 53/125/8 54/126/8
f 57/129/9 56/128/9 55/127/9
f 56/128/9 57/129/9 58/130/9
f 61/133/13 60/132/13 59/131/13
f 60/132/13 61/133/13 62/134/13
f 64/137/10 59/136/10 63/135/10
f 59/136/10 64/137/10 61/138/10
f 67/140/6 66/132/6 65/139/6
f 66/132/6 67/140/6 68/134/6
f 66/143/1 69/142/1 65/141/1
f 69/142/1 66/143/1 12/115/1
f 12/115/1 66/143/1 63/53/1
f 12/115/1 63/53/1 10/117/1
f 10/117/1 63/53/1 59/56/1
f 14/2/1 69/142/1 12/115/1
f 10/117/1 59/56/1 8/4/1
f 51/144/1 69/142/1 14/2/1
f 69/142/1 51/144/1 49/145/1
f 51/144/1 14/2/1 53/57/1
f 53/57/1 14/2/1 8/4/1
f 53/57/1 8/4/1 70/61/1
f 8/4/1 59/56/1 57/146/1
f 70/61/1 8/4/1 57/146/1
f 57/146/1 59/56/1 60/63/1
f 70/61/1 57/146/1 55/64/1
f 52/149/7 71/148/7 50/147/7
f 71/148/7 52/149/7 15/115/7
f 15/115/7 52/149/7 54/94/7
f 15/115/7 54/94/7 19/117/7
f 71/148/7 15/115/7 16/2/7
f 19/117/7 54/94/7 72/97/7
f 68/150/7 71/148/7 16/2/7
f 71/148/7 68/150/7 67/151/7
f 68/150/7 16/2/7 64/100/7
f 64/100/7 16/2/7 21/4/7
f 64/100/7 21/4/7 61/103/7
f 61/103/7 21/4/7 19/117/7
f 19/117/7 72/97/7 58/152/7
f 61/103/7 19/117/7 58/152/7
f 58/152/7 72/97/7 56/63/7
f 61/103/7 58/152/7 62/64/7
f 56/122/14 70/153/14 55/121/14
f 70/153/14 56/122/14 72/154/14
f 60/157/8 58/156/8 57/155/8
f 58/156/8 60/157/8 62/158/8
f 50/161/10 69/160/10 49/159/10
f 69/160/10 50/161/10 71/162/10
f 54/165/11 70/164/11 72/163/11
f 70/164/11 54/165/11 53/166/11
f 71/168/11 65/123/11 69/167/11
f 65/123/11 71/168/11 67/124/11
f 66/159/9 64/170/9 63/169/9
f 64/170/9 66/159/9 68/161/9

