# Created by Kenney (www.kenney.nl)

mtllib boxOpen.mtl

g boxOpen

v 0.1 0.025 -0.1
v 0.1 0.25 -0.1
v 0.1 0.025 0.1
v 0.1 0.25 0.1
v -0.1 0.025 -0.1
v -0.1 0.025 0.1
v -0.1 0.25 -0.1
v -0.1 0.25 0.1
v 0.1125 0.2375 -0.125
v 0.125 0.2375 -0.1125
v 0.1125 0.25 -0.1125
v 0.1125 0.0125 0.125
v 0.125 0.0125 0.1125
v 0.1125 4.511946E-17 0.1125
v -0.1125 0.0125 0.125
v -0.1125 4.511946E-17 0.1125
v -0.125 0.0125 0.1125
v -0.1125 0.25 0.1125
v -0.1125 0.2375 0.125
v -0.125 0.2375 0.1125
v 0.1125 0.25 0.1125
v 0.125 0.2375 0.1125
v 0.1125 0.2375 0.125
v 0.1125 0.0125 -0.125
v 0.1125 4.511946E-17 -0.1125
v 0.125 0.0125 -0.1125
v -0.125 0.2375 -0.1125
v -0.1125 0.2375 -0.125
v -0.1125 0.25 -0.1125
v -0.125 0.0125 -0.1125
v -0.1125 4.511946E-17 -0.1125
v -0.1125 0.0125 -0.125
v -0.03125 0.2375 -0.125
v -0.03125 0.25 -0.1125
v -0.1125 0.0625 0.0625
v -0.1125 0.1875 0.0625
v -0.0625 0.0625 0.11875
v -0.0625 0.1875 0.11875
v -0.03125 0 -0.1125
v -0.03125 0.0125 -0.125
v 0.1125 0.0625 -0.0625
v 0.1125 0.0625 0.0625
v 0.03125 0.0125 0.125
v 0.03125 1.353584E-16 0.1125
v 0.03125 0.0625 0.11875
v -0.03125 0.0625 0.11875
v 0.0625 0.0625 0.11875
v 0.0625 0.1875 0.11875
v 0.03125 0.1875 0.11875
v -0.03125 0.1875 0.11875
v 0.03125 9.023893E-17 -0.1125
v 0.03125 0.0125 -0.125
v 0.1125 0.1875 -0.0625
v 0.1125 0.1875 0.0625
v -0.1125 0.0625 -0.0625
v -0.1125 0.1875 -0.0625
v -0.0625 0.0625 -0.11875
v -0.0625 0.1875 -0.11875
v 0.03125 0.2375 0.125
v -0.03125 0.0625 -0.11875
v 0.03125 0.1875 -0.11875
v 0.0625 0.1875 -0.11875
v 0.03125 0.2375 -0.125
v -0.03125 0.2375 0.125
v 0.0625 0.0625 -0.11875
v 0.0518048 0.2920198 -0.1125
v 0.0518048 0.2920198 0.1125
v -0.0393048 0.2920198 -0.1
v -0.0393048 0.2920198 0.1
v 0.03125 0.0625 -0.11875
v -0.03125 0.1875 -0.11875
v -0.03125 0.25 0.1125
v -0.03125 0 0.1125
v -0.03125 0.0125 0.125
v 0.03125 0.25 0.1125
v 0.03125 0.25 -0.1125
v -0.01875 0.30625 -0.1
v -0.01875 0.30625 0.1
v 0.03125 0.30625 -0.1125
v 0.03125 0.30625 0.1125

vn -1 0 0
vn 0 1 0
vn 1 0 0
vn 0 0 -1
vn 0 0 1
vn 0.4605629 0.4605629 -0.758791
vn 0.758791 0.4605629 -0.4605629
vn 0.4605629 0.758791 -0.4605629
vn 0.4605629 -0.4605629 0.758791
vn 0.758791 -0.4605629 0.4605629
vn 0.4605629 -0.758791 0.4605629
vn -0.4605629 -0.4605629 0.758791
vn -0.4605629 -0.758791 0.4605629
vn -0.758791 -0.4605629 0.4605629
vn -0.4605629 0.758791 0.4605629
vn -0.4605629 0.4605629 0.758791
vn -0.758791 0.4605629 0.4605629
vn 0.4605629 0.758791 0.4605629
vn 0.758791 0.4605629 0.4605629
vn 0.4605629 0.4605629 0.758791
vn 0.4605629 -0.4605629 -0.758791
vn 0.4605629 -0.758791 -0.4605629
vn 0.758791 -0.4605629 -0.4605629
vn -0.758791 0.4605629 -0.4605629
vn -0.4605629 0.4605629 -0.758791
vn -0.4605629 0.758791 -0.4605629
vn -0.758791 -0.4605629 -0.4605629
vn -0.4605629 -0.758791 -0.4605629
vn -0.4605629 -0.4605629 -0.758791
vn 0 0.7071068 -0.7071068
vn -0.9914833 0.0920894 -0.0920894
vn -0.9914833 -0.0920894 -0.0920894
vn -0.9847319 0.1230915 -0.1230915
vn -0.9847319 -0.1230915 -0.1230915
vn 0.06225728 0.06225728 0.9961165
vn 0.06225728 -0.06225728 0.9961165
vn 0.04666267 0.04666267 0.9978203
vn 0.04666267 -0.04666267 0.9978203
vn 0 -0.7071068 -0.7071068
vn 0.9847319 0.1230915 0.1230915
vn 0.9847319 0.1230915 -0.1230915
vn 0.9914833 0.0920894 0.0920894
vn 0.9914833 0.0920894 -0.0920894
vn 0 -0.7071068 0.7071068
vn 0 0.04141604 0.9991419
vn -0.04666267 0.04666267 0.9978203
vn -0.04666267 -0.04666267 0.9978203
vn 0 -0.04141604 0.9991419
vn 0.9847319 -0.1230915 0.1230915
vn 0.9914833 -0.0920894 0.0920894
vn 0.9847319 -0.1230915 -0.1230915
vn 0.9914833 -0.0920894 -0.0920894
vn -0.9847319 0.1230915 0.1230915
vn -0.9914833 0.0920894 0.0920894
vn -0.9847319 -0.1230915 0.1230915
vn -0.9914833 -0.0920894 0.0920894
vn -0.06225728 0.06225728 0.9961165
vn 0 0.1240347 0.9922779
vn 0.06225728 0.06225728 -0.9961165
vn 0.04666267 0.04666267 -0.9978203
vn 0.06225728 -0.06225728 -0.9961165
vn 0.04666267 -0.04666267 -0.9978203
vn -0.06225728 -0.06225728 0.9961165
vn 0 -0.1240347 0.9922779
vn 0 0.1240347 -0.9922779
vn 0 0.04141604 -0.9991419
vn 0 -0.04141604 -0.9991419
vn -0.04666267 -0.04666267 -0.9978203
vn 0 -0.1240347 -0.9922779
vn -0.06225728 -0.06225728 -0.9961165
vn -0.06225728 0.06225728 -0.9961165
vn -0.04666267 0.04666267 -0.9978203
vn 0.56921 0.8221922 0
vn -0.56921 -0.8221922 0
vn -0.56921 0.8221922 0
vn 0.56921 -0.8221922 0
vn 0 0.7071068 0.7071068
vn 0 -1 0

vt -3.937008 0.984252
vt -3.937008 9.84252
vt 3.937008 0.984252
vt 3.937008 9.84252
vt -3.937008 -3.937008
vt -3.937008 3.937008
vt 3.937008 -3.937008
vt 3.937008 3.937008
vt 0.3479856 3.817282
vt -0.3479856 3.817282
vt -1.607603E-13 4.420011
vt -0.3479856 4.219101
vt 0.3479856 4.219101
vt -3.463896E-14 3.616373
vt 3.463896E-14 3.616373
vt 3.375078E-14 4.420011
vt -8.126833E-14 4.420011
vt -1.607603E-13 3.616373
vt 1.607603E-13 4.420011
vt 1.612044E-13 3.616373
vt 1.230315 3.131871
vt 1.230315 3.827842
vt 4.429134 3.131871
vt 4.429134 3.827842
vt 3.461384 2.46063
vt 3.461384 7.38189
vt 5.490472 0.492126
vt 5.490472 9.350393
vt -5.005339 0.492126
vt -5.005339 9.350393
vt -3.021515 2.46063
vt -3.021515 7.38189
vt 4.429134 -0.7161485
vt -4.429134 -0.7161485
vt 2.46063 1.312939
vt -2.46063 1.312939
vt -4.429134 3.131871
vt -4.429134 3.827842
vt 1.230315 2.46063
vt -1.230315 2.46063
vt 2.46063 2.46063
vt -2.46063 2.46063
vt 2.46063 7.38189
vt -2.46063 7.38189
vt 1.230315 7.38189
vt -1.230315 7.38189
vt -1.230315 3.131871
vt -1.230315 3.827842
vt 4.429134 10.2648
vt 2.46063 8.235707
vt -4.429134 10.2648
vt -2.46063 8.235707
vt -5.490472 0.492126
vt -5.490472 9.350393
vt -3.461384 2.46063
vt -3.461384 7.38189
vt 4.429134 -0.1220814
vt 1.230315 -0.1220814
vt 2.46063 1.861742
vt 1.230315 1.861742
vt 5.005339 0.492126
vt 3.021515 2.46063
vt 5.005339 9.350393
vt 3.021515 7.38189
vt 2.46063 7.904773
vt 1.230315 7.904773
vt 4.429134 9.888596
vt 1.230315 9.888596
vt -1.230315 7.904773
vt -2.46063 7.904773
vt -1.230315 9.888596
vt -4.429134 9.888596
vt 4.429134 1.960861
vt -4.429134 1.960861
vt 4.429134 4.867207
vt -4.429134 4.867207
vt -3.937008 5.271829
vt 3.937008 5.271829
vt -3.937008 2.365483
vt 3.937008 2.365483
vt 0.3479856 9.350393
vt 0.3479856 0.492126
vt -0.3479856 9.350393
vt -0.3479856 0.492126
vt -1.230315 -0.1220814
vt -4.429134 -0.1220814
vt -1.230315 1.861742
vt -2.46063 1.861742
vt -1.230315 4.429134
vt -1.230315 -4.429134
vt -4.429134 4.429134
vt -4.429134 -4.429134
vt 4.429134 4.429134
vt 4.429134 -4.429134
vt 1.230315 4.429134
vt 1.230315 -4.429134
vt -3.937008 6.256081
vt 3.937008 6.256081
vt 4.429134 5.851459
vt -4.429134 5.851459

usemtl woodDark

f 3/3/1 2/2/1 1/1/1
f 2/2/1 3/3/1 4/4/1
f 5/7/2 3/6/2 1/5/2
f 3/6/2 5/7/2 6/8/2
f 8/2/3 5/3/3 7/4/3
f 5/3/3 8/2/3 6/1/3
f 8/4/4 3/1/4 6/3/4
f 3/1/4 8/4/4 4/2/4
f 2/4/5 5/1/5 1/3/5
f 5/1/5 2/4/5 7/2/5

usemtl wood

f 11/11/8 10/10/7 9/9/6
f 14/14/11 13/13/10 12/12/9
f 17/12/14 16/15/13 15/13/12
f 20/10/17 19/9/16 18/16/15
f 23/10/20 22/9/19 21/17/18
f 26/12/23 25/18/22 24/13/21
f 29/19/26 28/10/25 27/9/24
f 32/12/29 31/20/28 30/13/27
f 28/23/25 34/22/30 33/21/30
f 34/22/30 28/23/25 29/24/26
f 17/27/33 36/26/32 35/25/31
f 36/26/32 17/27/33 20/28/34
f 37/31/37 19/30/36 15/29/35
f 19/30/36 37/31/37 38/32/38
f 31/23/28 40/22/39 39/21/39
f 40/22/39 31/23/28 32/24/29
f 41/35/42 13/34/41 26/33/40
f 13/34/41 41/35/42 42/36/43
f 11/24/8 22/37/19 10/23/7
f 22/37/19 11/24/8 21/38/18
f 43/22/44 14/23/11 12/24/9
f 14/23/11 43/22/44 44/21/44
f 47/41/46 46/40/45 45/39/45
f 46/40/45 47/41/46 37/42/37
f 37/42/37 47/41/46 48/43/47
f 37/42/37 48/43/47 38/44/38
f 38/44/38 48/43/47 49/45/48
f 38/44/38 49/45/48 50/46/48
f 51/47/39 24/38/21 25/37/22
f 24/38/21 51/47/39 52/48/39
f 22/51/51 53/50/50 10/49/49
f 53/50/50 22/51/51 54/52/52
f 17/24/14 31/37/28 16/23/13
f 31/37/28 17/24/14 30/38/27
f 17/33/33 55/36/54 30/34/53
f 55/36/54 17/33/33 35/35/31
f 53/26/50 26/27/40 10/28/49
f 26/27/40 53/26/50 41/25/42
f 55/55/54 27/54/55 30/53/53
f 27/54/55 55/55/54 56/56/56
f 47/59/46 43/58/58 12/57/57
f 43/58/58 47/59/46 45/60/45
f 35/41/31 56/44/56 55/42/54
f 56/44/56 35/41/31 36/43/32
f 27/37/24 18/24/15 29/38/26
f 18/24/15 27/37/24 20/23/17
f 28/63/61 57/62/60 32/61/59
f 57/62/60 28/63/61 58/64/62
f 23/67/63 49/66/48 48/65/47
f 49/66/48 23/67/63 59/68/64
f 57/59/60 40/58/65 32/57/59
f 40/58/65 57/59/60 60/60/66
f 56/52/56 20/49/34 27/51/55
f 20/49/34 56/52/56 36/50/32
f 54/44/52 41/41/42 53/43/50
f 41/41/42 54/44/52 42/42/43
f 22/54/51 42/55/43 54/56/52
f 42/55/43 22/54/51 13/53/41
f 14/37/11 26/24/23 13/38/10
f 26/24/23 14/37/11 25/23/22
f 63/71/69 62/70/68 61/69/67
f 62/70/68 63/71/69 9/72/70
f 64/71/64 38/70/38 50/69/48
f 38/70/38 64/71/64 19/72/36
f 23/63/63 47/62/46 12/61/57
f 47/62/46 23/63/63 48/64/47
f 65/31/72 9/30/70 24/29/71
f 9/30/70 65/31/72 62/32/68
f 66/75/73 21/74/73 11/73/73
f 21/74/73 66/75/73 67/76/73
f 11/73/74 21/74/74 66/75/74
f 67/76/74 66/75/74 21/74/74
f 7/79/75 69/78/75 68/77/75
f 69/78/75 7/79/75 8/80/75
f 68/77/76 69/78/76 7/79/76
f 8/80/76 7/79/76 69/78/76
f 23/83/20 13/82/10 22/81/19
f 13/82/10 23/83/20 12/84/9
f 70/87/66 24/86/71 52/85/65
f 24/86/71 70/87/66 65/88/72
f 15/82/12 20/83/17 17/84/14
f 20/83/17 15/82/12 19/81/16
f 28/67/61 71/66/67 58/65/62
f 71/66/67 28/67/61 33/68/69
f 18/38/15 64/47/77 72/48/77
f 64/47/77 18/38/15 19/37/16
f 27/81/24 32/84/29 30/82/27
f 32/84/29 27/81/24 28/83/25
f 16/91/78 39/90/78 73/89/78
f 39/90/78 16/91/78 31/92/78
f 9/81/6 26/84/23 24/82/21
f 26/84/23 9/81/6 10/83/7
f 15/38/12 73/47/44 74/48/44
f 73/47/44 15/38/12 16/37/13
f 57/41/60 70/40/66 60/39/66
f 70/40/66 57/41/60 65/42/72
f 65/42/72 57/41/60 58/43/62
f 65/42/72 58/43/62 62/44/68
f 62/44/68 58/43/62 71/45/67
f 62/44/68 71/45/67 61/46/67
f 23/23/20 75/22/77 59/21/77
f 75/22/77 23/23/20 21/24/18
f 46/87/45 15/86/35 74/85/58
f 15/86/35 46/87/45 37/88/37
f 44/95/78 25/94/78 14/93/78
f 25/94/78 44/95/78 51/96/78
f 63/47/30 11/38/8 9/37/6
f 11/38/8 63/47/30 76/48/30
f 11/92/2 2/5/2 21/91/2
f 2/5/2 11/92/2 76/90/2
f 4/6/2 21/91/2 2/5/2
f 21/91/2 4/6/2 75/89/2
f 2/5/2 76/90/2 7/7/2
f 7/7/2 76/90/2 34/96/2
f 7/7/2 34/96/2 29/94/2
f 75/89/2 4/6/2 8/8/2
f 7/7/2 29/94/2 8/8/2
f 75/89/2 8/8/2 72/95/2
f 18/93/2 8/8/2 29/94/2
f 72/95/2 8/8/2 18/93/2

usemtl rock

f 73/89/78 51/96/78 44/95/78
f 51/96/78 73/89/78 39/90/78
f 68/77/75 78/98/75 77/97/75
f 78/98/75 68/77/75 69/78/75
f 77/97/76 78/98/76 68/77/76
f 69/78/76 68/77/76 78/98/76
f 33/68/69 61/69/69 71/66/69
f 61/69/69 33/68/69 63/71/69
f 75/22/77 64/47/77 59/21/77
f 64/47/77 75/22/77 72/48/77
f 59/68/64 50/69/64 49/66/64
f 50/69/64 59/68/64 64/71/64
f 43/58/58 46/87/58 74/85/58
f 46/87/58 43/58/58 45/60/58
f 79/99/73 67/76/73 66/75/73
f 67/76/73 79/99/73 80/100/73
f 66/75/74 67/76/74 79/99/74
f 80/100/74 79/99/74 67/76/74
f 40/22/39 51/47/39 39/21/39
f 51/47/39 40/22/39 52/48/39
f 74/48/44 44/21/44 43/22/44
f 44/21/44 74/48/44 73/47/44
f 40/58/65 70/87/65 52/85/65
f 70/87/65 40/58/65 60/60/65
f 34/22/30 63/47/30 33/21/30
f 63/47/30 34/22/30 76/48/30

