# Created by Kenney (www.kenney.nl)

mtllib fence.mtl

g fence

v 0.25 0 0.25
v 0.25 0 0.20722
v 0.20722 0 0.25
v 0.20722 0 0.20722
v -0.20722 0 0.25
v -0.20722 0 0.20722
v -0.25 0 0.25
v -0.25 0 0.20722
v -0.2446525 0.5174668 0.2125675
v -0.2446525 0.5174668 0.2446525
v -0.2125675 0.5174668 0.2446525
v -0.2125675 0.5174668 0.2125675
v 0.2446525 0.5174668 0.2446525
v 0.2125675 0.5174668 0.2446525
v 0.2446525 0.5174668 0.2125675
v 0.2125675 0.5174668 0.2125675
v 0.2112503 0.39 0.240235
v 0.2112503 0.39 0.216985
v -0.2112503 0.39 0.240235
v -0.2112503 0.39 0.216985
v 0.2114905 0.41325 0.240235
v -0.2114905 0.41325 0.240235
v 0.2114905 0.41325 0.216985
v -0.2114905 0.41325 0.216985
v 0.2080467 0.08 0.216985
v 0.208287 0.10325 0.216985
v -0.2080467 0.08 0.216985
v -0.208287 0.10325 0.216985
v 0.208287 0.10325 0.240235
v -0.208287 0.10325 0.240235
v 0.2080467 0.08 0.240235
v -0.2080467 0.08 0.240235

vn 0 -1 0
vn -0.9999466 0.01033344 0
vn 0 0.01033344 0.9999466
vn 0 1 0
vn 0 0.01033344 -0.9999466
vn 0.9999466 0.01033344 0
vn 0 0 -1
vn 0 0 1

vt 9.84252 9.84252
vt 9.84252 8.158268
vt 8.158268 9.84252
vt 8.158268 8.158268
vt -8.158268 9.84252
vt -8.158268 8.158268
vt -9.84252 9.84252
vt -9.84252 8.158268
vt 8.158268 -0.1017071
vt 8.368799 20.27209
vt 9.84252 -0.1017071
vt 9.631989 20.27209
vt -8.158268 -0.1017071
vt -9.84252 -0.1017071
vt -8.368799 20.27209
vt -9.631989 20.27209
vt 8.368799 8.368799
vt 8.368799 9.631989
vt 9.631989 8.368799
vt 9.631989 9.631989
vt 9.84252 0.08430299
vt 8.158268 0.08430299
vt 9.631989 20.4581
vt 8.368799 20.4581
vt -9.631989 8.368799
vt -9.631989 9.631989
vt -8.368799 8.368799
vt -8.368799 9.631989
vt -8.158268 0.08430299
vt -9.84252 0.08430299
vt -8.368799 20.4581
vt -9.631989 20.4581
vt 8.316939 9.458071
vt 8.316939 8.542717
vt -8.316939 9.458071
vt -8.316939 8.542717
vt -8.326399 9.458071
vt 8.326399 9.458071
vt -8.326399 8.542717
vt 8.326399 8.542717
vt -8.316939 15.35433
vt -8.326399 16.26969
vt 8.316939 15.35433
vt 8.326399 16.26969
vt -8.190816 3.149606
vt -8.200275 4.06496
vt 8.190816 3.149606
vt 8.200275 4.06496
vt -8.200275 9.458071
vt 8.200275 9.458071
vt -8.200275 8.542717
vt 8.200275 8.542717
vt 8.190816 9.458071
vt 8.190816 8.542717
vt -8.190816 9.458071
vt -8.190816 8.542717
vt -9.458071 16.35486
vt -8.542717 16.35486
vt -9.458071 15.43945
vt -8.542717 4.149481
vt -8.542717 15.43945
vt -9.458071 4.149481
vt -9.458071 3.234077
vt -8.542717 3.234077
vt 9.458071 16.35486
vt 8.542717 16.35486
vt 9.458071 15.43945
vt 9.458071 3.234077
vt 9.458071 4.149481
vt 8.542717 15.43945
vt 8.542717 3.234077
vt 8.542717 4.149481

usemtl wood

f 3/3/1 2/2/1 1/1/1
f 2/2/1 3/3/1 4/4/1
f 7/7/1 6/6/1 5/5/1
f 6/6/1 7/7/1 8/8/1
f 7/11/2 9/10/2 8/9/2
f 9/10/2 7/11/2 10/12/2
f 11/15/3 7/14/3 5/13/3
f 7/14/3 11/15/3 10/16/3
f 9/19/4 11/18/4 12/17/4
f 11/18/4 9/19/4 10/20/4
f 9/23/5 6/22/5 8/21/5
f 6/22/5 9/23/5 12/24/5
f 13/12/3 3/9/3 1/11/3
f 3/9/3 13/12/3 14/10/3
f 16/27/4 13/26/4 15/25/4
f 13/26/4 16/27/4 14/28/4
f 15/15/6 1/14/6 2/13/6
f 1/14/6 15/15/6 13/16/6
f 16/31/5 2/30/5 4/29/5
f 2/30/5 16/31/5 15/32/5
f 19/35/1 18/34/1 17/33/1
f 18/34/1 19/35/1 20/36/1
f 23/39/4 22/38/4 21/37/4
f 22/38/4 23/39/4 24/40/4
f 20/43/7 23/42/7 18/41/7
f 23/42/7 20/43/7 24/44/7
f 21/44/8 19/41/8 17/43/8
f 19/41/8 21/44/8 22/42/8
f 27/47/7 26/46/7 25/45/7
f 26/46/7 27/47/7 28/48/7
f 26/51/4 30/50/4 29/49/4
f 30/50/4 26/51/4 28/52/4
f 32/55/1 25/54/1 31/53/1
f 25/54/1 32/55/1 27/56/1
f 29/48/8 32/45/8 31/47/8
f 32/45/8 29/48/8 30/46/8
f 24/58/6 11/32/6 22/57/6
f 22/57/6 11/32/6 19/59/6
f 24/58/6 12/31/6 11/32/6
f 5/30/6 19/59/6 11/32/6
f 12/31/6 24/58/6 28/60/6
f 20/61/6 28/60/6 24/58/6
f 28/60/6 20/61/6 30/62/6
f 30/62/6 20/61/6 19/59/6
f 30/62/6 19/59/6 32/63/6
f 5/30/6 32/63/6 19/59/6
f 27/64/6 12/31/6 28/60/6
f 5/30/6 27/64/6 32/63/6
f 27/64/6 6/29/6 12/31/6
f 6/29/6 27/64/6 5/30/6
f 14/23/2 23/66/2 21/65/2
f 14/23/2 21/65/2 17/67/2
f 23/66/2 14/23/2 16/24/2
f 14/23/2 17/67/2 31/68/2
f 31/68/2 3/21/2 14/23/2
f 17/67/2 29/69/2 31/68/2
f 18/70/2 29/69/2 17/67/2
f 25/71/2 3/21/2 31/68/2
f 25/71/2 4/22/2 3/21/2
f 4/22/2 25/71/2 16/24/2
f 18/70/2 26/72/2 29/69/2
f 26/72/2 18/70/2 23/66/2
f 16/24/2 25/71/2 26/72/2
f 16/24/2 26/72/2 23/66/2

