# Created by Kenney (www.kenney.nl)

mtllib fishingStand.mtl

g fishingStand

v 0.13725 0 0.09213334
v 0.17175 0 0.09213334
v 0.13725 0.1695254 0
v 0.17175 0.1695254 -1.804779E-16
v 0.17175 0 -0.09213334
v 0.17175 0 -0.1266333
v 0.13725 0 -0.09213334
v 0.13725 0 -0.1266333
v 0.17175 0 0.1266333
v 0.13725 0 0.1266333
v 0.17175 0.2012653 0.01725
v 0.13725 0.2012653 0.01725
v 0.17175 0.2615254 -0.05
v 0.17175 0.276 -0.02336665
v 0.13725 0.2615254 -0.05
v 0.13725 0.276 -0.02336665
v 0.13725 0.2012653 -0.01725
v 0.17175 0.2012653 -0.01725
v 0.13725 0.2615254 0.05
v 0.17175 0.2615254 0.05
v 0.17175 0.276 0.02336665
v 0.13725 0.276 0.02336665
v 0.17175 0.2330053 0
v 0.13725 0.2330053 -1.804779E-16
v -0.12825 0.276 0.02336665
v -0.12825 0.2615254 0.05
v -0.16275 0.276 0.02336665
v -0.16275 0.2615254 0.05
v -0.12825 0 -0.09213334
v -0.12825 0 -0.1266333
v -0.16275 0 -0.09213334
v -0.16275 0 -0.1266333
v -0.16275 0.2012653 -0.01725
v -0.12825 0.2012653 -0.01725
v -0.16275 0.2615254 -0.05
v -0.12825 0.2615254 -0.05
v -0.12825 0.1695254 1.804779E-16
v -0.16275 0.1695254 3.609557E-16
v -0.12825 0 0.09213334
v -0.16275 0 0.09213334
v -0.12825 0 0.1266333
v -0.16275 0 0.1266333
v -0.12825 0.276 -0.02336665
v -0.16275 0.276 -0.02336665
v -0.12825 0.2330053 1.804779E-16
v -0.12825 0.2012653 0.01725
v -0.16275 0.2012653 0.01725
v -0.16275 0.2330053 -1.804779E-16
v 0.19725 0.1926404 0.008625
v -0.19725 0.1926404 0.008625
v 0.19725 0.2098904 0.008625
v -0.19725 0.2098904 0.008625
v 0.19725 0.1926404 -0.008625
v 0.19725 0.2098904 -0.008625
v -0.19725 0.1926404 -0.008625
v -0.19725 0.2098904 -0.008625

vn 0 -0.4775133 -0.8786246
vn 0 -1 0
vn 0 0.4775133 0.8786246
vn 0 -0.4775133 0.8786246
vn 0 0.8786246 -0.4775133
vn 0 0.9589344 0.2836284
vn 0 0.4775133 -0.8786246
vn 0 0.9589344 -0.2836284
vn 0 0.8786246 0.4775133
vn 1 0 0
vn -1 0 0
vn 0 -0.7071068 0.7071068
vn 0 0.7071068 0.7071068
vn 0 -0.7071068 -0.7071068
vn 0 0.7071068 -0.7071068

vt -5.403543 -1.732083
vt -6.761811 -1.732083
vt -5.403543 5.864139
vt -6.761811 5.864139
vt 6.761811 -3.627297
vt 6.761811 -4.985565
vt 5.403543 -3.627297
vt 5.403543 -4.985565
vt 6.761811 -2.380674
vt 5.403543 -2.380674
vt 6.761811 6.637778
vt 5.403543 6.637778
vt 6.761811 -1.732083
vt 5.403543 -1.732083
vt 6.761811 5.864139
vt 5.403543 5.864139
vt -6.761811 3.187032
vt -6.761811 4.380439
vt -5.403543 3.187032
vt -5.403543 4.380439
vt -5.403543 -2.380674
vt -6.761811 -2.380674
vt -5.403543 6.637778
vt -6.761811 6.637778
vt 5.403543 7.286369
vt 5.403543 9.986546
vt 6.761811 7.286369
vt 6.761811 9.986546
vt 6.761811 4.380439
vt 6.761811 3.187032
vt 5.403543 4.380439
vt 5.403543 3.187032
vt -1.968504 10.29627
vt -0.919947 10.86614
vt -0.6791338 7.923833
vt 2.155475E-14 9.173439
vt -3.627297 9.918286E-15
vt -4.985565 9.918286E-15
vt 2.866018E-14 6.674227
vt 0.6791338 7.923833
vt 3.627297 9.918286E-15
vt 4.985565 9.918286E-15
vt 0.919947 10.86614
vt 1.968504 10.29627
vt -5.403543 8.060008
vt -6.761811 8.060008
vt -5.403543 9.986546
vt -6.761811 9.986546
vt 6.761811 3.627297
vt 5.403543 3.627297
vt 6.761811 4.985565
vt 5.403543 4.985565
vt 4.985565 8.395249E-15
vt 3.627297 8.395249E-15
vt -1.722497E-14 6.674227
vt -2.43304E-14 9.173439
vt -3.627297 8.395249E-15
vt -4.985565 8.395249E-15
vt -5.403543 7.286369
vt -6.761811 7.286369
vt 5.403543 8.060008
vt 6.761811 8.060008
vt -5.049212 4.380439
vt -5.049212 3.187032
vt -6.40748 4.380439
vt -6.40748 3.187032
vt -5.049212 -3.627297
vt -5.049212 -4.985565
vt -6.40748 -3.627297
vt -6.40748 -4.985565
vt 6.40748 7.286369
vt 5.049212 7.286369
vt 6.40748 9.986546
vt 5.049212 9.986546
vt -5.049212 -1.732083
vt -6.40748 -1.732083
vt -5.049212 5.864139
vt -6.40748 5.864139
vt -5.049212 3.627297
vt -6.40748 3.627297
vt -5.049212 4.985565
vt -6.40748 4.985565
vt 5.049212 3.187032
vt 5.049212 4.380439
vt 6.40748 3.187032
vt 6.40748 4.380439
vt -2.404699E-14 9.173439
vt -2.404699E-14 6.674227
vt 3.627297 -7.076246E-15
vt 4.985565 -7.076246E-15
vt -3.627297 -7.076246E-15
vt -4.985565 -7.076246E-15
vt 6.40748 -2.380674
vt 5.049212 -2.380674
vt 6.40748 6.637778
vt 5.049212 6.637778
vt 6.40748 -1.732083
vt 5.049212 -1.732083
vt 6.40748 5.864139
vt 5.049212 5.864139
vt -5.049212 -2.380674
vt -6.40748 -2.380674
vt -5.049212 6.637778
vt -6.40748 6.637778
vt 4.985565 -9.53627E-15
vt 3.627297 -9.53627E-15
vt 3.57098E-14 6.674227
vt 1.439352E-14 9.173439
vt -3.627297 -9.53627E-15
vt -4.985565 -9.53627E-15
vt 6.40748 8.060008
vt 5.049212 8.060008
vt -6.40748 7.286369
vt -6.40748 9.986546
vt -5.049212 7.286369
vt -5.049212 9.986546
vt -6.40748 8.060008
vt -5.049212 8.060008
vt 7.765748 7.584266
vt -7.765748 7.584266
vt 7.765748 8.2634
vt -7.765748 8.2634
vt -7.765748 -0.3395669
vt -7.765748 0.3395669
vt 7.765748 -0.3395669
vt 7.765748 0.3395669
vt -0.3395669 7.584266
vt -0.3395669 8.2634
vt 0.3395669 7.584266
vt 0.3395669 8.2634

usemtl wood

f 3/3/1 2/2/1 1/1/1
f 2/2/1 3/3/1 4/4/1
f 7/7/2 6/6/2 5/5/2
f 6/6/2 7/7/2 8/8/2
f 11/11/3 10/10/3 9/9/3
f 10/10/3 11/11/3 12/12/3
f 4/15/4 7/14/4 5/13/4
f 7/14/4 4/15/4 3/16/4
f 15/19/5 14/18/6 13/17/5
f 14/18/6 15/19/5 16/20/6
f 17/23/7 6/22/7 8/21/7
f 6/22/7 17/23/7 18/24/7
f 11/27/4 19/26/4 12/25/4
f 19/26/4 11/27/4 20/28/4
f 22/31/8 20/30/9 21/29/8
f 20/30/9 22/31/8 19/32/9
f 11/35/10 21/34/10 20/33/10
f 21/34/10 11/35/10 23/36/10
f 2/37/10 23/36/10 11/35/10
f 2/37/10 11/35/10 9/38/10
f 4/39/10 23/36/10 2/37/10
f 18/40/10 23/36/10 4/39/10
f 5/41/10 18/40/10 4/39/10
f 18/40/10 5/41/10 6/42/10
f 18/40/10 14/43/10 23/36/10
f 14/43/10 18/40/10 13/44/10
f 22/47/8 23/46/7 24/45/7
f 23/46/7 22/47/8 21/48/8
f 9/51/2 1/50/2 2/49/2
f 1/50/2 9/51/2 10/52/2
f 12/40/11 1/54/11 10/53/11
f 1/54/11 12/40/11 3/55/11
f 22/43/11 3/55/11 12/40/11
f 22/43/11 12/40/11 19/44/11
f 24/56/11 3/55/11 22/43/11
f 17/35/11 3/55/11 24/56/11
f 16/34/11 17/35/11 24/56/11
f 17/35/11 16/34/11 15/33/11
f 17/35/11 7/57/11 3/55/11
f 7/57/11 17/35/11 8/58/11
f 15/47/1 18/60/1 17/59/1
f 18/60/1 15/47/1 13/48/1
f 23/62/3 16/26/6 24/61/3
f 16/26/6 23/62/3 14/28/6
f 27/65/8 26/64/9 25/63/8
f 26/64/9 27/65/8 28/66/9
f 31/69/2 30/68/2 29/67/2
f 30/68/2 31/69/2 32/70/2
f 35/73/1 34/72/1 33/71/1
f 34/72/1 35/73/1 36/74/1
f 37/77/4 31/76/4 29/75/4
f 31/76/4 37/77/4 38/78/4
f 41/81/2 40/80/2 39/79/2
f 40/80/2 41/81/2 42/82/2
f 35/85/5 43/84/6 36/83/5
f 43/84/6 35/85/5 44/86/6
f 43/43/10 34/40/10 36/44/10
f 34/40/10 43/43/10 45/87/10
f 37/88/10 34/40/10 45/87/10
f 37/88/10 45/87/10 25/34/10
f 29/89/10 34/40/10 37/88/10
f 34/40/10 29/89/10 30/90/10
f 37/88/10 25/34/10 46/35/10
f 46/35/10 25/34/10 26/33/10
f 46/35/10 39/91/10 37/88/10
f 39/91/10 46/35/10 41/92/10
f 33/95/7 30/94/7 32/93/7
f 30/94/7 33/95/7 34/96/7
f 38/99/1 39/98/1 40/97/1
f 39/98/1 38/99/1 37/100/1
f 46/103/3 42/102/3 41/101/3
f 42/102/3 46/103/3 47/104/3
f 47/40/11 40/106/11 42/105/11
f 40/106/11 47/40/11 38/107/11
f 27/43/11 38/107/11 47/40/11
f 27/43/11 47/40/11 28/44/11
f 48/108/11 38/107/11 27/43/11
f 33/35/11 38/107/11 48/108/11
f 44/34/11 33/35/11 48/108/11
f 33/35/11 44/34/11 35/33/11
f 33/35/11 31/109/11 38/107/11
f 31/109/11 33/35/11 32/110/11
f 27/73/8 45/112/7 48/111/7
f 45/112/7 27/73/8 25/74/8
f 46/115/4 28/114/4 47/113/4
f 28/114/4 46/115/4 26/116/4
f 45/118/3 44/114/6 48/117/3
f 44/114/6 45/118/3 43/116/6
f 51/121/13 50/120/12 49/119/12
f 50/120/12 51/121/13 52/122/13
f 55/119/14 54/122/15 53/120/14
f 54/122/15 55/119/14 56/121/15
f 56/125/15 51/124/13 54/123/15
f 51/124/13 56/125/15 52/126/13
f 50/129/11 56/128/11 55/127/11
f 56/128/11 50/129/11 52/130/11
f 51/128/10 53/129/10 54/130/10
f 53/129/10 51/128/10 49/127/10
f 50/124/12 53/125/14 49/126/12
f 53/125/14 50/124/12 55/123/14

