# Created by Kenney (www.kenney.nl)

mtllib resourceStone.mtl

g resourceStone

v 0.04778234 0 -0.07110821
v 0.08267033 0 -0.01068043
v 0.03661818 0.05143488 -0.05177132
v 0.06034202 0.05143488 -0.01068043
v 0.02199366 0.1068 0.01715484
v 0.03232848 0.05143488 0.01715484
v 0.0008116617 0.1068 0.05384313
v 0.02467534 0.05143488 0.03041047
v 0.02311236 0 0.04974736
v 0.01077966 0 0.07110821
v 0.03661818 0.05143488 0.03041047
v 0.005979073 0.05143488 -0.02848368
v -0.0108295 0.05143488 -0.05177132
v -0.02427463 0.05143488 -0.02848368
v 0.04778234 0 0.04974736
v -0.02199366 0 -0.07110821
v -0.05152034 0 0.07110821
v -0.04180236 0 -0.03679855
v -0.05152034 0 -0.03679855
v -0.08267033 0 0.01715484
v -0.04155234 0.1068 -0.01953346
v 0.0008116617 0.1068 -0.01953346
v -0.06273434 0.1068 0.01715484
v -0.04155234 0.1068 0.05384313

vn 0.8106316 0.3519021 -0.4680184
vn 0.8549264 0.1595863 0.493592
vn 0 1 0
vn 0 -1 0
vn 0 0.1595863 -0.987184
vn -0.8549264 0.1595863 -0.493592
vn -0.8549264 0.1595863 0.493592
vn 0.8549264 0.1595863 -0.493592
vn 0.8106316 0.3519021 0.4680184
vn 0 0.3519021 0.9360368
vn -0.8106316 0.3519021 -0.4680184
vn 0 0.1595863 0.987184
vn 0 0.3519021 -0.9360368

vt 1.483872 -1.065887
vt -1.263214 -1.065887
vt 1.044338 1.097484
vt -0.8236806 1.097484
vt -0.1519563 3.977274
vt 0.05148503 1.769247
vt -1.81983 3.977274
vt -0.5511247 1.769247
vt -1.241193 -0.2820377
vt -2.212271 -0.2820377
vt -2.37567 -0.4204893
vt -1.441661 1.197263
vt -1.441661 -2.038241
vt -1.272775 0.6753872
vt -0.9714701 1.197263
vt -0.2353966 -1.121405
vt 0.4263583 -2.038241
vt 0.955694 -1.121405
vt 3.254738 -0.4204893
vt 1.881194 -2.799536
vt 1.881194 1.958557
vt 0.9099354 1.958557
vt -0.8658922 -2.799536
vt 0.4243961 2.799536
vt -2.02836 2.799536
vt -1.645762 -1.448762
vt -2.02836 -1.448762
vt -3.254738 0.6753872
vt 2.02836 -0.2312025
vt 1.645762 -0.2312025
vt 1.635919 4.02811
vt 0.955694 1.820082
vt -0.2353966 1.820082
vt -0.03195519 4.02811
vt -0.2404846 -0.3959322
vt 0.1519563 3.863379
vt 2.212271 -0.3959322
vt 1.81983 3.863379
vt -0.6500255 3.755597
vt 1.017848 3.755597
vt -1.042466 -0.5037147
vt 1.41029 -0.5037147
vt 0.8534669 1.877029
vt -1.22129 1.877029
vt 0.6500255 4.085057
vt -1.017848 4.085057
vt 1.551989 1.245456
vt 1.991523 -0.9179159
vt -0.3160295 1.245456
vt -0.7555633 -0.9179159
vt 1.881194 -0.6892205
vt 0.9099354 -0.6892205
vt 1.441661 1.474151
vt 0.9714701 1.474151
vt -1.991523 -0.7564673
vt -1.551989 1.406904
vt -0.4317834 -0.7564673
vt -0.4933181 1.406904
vt 0.4243961 -0.4467675
vt -2.02836 -0.4467675
vt 0.03195519 3.812544
vt -1.635919 3.812544
vt 0.8658922 -0.9851627
vt -1.881194 -0.9851627
vt 0.4263583 1.178209
vt -1.441661 1.178209
vt -0.8658922 0.6753872
vt -0.03195519 2.119808
vt -0.03195519 -0.7690341
vt 1.635919 -0.7690341
vt 1.635919 2.119808
vt 2.469856 0.6753872

usemtl rock

f 3/3/1 2/2/1 1/1/1
f 2/2/1 3/3/1 4/4/1
f 7/7/2 6/6/2 5/5/2
f 6/6/2 7/7/2 8/8/2
f 8/8/2 7/7/2 9/9/2
f 9/9/2 7/7/2 10/10/2
f 3/13/3 11/12/3 4/11/3
f 11/12/3 3/13/3 6/14/3
f 8/15/3 11/12/3 6/14/3
f 6/14/3 3/13/3 12/16/3
f 12/16/3 3/13/3 13/17/3
f 12/16/3 13/17/3 14/18/3
f 15/21/4 1/20/4 2/19/4
f 1/20/4 15/21/4 9/22/4
f 1/20/4 9/22/4 16/23/4
f 16/23/4 9/22/4 10/24/4
f 16/23/4 10/24/4 17/25/4
f 16/23/4 17/25/4 18/26/4
f 18/26/4 17/25/4 19/27/4
f 19/27/4 17/25/4 20/28/4
f 21/31/5 18/30/5 19/29/5
f 18/30/5 21/31/5 14/32/5
f 14/32/5 21/31/5 12/33/5
f 12/33/5 21/31/5 22/34/5
f 20/37/6 21/36/6 19/35/6
f 21/36/6 20/37/6 23/38/6
f 20/41/7 24/40/7 23/39/7
f 24/40/7 20/41/7 17/42/7
f 22/45/8 6/44/8 12/43/8
f 6/44/8 22/45/8 5/46/8
f 11/49/9 2/48/9 4/47/9
f 2/48/9 11/49/9 15/50/9
f 11/53/10 9/52/10 15/51/10
f 9/52/10 11/53/10 8/54/10
f 18/57/11 13/56/11 16/55/11
f 13/56/11 18/57/11 14/58/11
f 7/61/12 17/60/12 10/59/12
f 17/60/12 7/61/12 24/62/12
f 13/65/13 1/64/13 16/63/13
f 1/64/13 13/65/13 3/66/13
f 22/69/3 7/68/3 5/67/3
f 7/68/3 22/69/3 21/70/3
f 7/68/3 21/70/3 24/71/3
f 24/71/3 21/70/3 23/72/3

