# Created by Kenney (www.kenney.nl)

mtllib resourceWood.mtl

g resourceWood

v 0.0855695 0.026136 -0.07016871
v 0.009923976 0.026136 0.005476809
v 0.07016871 0.026136 -0.0855695
v 0.03464079 0.026136 -0.05004157
v 0.01615984 0.026136 -0.03156063
v -0.005476809 0.026136 -0.009923976
v 0.01615984 3.67899E-14 -0.03156063
v -0.03360875 8.984899E-14 0.01820797
v -0.0208776 0.026136 0.005476809
v -0.03360875 0.026136 0.01820797
v -0.005476809 0.062436 -0.004225686
v 0.004225686 0.062436 0.005476809
v -0.01820797 0.026136 0.03360875
v -0.01820797 8.984899E-14 0.03360875
v -0.02398138 0.026136 0.0855695
v -0.02398138 1.094894E-13 0.0855695
v -0.04785448 0.026136 0.04785448
v -0.0517028 0.026136 0.08248933
v -0.04785448 1.047806E-13 0.04785448
v -0.0517028 1.178731E-13 0.08248933
v -0.005476809 0.062436 0.0151793
v -0.005476809 0.026136 0.0208776
v 0.0855695 0 -0.07016871
v -0.0855695 1.094894E-13 0.02398138
v -0.0855695 0.026136 0.02398138
v -0.08248933 1.178731E-13 0.0517028
v -0.08248933 0.026136 0.0517028
v 0.07016871 0 -0.0855695
v 0.03464079 2.417163E-14 -0.05004157
v -0.0151793 0.062436 0.005476809
v 0.01346299 0.00574992 -0.06308775
v 0.003113667 0.00574992 -0.05273842
v 0.01346299 0.02038608 -0.06308775
v 0.003113667 0.02038608 -0.05273842

vn 0 1 0
vn -0.0492473 0.9975718 -0.0492473
vn -0.7071068 0 -0.7071068
vn -0.706672 0.0350647 -0.706672
vn 0.7027905 0.1103224 -0.7027905
vn 0.9938837 0 0.1104315
vn -0.9938837 0 -0.1104315
vn 0.7027905 0.1103224 0.7027905
vn 0.706672 0.0350647 0.706672
vn 0.7071068 0 0.7071068
vn -0.1104315 0 -0.9938837
vn 0.1104315 0 0.9938837
vn 0 -1 0
vn -0.0492473 -0.9975718 -0.0492473
vn -0.7027905 0.1103224 0.7027905
vn 0.7071068 0 -0.7071068
vn -0.163458 -0.9729148 -0.163458
vn -0.7027905 0.1103224 -0.7027905
vn -0.9938837 0 0.1104315
vn 0.5244966 0 -0.8514126
vn -0.163458 0.9729148 -0.163458
vn -0.1104315 0 0.9938837
vn -0.8514126 0 0.5244966

vt -3.368878 -2.762548
vt -0.3907077 0.2156224
vt -2.762548 -3.368878
vt -1.363811 -1.970141
vt -0.6362143 -1.242544
vt 0.2156224 -0.3907077
vt -1.328483 1.448421E-12
vt -1.328483 1.028976
vt 1.442518 3.537362E-12
vt 0.7336763 1.028976
vt 1.442518 1.028976
vt -0.123804 1.028976
vt 0.4287401 1.009037
vt -0.4287401 1.009037
vt 0.2701063 2.446948
vt -0.2701063 2.446948
vt -1.394249 1.028976
vt -1.394249 3.368785E-12
vt -3.452537 1.028976
vt -3.452537 4.142028E-12
vt 2.080568 1.028976
vt 3.452537 1.028976
vt 2.080568 3.622586E-12
vt 3.452537 4.138037E-12
vt -0.03482983 2.413307
vt 0.123804 0.9753957
vt -0.5750424 2.413307
vt -0.7336763 0.9753957
vt 4.335573 0
vt -1.442518 3.537362E-12
vt 4.335573 1.028976
vt 0.123804 1.028976
vt -0.7336763 1.028976
vt -1.442518 1.028976
vt 1.394249 3.371238E-12
vt 1.394249 1.028976
vt 3.452537 4.144481E-12
vt -2.080568 3.629836E-12
vt -3.452537 4.145287E-12
vt -2.080568 1.028976
vt 3.368878 -2.762548
vt 2.762548 -3.368878
vt -0.7168491 1.323179
vt 1.363811 -1.970141
vt 0.6362143 -1.242544
vt -1.323179 0.7168491
vt -0.944149 3.368878
vt -2.035543 3.247612
vt -1.884035 1.884035
vt -3.368878 0.944149
vt -3.247612 2.035543
vt -0.2701063 2.379665
vt 0.2701063 2.379665
vt -0.4287401 0.9417544
vt 0.4287401 0.9417544
vt 0.4287401 1.028976
vt 0.4287401 2.085789E-12
vt -0.4287401 1.028976
vt -0.4287401 2.085789E-12
vt -2.35746 0.4171276
vt -2.131085 1.396408
vt -1.328483 0.4171276
vt -1.554858 1.396408
vt 3.247612 2.035543
vt 3.368878 0.944149
vt 1.884035 1.884035
vt 1.323179 0.7168491
vt 2.035543 3.247612
vt 0.944149 3.368878
vt 0.8219526 0.2156224
vt 0.7168491 1.323179
vt 0.2156224 0.8219526
vt -0.123804 0.9753957
vt 0.03482983 2.413307
vt 0.7336763 0.9753957
vt 0.5750424 2.413307
vt 0.566344 1.028976
vt 1.664455 1.028976
vt 0.566344 3.063291E-12
vt 1.664455 3.393357E-12
vt -0.1278334 2.108971E-12
vt -0.1278334 1.028976
vt 0.8514466 0.2263748
vt 0.8514466 0.8026016
vt -4.335573 0
vt -4.335573 1.028976
vt -2.35746 9.516392E-13
vt -2.35746 1.028976
vt -0.1663656 0.2156224
vt 0.2156224 0.5976104
vt 0.2156224 -0.1663656
vt 0.5976104 0.2156224
vt -2.35746 -0.1792648
vt -1.328483 -0.1792648
vt -2.131085 -1.158545
vt -1.554858 -1.158545
vt -2.131085 0.2263748
vt -2.131085 0.8026016
vt -1.554858 0.2263748
vt -1.554858 0.8026016
vt -0.566344 3.007473E-12
vt -1.664455 3.337539E-12
vt -0.566344 1.028976
vt -1.664455 1.028976
vt -1.703506 0.8026016
vt -0.7242258 1.028976
vt -1.703506 0.2263748
vt -0.7242258 1.984299E-12

usemtl wood

f 3/3/1 2/2/1 1/1/1
f 2/2/1 3/3/1 4/4/2
f 2/2/1 4/4/2 5/5/2
f 2/2/1 5/5/2 6/6/1
f 8/9/3 5/8/3 7/7/3
f 5/8/3 8/9/3 9/10/4
f 9/10/4 8/9/3 10/11/3
f 5/8/3 9/10/4 6/12/4
f 11/15/5 2/14/5 6/13/5
f 2/14/5 11/15/5 12/16/5
f 15/19/6 14/18/6 13/17/6
f 14/18/6 15/19/6 16/20/6
f 19/23/7 18/22/7 17/21/7
f 18/22/7 19/23/7 20/24/7
f 21/27/8 2/26/9 12/25/8
f 2/26/9 21/27/8 22/28/9
f 1/31/10 14/30/10 23/29/10
f 14/30/10 1/31/10 2/32/9
f 14/30/10 2/32/9 22/33/9
f 14/30/10 22/33/9 13/34/10
f 24/37/11 10/36/11 8/35/11
f 10/36/11 24/37/11 25/22/11
f 17/40/12 26/39/12 19/38/12
f 26/39/12 17/40/12 27/19/12
f 14/43/13 28/42/13 23/41/13
f 28/42/13 14/43/13 29/44/14
f 29/44/14 14/43/13 7/45/14
f 7/45/14 14/43/13 8/46/13
f 8/46/13 14/43/13 16/47/13
f 8/46/13 16/47/13 20/48/13
f 8/46/13 20/48/13 19/49/13
f 19/49/13 24/50/13 8/46/13
f 24/50/13 19/49/13 26/51/13
f 9/54/15 21/53/15 30/52/15
f 21/53/15 9/54/15 22/55/15
f 1/58/16 28/57/16 3/56/16
f 28/57/16 1/58/16 23/59/16
f 7/62/14 31/61/17 29/60/14
f 31/61/17 7/62/14 32/63/17
f 17/66/1 25/65/1 27/64/1
f 25/65/1 17/66/1 10/67/1
f 18/68/1 10/67/1 17/66/1
f 15/69/1 10/67/1 18/68/1
f 15/69/1 9/70/1 10/67/1
f 13/71/1 9/70/1 15/69/1
f 9/70/1 13/71/1 22/72/1
f 9/75/4 11/74/18 6/73/4
f 11/74/18 9/75/4 30/76/18
f 24/79/19 27/78/19 25/77/19
f 27/78/19 24/79/19 26/80/19
f 31/83/20 4/82/20 29/81/20
f 4/82/20 31/83/20 33/84/20
f 29/87/3 3/86/3 28/85/3
f 3/86/3 29/87/3 4/88/3
f 11/91/1 21/90/1 12/89/1
f 21/90/1 11/91/1 30/92/1
f 33/95/21 5/94/2 4/93/2
f 5/94/2 33/95/21 34/96/21
f 32/99/3 33/98/3 31/97/3
f 33/98/3 32/99/3 34/100/3
f 15/103/22 20/102/22 16/101/22
f 20/102/22 15/103/22 18/104/22
f 32/107/23 5/106/23 34/105/23
f 5/106/23 32/107/23 7/108/23

