# Created by Kenney (www.kenney.nl)

mtllib rockC.mtl

g rockC

v -0.4046933 0.05480149 0.03400128
v -0.279467 0.161925 -0.06676019
v -0.3215158 0.161925 0.07688751
v 0.01636748 0.32385 0.1581732
v -0.04721275 0.05480149 0.2425074
v -0.06155573 0.32385 0.1328544
v 0.228686 0.51 -0.1190077
v 0.3214529 0.255 -0.1190413
v 0.2904961 0.51 -0.03393327
v 0.005580292 0.1001172 -0.1485348
v 0.03076072 0.2036204 -0.1485348
v 0.06183909 0.2036204 -0.1057591
v -0.06155573 0.32385 -0.06676019
v -0.04267463 0.1339775 -0.1562001
v 0.01636748 0.32385 -0.09207898
v 0.3524098 5.416102E-16 -0.1391582
v 0.3524098 5.416102E-16 0.0783223
v 0.2904961 0.51 0.03808839
v 0.2123283 5.416102E-16 0.1711473
v 0.2123283 5.416102E-16 0.1238375
v -0.05035381 5.416102E-16 0.2564978
v 0.08350191 5.416102E-16 -0.2893088
v -0.0001972419 5.416102E-16 -0.1741068
v -0.05035381 5.416102E-16 -0.1904036
v -0.0915427 4.51283E-16 0.1998062
v -0.0926644 4.51283E-16 -0.1321681
v -0.2689583 3.609557E-16 0.257452
v -0.2689583 3.609557E-16 -0.1894494
v -0.4313047 3.609557E-16 0.03400128
v 0.2489916 5.416102E-16 -0.2355379
v 0.2489916 5.416102E-16 -0.1727608
v 0.1514089 0.2036204 -0.180372
v 0.1994545 0.2036204 -0.164761
v 0.1601893 0.51 -0.1412636
v 0.09519602 0.2036204 -0.2372224
v 0.1994545 0.2036204 -0.2033467
v 0.08552922 0.32385 -0.06960696
v 0.09044626 0.2036204 -0.09646405
v 0.133698 0.32385 0.07506964
v 0.152621 0.2459131 0.1141375
v 0.133698 0.32385 0.1200502
v 0.07965523 0.51 -0.03041797
v 0.05705676 0.32385 -0.03041797
v 0.1601893 0.51 0.08042766
v -0.13407 0.32385 0.03304711
v -0.1733851 0.161925 0.03304711
v -0.1047872 0.161925 0.127464
v -0.2503962 0.161925 -0.1067727
v -0.1059089 0.161925 -0.05982591
v -0.2503962 0.161925 0.1747752

vn -0.728492 0.651019 -0.2132455
vn -0.2897079 0.3479466 0.8916292
vn 0.7760854 0.2824081 -0.5638591
vn -0.7937883 0.193114 0.576721
vn -0.2851855 0.3850884 -0.8777108
vn 0.9927117 0.1205144 0
vn 0 -1 0
vn 0.3070784 0.1118372 -0.9450901
vn 0.3014455 0.2200083 -0.9277537
vn 0.3014744 0.2195926 -0.9278428
vn 0.9717667 0.2359435 0
vn -0.8051431 0.09774375 -0.5849708
vn -0.8051431 0.09774375 0.5849708
vn -0.793847 0.1927448 0.5767636
vn -0.7937883 0.193114 -0.576721
vn 0 1 0
vn -0.752994 0.3656516 -0.5470822
vn 0.3014744 0.2195926 0.9278428
vn 0.281781 0.4104959 -0.8672327
vn 0.281781 0.4104959 0.8672327
vn -0.793847 0.1927448 -0.5767636
vn 0.9716591 0.2363867 0
vn -0.752994 0.3656516 0.5470822
vn 0.3070784 0.1118372 0.9450901

vt 5.760777 -8.0723
vt 0.5685027 -2.516147
vt 6.46124 -2.516147
vt 2.537189 9.961878
vt 1.182555 -1.336574
vt -0.6885318 9.961878
vt -1.501535 16.42665
vt -3.6472 5.961278
vt -5.641605 16.42665
vt -4.601857 4.565533
vt -4.019153 8.71864
vt -1.937512 8.71864
vt 1.492636 10.51572
vt -0.3024602 2.415749
vt -1.733085 10.51572
vt 5.478671 -1.672065
vt -3.083555 -1.672065
vt 4.686665 8.441013
vt 1.335955 18.55409
vt -1.499543 18.55409
vt 8.359381 6.738081
vt 8.359381 4.875493
vt -1.982433 10.09834
vt 3.287477 -11.39011
vt -0.007765431 -6.854597
vt -1.982433 -7.496205
vt -3.604043 7.866385
vt -3.648205 -5.203468
vt -10.58891 10.13591
vt -10.58891 -7.45864
vt -16.9805 1.338633
vt 9.80282 -9.273146
vt 9.80282 -6.801608
vt 13.8744 -5.478671
vt 13.8744 3.083555
vt -3.474821 7.004936
vt -5.463724 7.004936
vt -4.279379 19.14327
vt -10.58796 9.040524
vt -7.114877 19.14327
vt -11.50234 -1.062225
vt -7.221223 -1.062225
vt 0.393161 -2.606773
vt -6.457476 -2.606773
vt -0.6783878 5.611133
vt -4.994289 5.611133
vt 4.201861 -1.431021
vt 2.125572 -1.431021
vt 3.498207 3.975651
vt 1.598134 2.609215
vt -1.028784 6.786097
vt 0.5073847 11.63797
vt -2.355645 11.63797
vt -2.213011 6.786097
vt -2.955498 11.14809
vt -4.493602 7.99056
vt -4.726386 11.14809
vt -4.875493 -1.972341
vt -6.738081 -1.972341
vt -9.248816 8.041553
vt -8.206361 20.16178
vt -5.165514 8.041553
vt -2.812159 20.16178
vt -4.196301 12.79778
vt -2.289204 12.79778
vt 0.3515143 12.93538
vt 0.8744689 20.29938
vt 5.484973 12.93538
vt 6.268672 20.29938
vt 7.167225 9.852235
vt -2.049948 11.54045
vt 2.807084 11.54045
vt -2.959746 5.043627
vt 1.634967 5.043627
vt 4.245636 -1.453195
vt 6.63156 0.7455727
vt 7.004484 -1.453195
vt -11.14712 -0.7792755
vt -9.758731 7.391072
vt -5.540921 -0.7792755
vt -5.44283 7.391072
vt -4.860126 3.237964
vt -7.852541 -8.005777
vt -7.852541 -6.486653
vt -3.747875 -9.339464
vt -5.960981 -7.101258
vt -3.560877 -3.797797
vt -1.211052 -5.847826
vt -2.43461 -4.163744
vt 0.1898383 -4.735439
vt 2.393633 2.113863
vt 11.06387 -4.735439
vt 4.340805 2.113863
vt 10.44805 -2.417378
vt -11.43686 1.499543
vt -6.306665 3.166443
vt -11.43686 -1.335955
vt -9.003385 -4.685342
vt -6.306665 -5.56156
vt -3.136033 -1.197558
vt 5.868062 -1.974464
vt -5.005965 -1.974464
vt 3.545543 11.09453
vt -4.718145 0.2370547
vt -1.311489 11.09453
vt 12.3755 -1.568684
vt 5.077609 -1.568684
vt 10.67463 5.422503
vt 4.693409 5.422503
vt -13.20282 -2.613901
vt -11.50195 4.377285
vt -5.858496 -2.613901
vt -5.474296 4.377285
vt -4.899312 -1.158393
vt -3.987598 4.217107
vt -2.065333 -1.158393
vt -0.7019125 11.83525
vt 0.5453354 5.338429
vt 4.155119 11.83525
vt 5.064917 5.338429
vt 9.273146 -2.317256
vt 6.801608 -2.317256
vt 8.005777 5.933119
vt 6.486653 5.933119
vt -8.282092 -2.992789
vt -4.991297 1.538453
vt -8.897911 -5.310849
vt 1.976116 -5.310849
vt -0.2276791 1.538453
vt 4.169642 -2.355351
vt 6.826186 1.301067
vt 9.858118 -4.203649
vt 9.858118 6.880915
vt 4.125481 5.018269
vt 12.6581 3.027067
vt 11.00264 -2.628354
vt 12.24247 -0.8074716
vt 6.443634 -0.8074716
vt 10.41371 19.39803
vt 4.326014 8.935266
vt 5.01951 19.39803
vt -3.367292 -2.740432
vt -2.246329 -1.197558
vt -0.6443889 -3.625157
vt -0.6443889 6.227292
vt -5.263701 2.955498
vt -5.263701 4.726386
vt 2.423454 5.230489
vt 2.423454 -2.628354
vt 5.278346 1.301067

usemtl rock

f 3/3/1 2/2/1 1/1/1
f 6/6/2 5/5/2 4/4/2
f 9/9/3 8/8/3 7/7/3
f 12/12/4 11/11/4 10/10/4
f 15/15/5 14/14/5 13/13/5
f 8/18/6 17/17/6 16/16/6
f 17/17/6 8/18/6 9/19/6
f 17/17/6 9/19/6 18/20/6
f 21/23/7 20/22/7 19/21/7
f 20/22/7 21/23/7 22/24/7
f 22/24/7 21/23/7 23/25/7
f 23/25/7 21/23/7 24/26/7
f 24/26/7 21/23/7 25/27/7
f 24/26/7 25/27/7 26/28/7
f 26/28/7 25/27/7 27/29/7
f 26/28/7 27/29/7 28/30/7
f 28/30/7 27/29/7 29/31/7
f 30/32/7 20/22/7 22/24/7
f 31/33/7 20/22/7 30/32/7
f 16/34/7 20/22/7 31/33/7
f 20/22/7 16/34/7 17/35/7
f 34/38/8 33/37/8 32/36/8
f 33/37/8 34/38/8 8/39/8
f 8/39/8 34/38/8 7/40/8
f 16/41/8 33/37/8 8/39/8
f 33/37/8 16/41/8 31/42/8
f 35/45/9 30/44/9 22/43/9
f 30/44/9 35/45/9 36/46/9
f 14/49/10 23/48/10 24/47/10
f 23/48/10 14/49/10 10/50/10
f 10/50/10 14/49/10 12/51/10
f 12/51/10 14/49/10 15/52/10
f 37/53/10 12/51/10 15/52/10
f 12/51/10 37/53/10 38/54/10
f 41/57/11 40/56/11 39/55/11
f 40/56/11 41/57/11 20/58/11
f 20/58/11 41/57/11 19/59/11
f 38/62/12 34/61/12 32/60/12
f 34/61/12 38/62/12 42/63/12
f 42/63/12 38/62/12 37/64/12
f 42/63/12 37/64/12 43/65/12
f 39/68/13 42/67/13 43/66/13
f 42/67/13 39/68/13 44/69/13
f 44/69/13 39/68/13 40/70/13
f 46/73/14 6/72/14 45/71/14
f 6/72/14 46/73/14 47/74/14
f 6/72/14 47/74/14 25/75/14
f 6/72/14 25/75/14 5/76/14
f 5/76/14 25/75/14 21/77/14
f 23/80/15 35/79/15 22/78/15
f 35/79/15 23/80/15 11/81/15
f 11/81/15 23/80/15 10/82/15
f 35/85/16 33/84/16 36/83/16
f 33/84/16 35/85/16 32/86/16
f 32/86/16 35/85/16 38/87/16
f 38/87/16 35/85/16 11/88/16
f 38/87/16 11/88/16 12/89/16
f 29/92/17 48/91/17 28/90/17
f 48/91/17 29/92/17 2/93/17
f 2/93/17 29/92/17 1/94/17
f 9/97/16 44/96/16 18/95/16
f 44/96/16 9/97/16 7/98/16
f 44/96/16 7/98/16 34/99/16
f 44/96/16 34/99/16 42/100/16
f 41/103/18 21/102/18 19/101/18
f 21/102/18 41/103/18 5/104/18
f 5/104/18 41/103/18 4/105/18
f 48/108/19 26/107/19 28/106/19
f 26/107/19 48/108/19 49/109/19
f 25/112/20 50/111/20 27/110/20
f 50/111/20 25/112/20 47/113/20
f 26/116/21 14/115/21 24/114/21
f 14/115/21 26/116/21 13/117/21
f 13/117/21 26/116/21 49/118/21
f 13/117/21 49/118/21 45/119/21
f 45/119/21 49/118/21 46/120/21
f 36/123/22 31/122/22 30/121/22
f 31/122/22 36/123/22 33/124/22
f 29/127/23 3/126/23 1/125/23
f 3/126/23 29/127/23 27/128/23
f 3/126/23 27/128/23 50/129/23
f 48/132/16 46/131/16 49/130/16
f 46/131/16 48/132/16 50/133/16
f 50/133/16 47/134/16 46/131/16
f 50/133/16 48/132/16 3/135/16
f 3/135/16 48/132/16 2/136/16
f 18/139/24 20/138/24 17/137/24
f 20/138/24 18/139/24 40/140/24
f 40/140/24 18/139/24 44/141/24
f 15/144/16 43/143/16 37/142/16
f 43/143/16 15/144/16 4/145/16
f 4/145/16 39/146/16 43/143/16
f 39/146/16 4/145/16 41/147/16
f 4/145/16 15/144/16 6/148/16
f 6/148/16 15/144/16 13/149/16
f 6/148/16 13/149/16 45/150/16

