# Created by Kenney (www.kenney.nl)

mtllib signpost.mtl

g signpost

v 0.018 0 0.018
v 0.018 0 -0.018
v -0.018 0 0.018
v -0.018 0 -0.018
v 0.01152 0.46008 -0.01152
v 0.01152 0.46008 0.01152
v -0.01152 0.46008 -0.01152
v -0.01152 0.46008 0.01152
v 0.01193115 0.4308882 -0.01193115
v -0.0119006 0.433057 -0.0119006
v -0.07151518 0.3480532 -0.0249778
v -0.1122773 0.3969774 -0.0249778
v -0.07151518 0.3480532 -0.007999999
v -0.1122773 0.3969774 -0.007999999
v -0.06335308 0.4377396 -0.0249778
v -0.06335308 0.4377396 -0.007999999
v 0.08819628 0.3335183 -0.007999999
v 0.01320644 0.3403429 -0.007999999
v 0.09635838 0.4232047 -0.007999999
v 0.01193115 0.4308882 -0.007999999
v 0.09635838 0.4232047 -0.0249778
v 0.08819628 0.3335183 -0.0249778
v -0.01317263 0.3427436 -0.007999999
v -0.01317263 0.3427436 -0.01317263
v 0.01320644 0.3403429 -0.01320644
v -0.0119006 0.433057 -0.007999999
v 0.06299062 0.3048951 -0.0249778
v 0.1018446 0.2544422 -0.0249778
v 0.06299062 0.3048951 -0.007999999
v 0.1018446 0.2544422 -0.007999999
v -0.1076441 0.2362433 -0.0249778
v -0.09604515 0.3255502 -0.0249778
v -0.1076441 0.2362433 -0.007999999
v -0.09604515 0.3255502 -0.007999999
v 0.05139167 0.2155882 -0.0249778
v 0.05139167 0.2155882 -0.007999999
v 0.01489679 0.220328 -0.007999999
v 0.01361538 0.3113078 -0.007999999
v 0.01361538 0.3113078 -0.01361538
v -0.01356566 0.314838 -0.01356566
v 0.01489679 0.220328 -0.01489679
v -0.01484239 0.2241904 -0.01484239
v -0.01484239 0.2241904 -0.007999999
v -0.01356566 0.314838 -0.007999999

vn 0 -1 0
vn 0 1 0
vn 0 0.01408311 -0.9999008
vn -0.7682835 -0.6401097 0
vn -0.6401097 0.7682835 0
vn 0 0.01408311 0.9999008
vn 0 0 1
vn 0.9958844 -0.09063257 0
vn -0.09063257 -0.9958844 0
vn 0 0 -1
vn 0.09063257 0.9958844 0
vn 0.7922896 0.6101452 0
vn -0.9916712 0.1287956 0
vn 0.6101452 -0.7922896 0
vn -0.1287956 -0.9916712 0
vn 0.1287956 0.9916712 0
vn 0.9999008 0.01408311 0
vn -0.9999008 0.01408311 0

vt 0.7086614 0.7086614
vt 0.7086614 -0.7086614
vt -0.7086614 0.7086614
vt -0.7086614 -0.7086614
vt -0.4535433 -0.4535433
vt -0.4535433 0.4535433
vt 0.4535433 -0.4535433
vt 0.4535433 0.4535433
vt -0.4697304 16.9558
vt -0.4535433 18.1052
vt 0.4685278 17.0412
vt 0.4535433 18.1052
vt -0.9833779 12.32996
vt -0.9833779 14.83705
vt -0.3149606 12.32996
vt -0.3149606 14.83705
vt -0.9833779 9.115284
vt -0.3149606 9.115284
vt -0.9833779 6.6082
vt -0.3149606 6.6082
vt 0.7086614 -0.009980157
vt -0.7086614 -0.009980157
vt 3.472294 13.13064
vt 0.5199385 13.39933
vt 3.793637 16.6616
vt 0.4697304 16.9641
vt 0.9833779 16.93686
vt 0.9833779 13.3913
vt 0.3149606 16.93686
vt 0.3149606 13.3913
vt -0.3149606 1.739455
vt -0.5186073 1.739455
vt -0.3149606 4.045898
vt -0.9833779 4.045898
vt -0.5199385 0.6966169
vt -0.9833779 -2.26794
vt -0.3149606 0.6966169
vt -0.3149606 -2.26794
vt -3.472294 13.13064
vt -3.793637 16.6616
vt 2.815558 13.70288
vt 4.420367 15.62903
vt 2.494216 17.23384
vt 0.9833779 -2.26794
vt 0.3149606 -2.26794
vt 0.9833779 4.045898
vt 0.4697304 1.069703
vt 0.3149606 1.069703
vt 0.4685278 2.011839
vt 0.3149606 2.011839
vt 0.3149606 4.045898
vt 0.9833779 7.997315
vt 0.9833779 5.490231
vt 0.3149606 7.997315
vt 0.3149606 5.490231
vt -0.9833779 8.677621
vt -0.9833779 12.22317
vt -0.3149606 8.677621
vt -0.3149606 12.22317
vt -2.023294 8.487722
vt -4.009631 10.01741
vt 4.237957 9.300917
vt 3.781305 12.81694
vt -2.479946 12.00374
vt 2.023294 8.487722
vt 0.5864878 8.674331
vt 4.009631 10.01741
vt 0.5360387 12.25621
vt 2.479946 12.00374
vt 0.3149606 9.288862
vt 0.9833779 9.288862
vt 0.3149606 6.781778
vt 0.9833779 6.781778
vt -0.5360387 12.24745
vt -0.5199385 13.39068
vt 0.5340812 12.38645
vt 0.5186073 13.4852
vt -0.3149606 -0.9132612
vt -0.9833779 -0.9132612
vt -0.3149606 0.5356126
vt -0.5864878 0.5356126
vt -0.9833779 5.400577
vt -0.584346 1.71628
vt -0.3149606 1.71628
vt -0.3149606 5.400577
vt -0.5186073 13.49384
vt -2.815558 13.70288
vt -0.4685278 17.04949
vt -4.420367 15.62903
vt -2.494216 17.23384
vt 0.3149606 5.400577
vt 0.9833779 5.400577
vt 0.3149606 2.12608
vt 0.5340812 2.12608
vt 0.5360387 1.046972
vt 0.9833779 -0.9132612
vt 0.3149606 -0.9132612
vt 0.3149606 1.046972
vt 0.584346 8.81729
vt -0.5864878 8.665211
vt 0.5360387 12.24745
vt 0.3149606 12.24745
vt 0.5199385 13.39068
vt 0.3149606 13.39068
vt 0.3149606 8.665211
vt 0.5864878 8.665211
vt 0.3149606 16.9558
vt 0.4697304 16.9558
vt -0.584346 8.81729
vt -0.3149606 8.81729
vt -0.3149606 12.38645
vt -0.3149606 13.4852
vt -0.5186073 13.4852
vt -0.5340812 12.38645
vt -0.3149606 17.0412
vt -0.4685278 17.0412
vt -0.584346 8.826395
vt -4.237957 9.300917
vt -0.5340812 12.3952
vt -3.781305 12.81694

usemtl wood

f 3/3/1 2/2/1 1/1/1
f 2/2/1 3/3/1 4/4/1
f 7/7/2 6/6/2 5/5/2
f 6/6/2 7/7/2 8/8/2
f 10/11/3 5/10/3 9/9/3
f 5/10/3 10/11/3 7/12/3
f 13/15/4 12/14/4 11/13/4
f 12/14/4 13/15/4 14/16/4
f 12/19/5 16/18/5 15/17/5
f 16/18/5 12/19/5 14/20/5
f 6/12/6 3/22/6 1/21/6
f 3/22/6 6/12/6 8/10/6
f 19/25/7 18/24/7 17/23/7
f 18/24/7 19/25/7 20/26/7
f 19/29/8 22/28/8 21/27/8
f 22/28/8 19/29/8 17/30/8
f 13/33/9 24/32/9 23/31/9
f 11/34/9 24/32/9 13/33/9
f 11/34/9 25/35/9 24/32/9
f 22/36/9 25/35/9 11/34/9
f 22/36/9 18/37/9 25/35/9
f 18/37/9 22/36/9 17/38/9
f 11/41/10 21/40/10 22/39/10
f 21/40/10 11/41/10 12/42/10
f 21/40/10 12/42/10 15/43/10
f 15/46/11 19/45/11 21/44/11
f 19/45/11 15/46/11 9/47/11
f 20/48/11 19/45/11 9/47/11
f 9/47/11 15/46/11 10/49/11
f 10/49/11 15/46/11 26/50/11
f 26/50/11 15/46/11 16/51/11
f 29/54/12 28/53/12 27/52/12
f 28/53/12 29/54/12 30/55/12
f 33/58/13 32/57/13 31/56/13
f 32/57/13 33/58/13 34/59/13
f 31/62/10 28/61/10 35/60/10
f 28/61/10 31/62/10 32/63/10
f 28/61/10 32/63/10 27/64/10
f 30/67/7 37/66/7 36/65/7
f 37/66/7 30/67/7 38/68/7
f 38/68/7 30/67/7 29/69/7
f 36/72/14 28/71/14 30/70/14
f 28/71/14 36/72/14 35/73/14
f 40/76/3 25/75/3 39/74/3
f 25/75/3 40/76/3 24/77/3
f 37/80/15 35/79/15 36/78/15
f 35/79/15 37/80/15 41/81/15
f 35/79/15 41/81/15 31/82/15
f 31/82/15 41/81/15 42/83/15
f 31/82/15 42/83/15 43/84/15
f 31/82/15 43/84/15 33/85/15
f 26/88/7 13/87/7 23/86/7
f 13/87/7 26/88/7 14/89/7
f 14/89/7 26/88/7 16/90/7
f 44/93/16 32/92/16 34/91/16
f 40/94/16 32/92/16 44/93/16
f 39/95/16 32/92/16 40/94/16
f 39/95/16 27/96/16 32/92/16
f 27/96/16 39/95/16 29/97/16
f 38/98/16 29/97/16 39/95/16
f 42/99/3 2/22/3 4/21/3
f 2/22/3 42/99/3 41/100/3
f 25/103/17 38/102/17 39/101/17
f 38/102/17 25/103/17 18/104/17
f 38/102/17 18/104/17 37/105/17
f 1/22/17 37/105/17 18/104/17
f 1/22/17 41/106/17 37/105/17
f 41/106/17 1/22/17 2/21/17
f 1/22/17 18/104/17 6/10/17
f 20/107/17 6/10/17 18/104/17
f 20/107/17 5/12/17 6/10/17
f 5/12/17 20/107/17 9/108/17
f 3/21/18 42/109/18 4/22/18
f 42/109/18 3/21/18 43/110/18
f 43/110/18 3/21/18 44/111/18
f 44/111/18 3/21/18 23/112/18
f 24/113/18 44/111/18 23/112/18
f 44/111/18 24/113/18 40/114/18
f 23/112/18 3/21/18 26/115/18
f 26/115/18 3/21/18 8/12/18
f 7/10/18 26/115/18 8/12/18
f 26/115/18 7/10/18 10/116/18
f 44/119/7 33/118/7 43/117/7
f 33/118/7 44/119/7 34/120/7

