# Created by Kenney (www.kenney.nl)

mtllib structureCloth.mtl

g structureCloth

v 0.2122051 0.4823974 -0.2122051
v 0.20722 0 -0.20722
v 0.2125675 0.5174668 -0.2125675
v 0.2446525 0.5174668 0.2125675
v 0.2446525 0.5174668 0.2446525
v 0.2125675 0.5174668 0.2125675
v 0.2125675 0.5174668 0.2446525
v 0.25 0 0.25
v 0.25 0 0.20722
v 0.20722 0 0.25
v 0.20722 0 0.20722
v 0.2122051 0.4823974 0.2122051
v 0.240235 0.41325 0.2114905
v 0.216985 0.41325 0.2114905
v 0.240235 0.39 0.2112503
v 0.216985 0.39 0.2112503
v -0.2125675 0.5174668 -0.2446525
v -0.2125675 0.5174668 -0.2125675
v -0.2446525 0.5174668 -0.2446525
v -0.2446525 0.5174668 -0.2125675
v -0.25 0 -0.25
v -0.25 0 -0.20722
v -0.2122051 0.4823974 -0.2122051
v -0.216985 0.41325 -0.2114905
v -0.240235 0.41325 -0.2114905
v -0.240235 0.39 -0.2112503
v -0.216985 0.39 -0.2112503
v -0.20722 0 -0.20722
v -0.20722 0 -0.25
v -0.2125675 0.5174668 0.2125675
v -0.2446525 0.5174668 0.2125675
v -0.2122051 0.4823974 0.2122051
v -0.216985 0.41325 0.2114905
v -0.216985 0.39 0.2112503
v -0.240235 0.41325 0.2114905
v -0.20722 0 0.20722
v -0.240235 0.39 0.2112503
v -0.25 0 0.20722
v -0.2125675 0.5174668 0.2446525
v -0.2446525 0.5174668 0.2446525
v -0.20722 0 0.25
v -0.25 0 0.25
v 0.20722 0 -0.25
v 0.25 0 -0.25
v 0.2125675 0.5174668 -0.2446525
v 0.2446525 0.5174668 -0.2446525
v 0.2446525 0.5174668 -0.2125675
v 0.240235 0.41325 -0.2114905
v 0.216985 0.41325 -0.2114905
v 0.216985 0.39 -0.2112503
v 0.240235 0.39 -0.2112503
v 0.25 0 -0.20722
v 0.2112503 0.39 0.240235
v -0.2112503 0.39 0.240235
v 0.2114905 0.41325 0.240235
v -0.2114905 0.41325 0.240235
v 0.2112503 0.39 -0.240235
v 0.2114905 0.41325 -0.240235
v -0.2112503 0.39 -0.240235
v -0.2114905 0.41325 -0.240235
v 0.2112503 0.39 -0.216985
v -0.2112503 0.39 -0.216985
v 0.2114905 0.41325 -0.216985
v -0.2114905 0.41325 -0.216985
v 0.2112503 0.39 0.216985
v -0.2112503 0.39 0.216985
v 0.2114905 0.41325 0.216985
v -0.2114905 0.41325 0.216985
v 0.1714575 0.4449669 -0.22861
v 0.1714575 0.4449669 0.22861
v 3.248601E-15 0.4274669 -0.22861
v 3.248601E-15 0.4274669 0.22861
v -0.1714575 0.4449669 -0.22861
v -0.1714575 0.4449669 0.22861
v 0.2122051 0.4823974 -0.22861
v 0.2122051 0.4823974 0.22861
v 0.22861 0.4974669 -0.2123608
v 0.22861 0.4974669 0.2123608
v -0.2122051 0.4823974 -0.22861
v -0.2122051 0.4823974 0.22861
v -0.22861 0.4974669 -0.2123608
v -0.22861 0.4974669 0.2123608

vn -0.9999466 0.01033344 0
vn 0 1 0
vn 0 -1 0
vn 0 0.01033344 0.9999466
vn 0 0.01033344 -0.9999466
vn 0.9999466 0.01033344 0
vn 0 0 1
vn 0 0 -1
vn -1 0 0
vn 1 0 0
vn -0.4099087 0.9121265 0
vn 0.4099087 -0.9121265 0
vn 0.4099087 0.9121265 0
vn -0.4099087 -0.9121265 0
vn -0.6764959 0.7364464 0
vn 0.6764959 -0.7364464 0
vn 0.6764959 0.7364464 0
vn -0.6764959 -0.7364464 0

vt -8.354531 19.07734
vt -8.158268 0.08430299
vt -8.368799 20.4581
vt -9.631989 8.368799
vt -9.631989 9.631989
vt -8.368799 8.368799
vt -8.368799 9.631989
vt 9.84252 9.84252
vt 9.84252 8.158268
vt 8.158268 9.84252
vt 8.158268 8.158268
vt 9.84252 -0.1017071
vt 8.158268 -0.1017071
vt 9.631989 20.27209
vt 8.368799 20.27209
vt -9.631989 20.4581
vt -9.458071 16.35486
vt -8.542717 16.35486
vt -9.458071 15.43945
vt -9.84252 0.08430299
vt -8.542717 15.43945
vt -8.158268 -0.1017071
vt -9.84252 -0.1017071
vt -8.368799 20.27209
vt -9.631989 20.27209
vt 8.368799 -9.631989
vt 8.368799 -8.368799
vt 9.631989 -9.631989
vt 9.631989 -8.368799
vt -8.158268 -8.158268
vt -8.158268 -9.84252
vt -9.84252 -8.158268
vt -9.84252 -9.84252
vt 8.368799 20.4581
vt 9.631989 20.4581
vt 8.354531 19.07734
vt 8.542717 16.35486
vt 8.542717 15.43945
vt 9.458071 16.35486
vt 8.158268 0.08430299
vt 9.458071 15.43945
vt 9.84252 0.08430299
vt 8.368799 8.368799
vt 8.368799 9.631989
vt 9.631989 8.368799
vt 9.631989 9.631989
vt -8.158268 9.84252
vt -8.158268 8.158268
vt -9.84252 9.84252
vt -9.84252 8.158268
vt 9.84252 -8.158268
vt 9.84252 -9.84252
vt 8.158268 -8.158268
vt 8.158268 -9.84252
vt -9.631989 -9.631989
vt -9.631989 -8.368799
vt -8.368799 -9.631989
vt -8.368799 -8.368799
vt 8.316939 15.35433
vt -8.316939 15.35433
vt 8.326399 16.26969
vt -8.326399 16.26969
vt -8.326399 -8.542716
vt 8.326399 -8.542716
vt -8.326399 -9.458071
vt 8.326399 -9.458071
vt -9.458071 -8.326399
vt -9.458071 8.326399
vt -8.542717 -8.326399
vt -8.542717 8.326399
vt 8.542716 -8.326399
vt 8.542716 8.326399
vt 9.458071 -8.326399
vt 9.458071 8.326399
vt 8.316939 -8.542716
vt 8.316939 -9.458071
vt -8.316939 -8.542716
vt -8.316939 -9.458071
vt 8.316939 9.458071
vt 8.316939 8.542717
vt -8.316939 9.458071
vt -8.316939 8.542717
vt -8.326399 9.458071
vt 8.326399 9.458071
vt -8.326399 8.542717
vt 8.326399 8.542717
vt -8.542716 -8.316939
vt -9.458071 -8.316939
vt -8.542716 8.316939
vt -9.458071 8.316939
vt 9.458071 -8.316939
vt 8.542717 -8.316939
vt 9.458071 8.316939
vt 8.542717 8.316939
vt -9.000394 8.494199
vt 9.000394 8.494199
vt -9.000394 1.708834
vt 9.000394 1.708834
vt -9.000394 19.00069
vt -8.354531 19.00069
vt -9.000394 16.82234
vt 9.000394 16.82234
vt 9.000394 19.00069
vt 8.354531 19.00069
vt -8.360662 19.87769
vt 8.360662 19.87769

usemtl wood

f 3/3/1 2/2/1 1/1/1
f 6/6/2 5/5/2 4/4/2
f 5/5/2 6/6/2 7/7/2
f 10/10/3 9/9/3 8/8/3
f 9/9/3 10/10/3 11/11/3
f 5/14/4 10/13/4 8/12/4
f 10/13/4 5/14/4 7/15/4
f 4/16/5 12/1/5 6/3/5
f 4/16/5 13/17/5 12/1/5
f 14/18/5 12/1/5 13/17/5
f 4/16/5 15/19/5 13/17/5
f 9/20/5 15/19/5 4/16/5
f 16/21/5 12/1/5 14/18/5
f 15/19/5 9/20/5 16/21/5
f 16/21/5 11/2/5 12/1/5
f 11/2/5 16/21/5 9/20/5
f 4/24/6 8/23/6 9/22/6
f 8/23/6 4/24/6 5/25/6
f 19/28/2 18/27/2 17/26/2
f 18/27/2 19/28/2 20/29/2
f 22/22/1 19/25/1 21/23/1
f 19/25/1 22/22/1 20/24/1
f 20/16/4 23/1/4 18/3/4
f 20/16/4 24/18/4 23/1/4
f 20/16/4 25/17/4 24/18/4
f 20/16/4 26/19/4 25/17/4
f 26/19/4 20/16/4 22/20/4
f 27/21/4 23/1/4 24/18/4
f 22/20/4 27/21/4 26/19/4
f 27/21/4 28/2/4 23/1/4
f 28/2/4 27/21/4 22/20/4
f 19/14/5 29/13/5 21/12/5
f 29/13/5 19/14/5 17/15/5
f 22/32/3 29/31/3 28/30/3
f 29/31/3 22/32/3 21/33/3
f 32/36/5 31/35/5 30/34/5
f 33/37/5 31/35/5 32/36/5
f 32/36/5 34/38/5 33/37/5
f 35/39/5 31/35/5 33/37/5
f 36/40/5 34/38/5 32/36/5
f 37/41/5 31/35/5 35/39/5
f 34/38/5 36/40/5 37/41/5
f 37/41/5 38/42/5 31/35/5
f 38/42/5 37/41/5 36/40/5
f 31/45/2 39/44/2 30/43/2
f 39/44/2 31/45/2 40/46/2
f 42/49/3 36/48/3 41/47/3
f 36/48/3 42/49/3 38/50/3
f 39/24/4 42/23/4 41/22/4
f 42/23/4 39/24/4 40/25/4
f 42/12/1 31/15/1 38/13/1
f 31/15/1 42/12/1 40/14/1
f 45/24/5 44/23/5 43/22/5
f 44/23/5 45/24/5 46/25/5
f 1/36/4 47/35/4 3/34/4
f 48/39/4 47/35/4 1/36/4
f 1/36/4 49/37/4 48/39/4
f 1/36/4 50/38/4 49/37/4
f 50/38/4 1/36/4 2/40/4
f 51/41/4 47/35/4 48/39/4
f 2/40/4 51/41/4 50/38/4
f 51/41/4 52/42/4 47/35/4
f 52/42/4 51/41/4 2/40/4
f 46/14/6 52/13/6 44/12/6
f 52/13/6 46/14/6 47/15/6
f 2/53/3 44/52/3 52/51/3
f 44/52/3 2/53/3 43/54/3
f 45/57/2 47/56/2 46/55/2
f 47/56/2 45/57/2 3/58/2
f 55/61/7 54/60/7 53/59/7
f 54/60/7 55/61/7 56/62/7
f 59/59/8 58/62/8 57/60/8
f 58/62/8 59/59/8 60/61/8
f 63/61/7 62/60/7 61/59/7
f 62/60/7 63/61/7 64/62/7
f 58/65/2 64/64/2 63/63/2
f 64/64/2 58/65/2 60/66/2
f 49/69/2 13/68/2 48/67/2
f 13/68/2 49/69/2 14/70/2
f 25/73/2 33/72/2 24/71/2
f 33/72/2 25/73/2 35/74/2
f 26/60/9 35/61/9 25/62/9
f 35/61/9 26/60/9 37/59/9
f 62/77/3 57/76/3 61/75/3
f 57/76/3 62/77/3 59/78/3
f 54/81/3 65/80/3 53/79/3
f 65/80/3 54/81/3 66/82/3
f 67/85/2 56/84/2 55/83/2
f 56/84/2 67/85/2 68/86/2
f 34/89/3 26/88/3 27/87/3
f 26/88/3 34/89/3 37/90/3
f 13/62/10 51/59/10 48/61/10
f 51/59/10 13/62/10 15/60/10
f 15/93/3 50/92/3 51/91/3
f 50/92/3 15/93/3 16/94/3
f 50/60/9 14/61/9 49/62/9
f 14/61/9 50/60/9 16/59/9
f 33/62/10 27/59/10 24/61/10
f 27/59/10 33/62/10 34/60/10
f 66/59/8 67/62/8 65/60/8
f 67/62/8 66/59/8 68/61/8
f 11/40/1 65/38/1 12/36/1
f 12/36/1 65/38/1 6/34/1
f 65/38/1 11/40/1 10/42/1
f 6/34/1 65/38/1 67/37/1
f 65/38/1 10/42/1 53/41/1
f 67/37/1 7/35/1 6/34/1
f 53/41/1 10/42/1 7/35/1
f 7/35/1 67/37/1 55/39/1
f 7/35/1 55/39/1 53/41/1
f 60/39/6 18/34/6 64/37/6
f 64/37/6 18/34/6 62/38/6
f 18/34/6 60/39/6 17/35/6
f 23/36/6 62/38/6 18/34/6
f 28/40/6 62/38/6 23/36/6
f 59/41/6 17/35/6 60/39/6
f 28/40/6 59/41/6 62/38/6
f 59/41/6 29/42/6 17/35/6
f 29/42/6 59/41/6 28/40/6
f 68/18/6 39/16/6 56/17/6
f 56/17/6 39/16/6 54/19/6
f 39/16/6 68/18/6 30/3/6
f 41/20/6 54/19/6 39/16/6
f 66/21/6 30/3/6 68/18/6
f 41/20/6 66/21/6 54/19/6
f 66/21/6 32/1/6 30/3/6
f 36/2/6 66/21/6 41/20/6
f 66/21/6 36/2/6 32/1/6
f 3/3/1 58/17/1 63/18/1
f 3/3/1 63/18/1 61/21/1
f 58/17/1 3/3/1 45/16/1
f 61/21/1 2/2/1 3/3/1
f 45/16/1 57/19/1 58/17/1
f 57/19/1 2/2/1 61/21/1
f 43/20/1 57/19/1 45/16/1
f 57/19/1 43/20/1 2/2/1

usemtl cloth

f 71/97/2 70/96/11 69/95/11
f 70/96/11 71/97/2 72/98/2
f 69/95/12 70/96/12 71/97/3
f 72/98/3 71/97/3 70/96/12
f 73/96/13 72/97/2 71/98/2
f 72/97/2 73/96/13 74/95/13
f 71/98/3 72/97/3 73/96/14
f 74/95/14 73/96/14 72/97/3
f 69/101/11 1/100/15 75/99/15
f 70/102/11 1/100/15 69/101/11
f 76/103/15 1/100/15 70/102/11
f 12/104/15 1/100/15 76/103/15
f 12/104/15 77/105/15 1/100/15
f 77/105/15 12/104/15 78/106/15
f 75/99/16 1/100/16 69/101/12
f 69/101/12 1/100/16 70/102/12
f 70/102/12 1/100/16 76/103/16
f 76/103/16 1/100/16 12/104/16
f 1/100/16 77/105/16 12/104/16
f 78/106/16 12/104/16 77/105/16
f 79/103/17 74/101/13 73/102/13
f 74/101/13 79/103/17 80/99/17
f 80/99/17 79/103/17 32/100/17
f 32/100/17 79/103/17 23/104/17
f 32/100/17 23/104/17 81/106/17
f 32/100/17 81/106/17 82/105/17
f 73/102/14 74/101/14 79/103/18
f 80/99/18 79/103/18 74/101/14
f 32/100/18 79/103/18 80/99/18
f 23/104/18 79/103/18 32/100/18
f 81/106/18 23/104/18 32/100/18
f 82/105/18 81/106/18 32/100/18

