# Created by Kenney (www.kenney.nl)

mtllib structureBase.mtl

g structureBase

v 0.25 0 0.25
v 0.25 0 0.20722
v 0.20722 0 0.25
v 0.20722 0 0.20722
v 0.2446525 0.5174668 0.2446525
v 0.2125675 0.5174668 0.2446525
v 0.2446525 0.5174668 0.2125675
v -0.25 0 -0.25
v -0.2446525 0.5174668 -0.2446525
v -0.25 0 -0.20722
v -0.2446525 0.5174668 -0.2125675
v -0.20722 0 -0.25
v -0.2125675 0.5174668 -0.2446525
v -0.20722 0 -0.20722
v -0.20722 0 0.25
v -0.20722 0 0.20722
v -0.25 0 0.25
v -0.25 0 0.20722
v -0.2125675 0.5174668 0.2446525
v -0.2446525 0.5174668 0.2446525
v -0.2446525 0.5174668 0.2125675
v 0.20722 0 -0.25
v 0.25 0 -0.25
v 0.2125675 0.5174668 -0.2446525
v 0.2446525 0.5174668 -0.2446525
v 0.25 0 -0.20722
v 0.2446525 0.5174668 -0.2125675
v 0.20722 0 -0.20722
v 0.2112503 0.39 0.240235
v -0.2112503 0.39 0.240235
v 0.2114905 0.41325 0.240235
v -0.2114905 0.41325 0.240235
v 0.2112503 0.39 -0.240235
v 0.2114905 0.41325 -0.240235
v -0.2112503 0.39 -0.240235
v -0.2114905 0.41325 -0.240235
v 0.2112503 0.39 -0.216985
v -0.2112503 0.39 -0.216985
v 0.2114905 0.41325 -0.216985
v -0.2114905 0.41325 -0.216985
v 0.240235 0.41325 -0.2114905
v 0.240235 0.41325 0.2114905
v 0.216985 0.41325 -0.2114905
v 0.216985 0.41325 0.2114905
v -0.216985 0.41325 -0.2114905
v -0.216985 0.41325 0.2114905
v -0.240235 0.41325 -0.2114905
v -0.240235 0.41325 0.2114905
v -0.240235 0.39 -0.2112503
v -0.240235 0.39 0.2112503
v 0.2112503 0.39 0.216985
v -0.2112503 0.39 0.216985
v 0.2114905 0.41325 0.216985
v -0.2114905 0.41325 0.216985
v -0.216985 0.39 -0.2112503
v -0.216985 0.39 0.2112503
v 0.240235 0.39 -0.2112503
v 0.240235 0.39 0.2112503
v 0.216985 0.39 -0.2112503
v 0.216985 0.39 0.2112503
v -0.2446525 0.5374669 -0.2446525
v -0.1784161 0.5174668 -0.2446525
v -0.1784161 0.5374669 -0.2446525
v -0.2446525 0.5374669 0.2446525
v -0.2446525 0.5174668 -0.1463311
v -0.2446525 0.5174668 -0.08009468
v -0.2446525 0.5174668 0.08009468
v -0.2446525 0.5174668 0.1463311
v -0.1784161 0.5174668 0.2446525
v -0.1784161 0.5374669 0.2446525
v -0.1784161 0.5174668 -0.1463311
v -0.1784161 0.5174668 -0.08009468
v -0.1784161 0.5174668 0.08009468
v -0.1784161 0.5174668 0.1463311
v -0.2125675 0.5174668 -0.2125675
v -0.2125675 0.5174668 0.2125675
v 0.1600388 0.5374669 -0.2446525
v 0.1600388 0.5374669 0.2446525
v 0.09380237 0.5374669 -0.2446525
v 0.09380237 0.5374669 0.2446525
v 0.09380237 0.5174668 -0.2446525
v 0.1600388 0.5174668 -0.2446525
v 0.09380237 0.5174668 -0.1463311
v 0.09380237 0.5174668 -0.08009468
v 0.09380237 0.5174668 0.08009468
v 0.09380237 0.5174668 0.1463311
v 0.09380237 0.5174668 0.2446525
v 0.1600388 0.5174668 0.2446525
v 0.1600388 0.5174668 -0.1463311
v 0.1600388 0.5174668 -0.08009468
v 0.1600388 0.5174668 0.08009468
v 0.1600388 0.5174668 0.1463311
v 0.07542507 0.5374669 -0.2446525
v 0.07542507 0.5174668 -0.2446525
v 0.07542507 0.5374669 0.2446525
v 0.07542507 0.5174668 -0.1463311
v 0.07542507 0.5174668 -0.08009468
v 0.07542507 0.5174668 0.08009468
v 0.07542507 0.5174668 0.1463311
v 0.07542507 0.5174668 0.2446525
v 0.009188654 0.5374669 -0.2446525
v 0.009188654 0.5374669 0.2446525
v 0.009188654 0.5174668 -0.2446525
v 0.009188654 0.5174668 -0.1463311
v 0.009188654 0.5174668 -0.08009468
v 0.009188654 0.5174668 0.08009468
v 0.009188654 0.5174668 0.1463311
v 0.009188654 0.5174668 0.2446525
v -0.1600388 0.5174668 -0.2446525
v -0.09380237 0.5174668 -0.2446525
v -0.1600388 0.5374669 -0.2446525
v -0.09380237 0.5374669 -0.2446525
v -0.1600388 0.5174668 -0.1463311
v -0.1600388 0.5374669 0.2446525
v -0.1600388 0.5174668 -0.08009468
v -0.1600388 0.5174668 0.08009468
v -0.1600388 0.5174668 0.1463311
v -0.1600388 0.5174668 0.2446525
v -0.09380237 0.5174668 0.2446525
v -0.09380237 0.5374669 0.2446525
v -0.09380237 0.5174668 -0.1463311
v -0.09380237 0.5174668 -0.08009468
v -0.09380237 0.5174668 0.08009468
v -0.09380237 0.5174668 0.1463311
v 0.1784161 0.5174668 -0.2446525
v 0.1784161 0.5374669 -0.2446525
v 0.1784161 0.5174668 -0.1463311
v 0.1784161 0.5374669 0.2446525
v 0.1784161 0.5174668 -0.08009468
v 0.1784161 0.5174668 0.08009468
v 0.1784161 0.5174668 0.1463311
v 0.1784161 0.5174668 0.2446525
v 0.2446525 0.5374669 -0.2446525
v 0.2446525 0.5374669 0.2446525
v 0.2446525 0.5174668 -0.1463311
v 0.2446525 0.5174668 -0.08009468
v 0.2446525 0.5174668 0.08009468
v 0.2446525 0.5174668 0.1463311
v 0.2125675 0.5174668 -0.2125675
v 0.2125675 0.5174668 0.2125675
v -0.009188654 0.5374669 -0.2446525
v -0.009188654 0.5374669 0.2446525
v -0.07542507 0.5374669 -0.2446525
v -0.07542507 0.5374669 0.2446525
v -0.07542507 0.5174668 -0.2446525
v -0.009188654 0.5174668 -0.2446525
v -0.07542507 0.5174668 -0.1463311
v -0.07542507 0.5174668 -0.08009468
v -0.07542507 0.5174668 0.08009468
v -0.07542507 0.5174668 0.1463311
v -0.07542507 0.5174668 0.2446525
v -0.009188654 0.5174668 0.2446525
v -0.009188654 0.5174668 -0.1463311
v -0.009188654 0.5174668 -0.08009468
v -0.009188654 0.5174668 0.08009468
v -0.009188654 0.5174668 0.1463311
v 0.2446525 0.4974669 -0.08009468
v 0.2446525 0.4974669 -0.1463311
v -0.2446525 0.4974669 -0.08009468
v -0.2446525 0.4974669 -0.1463311
v -0.2446525 0.4974669 0.08009468
v -0.2446525 0.4974669 0.1463311
v 0.2446525 0.4974669 0.08009468
v 0.2446525 0.4974669 0.1463311

vn 0 -1 0
vn 0 0.01033344 0.9999466
vn 0 0.005183729 0.9999866
vn 0 0.003459595 0.999994
vn 0.9999466 0.01033344 0
vn 0.999994 0.003459595 0
vn 0.9999866 0.005183729 0
vn -0.9999466 0.01033344 0
vn -0.9999866 0.005183729 0
vn -0.999994 0.003459595 0
vn 0 0.01033344 -0.9999466
vn 0 0.005183729 -0.9999866
vn 0 0.003459595 -0.999994
vn 0 0 1
vn 0 0 -1
vn 0 1 0
vn -1 0 0
vn 1 0 0

vt 9.84252 9.84252
vt 9.84252 8.158268
vt 8.158268 9.84252
vt 8.158268 8.158268
vt 9.84252 -0.1017071
vt 8.158268 -0.1017071
vt 9.631989 20.27209
vt 8.368799 20.27209
vt -8.158268 -0.1017071
vt -9.84252 -0.1017071
vt -8.368799 20.27209
vt -9.631989 20.27209
vt -8.158268 -8.158268
vt -8.158268 -9.84252
vt -9.84252 -8.158268
vt -9.84252 -9.84252
vt -8.158268 9.84252
vt -8.158268 8.158268
vt -9.84252 9.84252
vt -9.84252 8.158268
vt 9.84252 -8.158268
vt 9.84252 -9.84252
vt 8.158268 -8.158268
vt 8.158268 -9.84252
vt 8.316939 15.35433
vt -8.316939 15.35433
vt 8.326399 16.26969
vt -8.326399 16.26969
vt -8.326399 -8.542716
vt 8.326399 -8.542716
vt -8.326399 -9.458071
vt 8.326399 -9.458071
vt -9.458071 -8.326399
vt -9.458071 8.326399
vt -8.542717 -8.326399
vt -8.542717 8.326399
vt 8.542716 -8.326399
vt 8.542716 8.326399
vt 9.458071 -8.326399
vt 9.458071 8.326399
vt 8.316939 -8.542716
vt 8.316939 -9.458071
vt -8.316939 -8.542716
vt -8.316939 -9.458071
vt 8.316939 9.458071
vt 8.316939 8.542717
vt -8.316939 9.458071
vt -8.316939 8.542717
vt -8.326399 9.458071
vt 8.326399 9.458071
vt -8.326399 8.542717
vt 8.326399 8.542717
vt -8.542716 -8.316939
vt -9.458071 -8.316939
vt -8.542716 8.316939
vt -9.458071 8.316939
vt 9.458071 -8.316939
vt 8.542717 -8.316939
vt 9.458071 8.316939
vt 8.542717 8.316939
vt 9.631989 20.37271
vt 8.368799 20.37271
vt 9.631989 21.16011
vt 7.024255 20.37271
vt 7.024255 21.16011
vt -9.631989 20.37271
vt -9.631989 21.16011
vt -8.368799 20.37271
vt -5.761066 20.37271
vt -3.153334 20.37271
vt 3.153334 20.37271
vt 5.761066 20.37271
vt -7.024255 20.37271
vt -7.024255 21.16011
vt 7.024255 -9.631989
vt 7.024255 9.631989
vt 9.631989 -9.631989
vt 9.631989 9.631989
vt -7.024255 -5.761066
vt -7.024255 -9.631989
vt -9.631989 -5.761066
vt -8.368799 -8.368799
vt -9.631989 -8.368799
vt -8.368799 -9.631989
vt -7.024255 9.631989
vt -7.024255 5.761066
vt -8.368799 9.631989
vt -8.368799 8.368799
vt -9.631989 5.761066
vt -9.631989 8.368799
vt -7.024255 3.153334
vt -7.024255 -3.153334
vt -9.631989 3.153334
vt -9.631989 -3.153334
vt -6.300739 -9.631989
vt -6.300739 9.631989
vt -3.693007 -9.631989
vt -3.693007 9.631989
vt -3.693007 20.37271
vt -6.300739 20.37271
vt -3.693007 21.16011
vt -6.300739 21.16011
vt 6.300739 20.37271
vt 3.693007 20.37271
vt 6.300739 21.16011
vt 3.693007 21.16011
vt 6.300739 -5.761066
vt 6.300739 -9.631989
vt 3.693007 -5.761066
vt 3.693007 -9.631989
vt 6.300739 9.631989
vt 6.300739 5.761066
vt 3.693007 9.631989
vt 3.693007 5.761066
vt 6.300739 3.153334
vt 6.300739 -3.153334
vt 3.693007 3.153334
vt 3.693007 -3.153334
vt -2.969491 -9.631989
vt -2.969491 9.631989
vt -0.361758 -9.631989
vt -0.361758 9.631989
vt -0.361758 20.37271
vt -2.969491 20.37271
vt -0.361758 21.16011
vt -2.969491 21.16011
vt 2.969491 20.37271
vt 0.361758 20.37271
vt 2.969491 21.16011
vt 0.361758 21.16011
vt 2.969491 -5.761066
vt 2.969491 -9.631989
vt 0.361758 -5.761066
vt 0.361758 -9.631989
vt 2.969491 9.631989
vt 2.969491 5.761066
vt 0.361758 9.631989
vt 0.361758 5.761066
vt 2.969491 3.153334
vt 2.969491 -3.153334
vt 0.361758 3.153334
vt 0.361758 -3.153334
vt -3.693007 -5.761066
vt -6.300739 -5.761066
vt -3.693007 5.761066
vt -6.300739 5.761066
vt -3.693007 3.153334
vt -3.693007 -3.153334
vt -6.300739 3.153334
vt -6.300739 -3.153334
vt -9.631989 -9.631989
vt -9.631989 9.631989
vt 9.631989 -5.761066
vt 9.631989 -8.368799
vt 7.024255 -5.761066
vt 8.368799 -8.368799
vt 8.368799 -9.631989
vt 8.368799 9.631989
vt 8.368799 8.368799
vt 7.024255 5.761066
vt 9.631989 5.761066
vt 9.631989 8.368799
vt 9.631989 -3.153334
vt 7.024255 -3.153334
vt 9.631989 3.153334
vt 7.024255 3.153334
vt -0.361758 -5.761066
vt -2.969491 -5.761066
vt -0.361758 5.761066
vt -2.969491 5.761066
vt -0.361758 3.153334
vt -0.361758 -3.153334
vt -2.969491 3.153334
vt -2.969491 -3.153334
vt 8.368799 20.4581
vt 8.542717 15.43945
vt 8.158268 0.08430299
vt 9.84252 0.08430299
vt 8.542717 16.35486
vt 9.458071 15.43945
vt 9.631989 20.4581
vt 9.458071 16.35486
vt -8.542717 16.35486
vt -8.368799 20.4581
vt -8.542717 15.43945
vt -9.458071 16.35486
vt -8.158268 0.08430299
vt -9.631989 20.4581
vt -9.84252 0.08430299
vt -9.458071 15.43945
vt 5.761066 19.58531
vt 3.153334 19.58531
vt 9.631989 19.58531
vt -9.631989 19.58531
vt -5.761066 19.58531
vt -3.153334 19.58531

usemtl wood

f 3/3/1 2/2/1 1/1/1
f 2/2/1 3/3/1 4/4/1
f 5/7/3 3/6/2 1/5/2
f 3/6/2 5/7/3 6/8/4
f 7/11/6 1/10/5 2/9/5
f 1/10/5 7/11/6 5/12/7
f 10/9/8 9/12/9 8/10/8
f 9/12/9 10/9/8 11/11/10
f 9/7/12 12/6/11 8/5/11
f 12/6/11 9/7/12 13/8/13
f 10/15/1 12/14/1 14/13/1
f 12/14/1 10/15/1 8/16/1
f 17/19/1 16/18/1 15/17/1
f 16/18/1 17/19/1 18/20/1
f 19/11/4 17/10/2 15/9/2
f 17/10/2 19/11/4 20/12/3
f 17/5/8 21/8/10 18/6/8
f 21/8/10 17/5/8 20/7/9
f 24/11/13 23/10/11 22/9/11
f 23/10/11 24/11/13 25/12/12
f 25/7/7 26/6/5 23/5/5
f 26/6/5 25/7/7 27/8/6
f 28/23/1 23/22/1 26/21/1
f 23/22/1 28/23/1 22/24/1
f 31/27/14 30/26/14 29/25/14
f 30/26/14 31/27/14 32/28/14
f 35/25/15 34/28/15 33/26/15
f 34/28/15 35/25/15 36/27/15
f 39/27/14 38/26/14 37/25/14
f 38/26/14 39/27/14 40/28/14
f 34/31/16 40/30/16 39/29/16
f 40/30/16 34/31/16 36/32/16
f 43/35/16 42/34/16 41/33/16
f 42/34/16 43/35/16 44/36/16
f 47/39/16 46/38/16 45/37/16
f 46/38/16 47/39/16 48/40/16
f 49/26/17 48/27/17 47/28/17
f 48/27/17 49/26/17 50/25/17
f 38/43/1 33/42/1 37/41/1
f 33/42/1 38/43/1 35/44/1
f 30/47/1 51/46/1 29/45/1
f 51/46/1 30/47/1 52/48/1
f 53/51/16 32/50/16 31/49/16
f 32/50/16 53/51/16 54/52/16
f 56/55/1 49/54/1 55/53/1
f 49/54/1 56/55/1 50/56/1
f 42/28/18 57/25/18 41/27/18
f 57/25/18 42/28/18 58/26/18
f 58/59/1 59/58/1 57/57/1
f 59/58/1 58/59/1 60/60/1
f 59/26/17 44/27/17 43/28/17
f 44/27/17 59/26/17 60/25/17
f 46/28/18 55/25/18 45/27/18
f 55/25/18 46/28/18 56/26/18
f 52/25/15 53/28/15 51/26/15
f 53/28/15 52/25/15 54/27/15
f 61/63/15 13/62/13 9/61/12
f 13/62/13 61/63/15 62/64/15
f 62/64/15 61/63/15 63/65/15
f 11/68/10 61/67/17 9/66/9
f 61/67/17 11/68/10 64/63/17
f 64/63/17 11/68/10 65/69/17
f 64/63/17 65/69/17 66/70/17
f 64/63/17 66/70/17 67/71/17
f 64/63/17 67/71/17 68/72/17
f 64/63/17 68/72/17 21/62/10
f 64/63/17 21/62/10 20/61/9
f 70/74/14 19/68/4 69/73/14
f 19/68/4 70/74/14 20/66/3
f 20/66/3 70/74/14 64/67/14
f 70/67/18 62/61/18 63/63/18
f 62/61/18 70/67/18 71/72/18
f 71/72/18 70/67/18 72/71/18
f 72/71/18 70/67/18 73/70/18
f 73/70/18 70/67/18 74/69/18
f 74/69/18 70/67/18 69/66/18
f 61/77/16 70/76/16 63/75/16
f 70/76/16 61/77/16 64/78/16
f 65/81/1 62/80/1 71/79/1
f 62/80/1 65/81/1 75/82/1
f 75/82/1 65/81/1 11/83/1
f 13/84/1 62/80/1 75/82/1
f 19/87/1 74/86/1 69/85/1
f 74/86/1 19/87/1 76/88/1
f 74/86/1 76/88/1 68/89/1
f 68/89/1 76/88/1 21/90/1
f 67/93/1 72/92/1 73/91/1
f 72/92/1 67/93/1 66/94/1
f 79/97/16 78/96/16 77/95/16
f 78/96/16 79/97/16 80/98/16
f 79/101/15 82/100/15 81/99/15
f 82/100/15 79/101/15 77/102/15
f 83/69/17 79/67/17 81/66/17
f 79/67/17 83/69/17 80/63/17
f 80/63/17 83/69/17 84/70/17
f 80/63/17 84/70/17 85/71/17
f 80/63/17 85/71/17 86/72/17
f 80/63/17 86/72/17 87/61/17
f 78/105/14 87/104/14 88/103/14
f 87/104/14 78/105/14 80/106/14
f 78/67/18 82/61/18 77/63/18
f 82/61/18 78/67/18 89/72/18
f 89/72/18 78/67/18 90/71/18
f 90/71/18 78/67/18 91/70/18
f 91/70/18 78/67/18 92/69/18
f 92/69/18 78/67/18 88/66/18
f 83/109/1 82/108/1 89/107/1
f 82/108/1 83/109/1 81/110/1
f 87/113/1 92/112/1 88/111/1
f 92/112/1 87/113/1 86/114/1
f 85/117/1 90/116/1 91/115/1
f 90/116/1 85/117/1 84/118/1
f 95/67/18 94/61/18 93/63/18
f 94/61/18 95/67/18 96/72/18
f 96/72/18 95/67/18 97/71/18
f 97/71/18 95/67/18 98/70/18
f 98/70/18 95/67/18 99/69/18
f 99/69/18 95/67/18 100/66/18
f 101/121/16 95/120/16 93/119/16
f 95/120/16 101/121/16 102/122/16
f 101/125/15 94/124/15 103/123/15
f 94/124/15 101/125/15 93/126/15
f 104/69/17 101/67/17 103/66/17
f 101/67/17 104/69/17 102/63/17
f 102/63/17 104/69/17 105/70/17
f 102/63/17 105/70/17 106/71/17
f 102/63/17 106/71/17 107/72/17
f 102/63/17 107/72/17 108/61/17
f 95/129/14 108/128/14 100/127/14
f 108/128/14 95/129/14 102/130/14
f 104/133/1 94/132/1 96/131/1
f 94/132/1 104/133/1 103/134/1
f 108/137/1 99/136/1 100/135/1
f 99/136/1 108/137/1 107/138/1
f 106/141/1 97/140/1 98/139/1
f 97/140/1 106/141/1 105/142/1
f 111/105/15 110/104/15 109/103/15
f 110/104/15 111/105/15 112/106/15
f 113/69/17 111/67/17 109/66/17
f 111/67/17 113/69/17 114/63/17
f 114/63/17 113/69/17 115/70/17
f 114/63/17 115/70/17 116/71/17
f 114/63/17 116/71/17 117/72/17
f 114/63/17 117/72/17 118/61/17
f 120/101/14 118/100/14 119/99/14
f 118/100/14 120/101/14 114/102/14
f 111/108/16 120/113/16 112/110/16
f 120/113/16 111/108/16 114/111/16
f 120/67/18 110/61/18 112/63/18
f 110/61/18 120/67/18 121/72/18
f 121/72/18 120/67/18 122/71/18
f 122/71/18 120/67/18 123/70/18
f 123/70/18 120/67/18 124/69/18
f 124/69/18 120/67/18 119/66/18
f 113/144/1 110/97/1 121/143/1
f 110/97/1 113/144/1 109/95/1
f 118/96/1 124/145/1 119/98/1
f 124/145/1 118/96/1 117/146/1
f 116/149/1 122/148/1 123/147/1
f 122/148/1 116/149/1 115/150/1
f 127/69/17 126/67/17 125/66/17
f 126/67/17 127/69/17 128/63/17
f 128/63/17 127/69/17 129/70/17
f 128/63/17 129/70/17 130/71/17
f 128/63/17 130/71/17 131/72/17
f 128/63/17 131/72/17 132/61/17
f 126/80/16 134/152/16 133/151/16
f 134/152/16 126/80/16 128/85/16
f 126/74/15 24/68/13 125/73/15
f 24/68/13 126/74/15 25/66/12
f 25/66/12 126/74/15 133/67/15
f 134/63/14 6/62/4 5/61/3
f 6/62/4 134/63/14 132/64/14
f 132/64/14 134/63/14 128/65/14
f 134/67/18 25/61/7 133/63/18
f 25/61/7 134/67/18 27/62/6
f 27/62/6 134/67/18 135/72/18
f 135/72/18 134/67/18 136/71/18
f 136/71/18 134/67/18 137/70/18
f 137/70/18 134/67/18 138/69/18
f 138/69/18 134/67/18 7/68/6
f 7/68/6 134/67/18 5/66/7
f 127/155/1 27/154/1 135/153/1
f 27/154/1 127/155/1 139/156/1
f 139/156/1 127/155/1 24/157/1
f 24/157/1 127/155/1 125/75/1
f 132/76/1 140/159/1 6/158/1
f 131/160/1 140/159/1 132/76/1
f 138/161/1 140/159/1 131/160/1
f 140/159/1 138/161/1 7/162/1
f 137/165/1 129/164/1 136/163/1
f 129/164/1 137/165/1 130/166/1
f 143/132/16 142/137/16 141/134/16
f 142/137/16 143/132/16 144/135/16
f 143/129/15 146/128/15 145/127/15
f 146/128/15 143/129/15 141/130/15
f 147/69/17 143/67/17 145/66/17
f 143/67/17 147/69/17 144/63/17
f 144/63/17 147/69/17 148/70/17
f 144/63/17 148/70/17 149/71/17
f 144/63/17 149/71/17 150/72/17
f 144/63/17 150/72/17 151/61/17
f 142/125/14 151/124/14 152/123/14
f 151/124/14 142/125/14 144/126/14
f 142/67/18 146/61/18 141/63/18
f 146/61/18 142/67/18 153/72/18
f 153/72/18 142/67/18 154/71/18
f 154/71/18 142/67/18 155/70/18
f 155/70/18 142/67/18 156/69/18
f 156/69/18 142/67/18 152/66/18
f 147/168/1 146/121/1 153/167/1
f 146/121/1 147/168/1 145/119/1
f 151/120/1 156/169/1 152/122/1
f 156/169/1 151/120/1 150/170/1
f 149/173/1 154/172/1 155/171/1
f 154/172/1 149/173/1 148/174/1
f 4/177/8 51/176/8 140/175/8
f 51/176/8 4/177/8 3/178/8
f 140/175/8 51/176/8 53/179/8
f 51/176/8 3/178/8 29/180/8
f 53/179/8 6/181/8 140/175/8
f 29/180/8 3/178/8 6/181/8
f 6/181/8 53/179/8 31/182/8
f 6/181/8 31/182/8 29/180/8
f 60/185/11 140/184/11 44/183/11
f 44/183/11 140/184/11 42/186/11
f 60/185/11 4/187/11 140/184/11
f 7/188/11 42/186/11 140/184/11
f 4/187/11 60/185/11 2/189/11
f 7/188/11 58/190/11 42/186/11
f 2/189/11 58/190/11 7/188/11
f 58/190/11 2/189/11 60/185/11
f 14/187/2 55/185/2 10/189/2
f 55/185/2 14/187/2 75/184/2
f 10/189/2 55/185/2 49/190/2
f 55/185/2 75/184/2 45/183/2
f 49/190/2 11/188/2 10/189/2
f 11/188/2 45/183/2 75/184/2
f 11/188/2 49/190/2 47/186/2
f 11/188/2 47/186/2 45/183/2
f 36/182/5 75/175/5 40/179/5
f 40/179/5 75/175/5 38/176/5
f 75/175/5 36/182/5 13/181/5
f 14/177/5 38/176/5 75/175/5
f 35/180/5 13/181/5 36/182/5
f 14/177/5 35/180/5 38/176/5
f 35/180/5 12/178/5 13/181/5
f 12/178/5 35/180/5 14/177/5
f 18/178/11 50/180/11 16/177/11
f 50/180/11 18/178/11 21/181/11
f 56/176/11 16/177/11 50/180/11
f 50/180/11 21/181/11 48/182/11
f 16/177/11 56/176/11 76/175/11
f 48/182/11 21/181/11 46/179/11
f 76/175/11 56/176/11 46/179/11
f 76/175/11 46/179/11 21/181/11
f 54/183/5 19/188/5 32/186/5
f 32/186/5 19/188/5 30/190/5
f 19/188/5 54/183/5 76/184/5
f 15/189/5 30/190/5 19/188/5
f 52/185/5 76/184/5 54/183/5
f 15/189/5 52/185/5 30/190/5
f 52/185/5 16/187/5 76/184/5
f 16/187/5 52/185/5 15/189/5
f 139/184/8 34/186/8 39/183/8
f 139/184/8 39/183/8 37/185/8
f 34/186/8 139/184/8 24/188/8
f 37/185/8 28/187/8 139/184/8
f 24/188/8 33/190/8 34/186/8
f 33/190/8 28/187/8 37/185/8
f 22/189/8 33/190/8 24/188/8
f 33/190/8 22/189/8 28/187/8
f 26/178/2 57/180/2 28/177/2
f 57/180/2 26/178/2 27/181/2
f 28/177/2 57/180/2 59/176/2
f 57/180/2 27/181/2 41/182/2
f 59/176/2 139/175/2 28/177/2
f 139/175/2 41/182/2 27/181/2
f 139/175/2 59/176/2 43/179/2
f 139/175/2 43/179/2 41/182/2

usemtl woodDark

f 159/94/1 158/153/1 157/163/1
f 158/153/1 159/94/1 160/81/1
f 89/144/16 129/92/16 127/79/16
f 129/92/16 89/144/16 90/150/16
f 136/71/18 158/191/18 135/72/18
f 158/191/18 136/71/18 157/192/18
f 65/61/15 158/194/15 160/193/15
f 158/194/15 65/61/15 135/66/15
f 135/66/15 65/61/15 71/64/15
f 135/66/15 71/64/15 113/103/15
f 135/66/15 113/103/15 121/104/15
f 135/66/15 121/104/15 147/127/15
f 135/66/15 147/127/15 153/128/15
f 135/66/15 153/128/15 104/123/15
f 135/66/15 104/123/15 96/124/15
f 135/66/15 96/124/15 83/99/15
f 135/66/15 83/99/15 89/100/15
f 135/66/15 89/100/15 127/73/15
f 159/196/17 65/69/17 160/195/17
f 65/69/17 159/196/17 66/70/17
f 136/61/14 159/194/14 157/193/14
f 159/194/14 136/61/14 66/66/14
f 66/66/14 136/61/14 129/64/14
f 66/66/14 129/64/14 90/103/14
f 66/66/14 90/103/14 84/104/14
f 66/66/14 84/104/14 97/127/14
f 66/66/14 97/127/14 105/128/14
f 66/66/14 105/128/14 154/123/14
f 66/66/14 154/123/14 148/124/14
f 66/66/14 148/124/14 122/99/14
f 66/66/14 122/99/14 115/100/14
f 66/66/14 115/100/14 72/73/14
f 162/191/17 67/71/17 161/192/17
f 67/71/17 162/191/17 68/72/17
f 67/61/15 163/194/15 161/193/15
f 163/194/15 67/61/15 137/66/15
f 137/66/15 67/61/15 73/64/15
f 137/66/15 73/64/15 116/103/15
f 137/66/15 116/103/15 123/104/15
f 137/66/15 123/104/15 149/127/15
f 137/66/15 149/127/15 155/128/15
f 137/66/15 155/128/15 106/123/15
f 137/66/15 106/123/15 98/124/15
f 137/66/15 98/124/15 85/99/15
f 137/66/15 85/99/15 91/100/15
f 137/66/15 91/100/15 130/73/15
f 138/61/14 162/194/14 164/193/14
f 162/194/14 138/61/14 68/66/14
f 68/66/14 138/61/14 131/64/14
f 68/66/14 131/64/14 92/103/14
f 68/66/14 92/103/14 86/104/14
f 68/66/14 86/104/14 99/127/14
f 68/66/14 99/127/14 107/128/14
f 68/66/14 107/128/14 156/123/14
f 68/66/14 156/123/14 150/124/14
f 68/66/14 150/124/14 124/99/14
f 68/66/14 124/99/14 117/100/14
f 68/66/14 117/100/14 74/73/14
f 162/89/1 163/165/1 164/161/1
f 163/165/1 162/89/1 161/93/1
f 138/69/18 163/196/18 137/70/18
f 163/196/18 138/69/18 164/195/18
f 73/166/16 117/112/16 116/115/16
f 117/112/16 73/166/16 74/160/16
f 91/149/16 131/86/16 130/91/16
f 131/86/16 91/149/16 92/146/16
f 96/168/16 84/148/16 83/143/16
f 84/148/16 96/168/16 97/174/16
f 121/109/16 148/140/16 147/131/16
f 148/140/16 121/109/16 122/118/16
f 98/173/16 86/145/16 85/147/16
f 86/145/16 98/173/16 99/170/16
f 71/155/16 115/116/16 113/107/16
f 115/116/16 71/155/16 72/164/16
f 123/117/16 150/136/16 149/139/16
f 150/136/16 123/117/16 124/114/16
f 153/133/16 105/172/16 104/167/16
f 105/172/16 153/133/16 154/142/16
f 155/141/16 107/169/16 106/171/16
f 107/169/16 155/141/16 156/138/16

