# Created by Kenney (www.kenney.nl)

mtllib structure.mtl

g structure

v 0.2446525 0.5174668 0.2125675
v 0.2446525 0.5174668 0.2446525
v 0.2125675 0.5174668 0.2125675
v 0.2125675 0.5174668 0.2446525
v 0.25 0 0.25
v 0.25 0 0.20722
v 0.20722 0 0.25
v 0.20722 0 0.20722
v -0.2125675 0.5174668 -0.2446525
v -0.2125675 0.5174668 -0.2125675
v -0.2446525 0.5174668 -0.2446525
v -0.2446525 0.5174668 -0.2125675
v -0.25 0 -0.25
v -0.25 0 -0.20722
v -0.20722 0 -0.25
v -0.20722 0 -0.20722
v -0.2125675 0.5174668 0.2125675
v -0.2125675 0.5174668 0.2446525
v -0.2446525 0.5174668 0.2125675
v -0.2446525 0.5174668 0.2446525
v -0.20722 0 0.25
v -0.20722 0 0.20722
v -0.25 0 0.25
v -0.25 0 0.20722
v 0.20722 0 -0.25
v 0.25 0 -0.25
v 0.2125675 0.5174668 -0.2446525
v 0.2446525 0.5174668 -0.2446525
v 0.25 0 -0.20722
v 0.2446525 0.5174668 -0.2125675
v 0.20722 0 -0.20722
v 0.2125675 0.5174668 -0.2125675
v 0.2112503 0.39 0.240235
v -0.2112503 0.39 0.240235
v 0.2114905 0.41325 0.240235
v -0.2114905 0.41325 0.240235
v 0.2112503 0.39 -0.240235
v 0.2114905 0.41325 -0.240235
v -0.2112503 0.39 -0.240235
v -0.2114905 0.41325 -0.240235
v 0.2112503 0.39 -0.216985
v -0.2112503 0.39 -0.216985
v 0.2114905 0.41325 -0.216985
v -0.2114905 0.41325 -0.216985
v 0.240235 0.41325 -0.2114905
v 0.240235 0.41325 0.2114905
v 0.216985 0.41325 -0.2114905
v 0.216985 0.41325 0.2114905
v -0.216985 0.41325 -0.2114905
v -0.216985 0.41325 0.2114905
v -0.240235 0.41325 -0.2114905
v -0.240235 0.41325 0.2114905
v -0.240235 0.39 -0.2112503
v -0.240235 0.39 0.2112503
v 0.2112503 0.39 0.216985
v -0.2112503 0.39 0.216985
v 0.2114905 0.41325 0.216985
v -0.2114905 0.41325 0.216985
v -0.216985 0.39 -0.2112503
v -0.216985 0.39 0.2112503
v 0.240235 0.39 -0.2112503
v 0.240235 0.39 0.2112503
v 0.216985 0.39 -0.2112503
v 0.216985 0.39 0.2112503

vn 0 1 0
vn 0 -1 0
vn 0 0.01033344 0.9999466
vn 0.9999466 0.01033344 0
vn -0.9999466 0.01033344 0
vn 0 0.01033344 -0.9999466
vn 0 0 1
vn 0 0 -1
vn -1 0 0
vn 1 0 0

vt -9.631989 8.368799
vt -9.631989 9.631989
vt -8.368799 8.368799
vt -8.368799 9.631989
vt 9.84252 9.84252
vt 9.84252 8.158268
vt 8.158268 9.84252
vt 8.158268 8.158268
vt 9.84252 -0.1017071
vt 8.158268 -0.1017071
vt 9.631989 20.27209
vt 8.368799 20.27209
vt -8.158268 -0.1017071
vt -9.84252 -0.1017071
vt -8.368799 20.27209
vt -9.631989 20.27209
vt 8.368799 -9.631989
vt 8.368799 -8.368799
vt 9.631989 -9.631989
vt 9.631989 -8.368799
vt -8.158268 -8.158268
vt -8.158268 -9.84252
vt -9.84252 -8.158268
vt -9.84252 -9.84252
vt 8.368799 8.368799
vt 8.368799 9.631989
vt 9.631989 8.368799
vt 9.631989 9.631989
vt -8.158268 9.84252
vt -8.158268 8.158268
vt -9.84252 9.84252
vt -9.84252 8.158268
vt 9.84252 -8.158268
vt 9.84252 -9.84252
vt 8.158268 -8.158268
vt 8.158268 -9.84252
vt -9.631989 -9.631989
vt -9.631989 -8.368799
vt -8.368799 -9.631989
vt -8.368799 -8.368799
vt 8.316939 15.35433
vt -8.316939 15.35433
vt 8.326399 16.26969
vt -8.326399 16.26969
vt -8.326399 -8.542716
vt 8.326399 -8.542716
vt -8.326399 -9.458071
vt 8.326399 -9.458071
vt -9.458071 -8.326399
vt -9.458071 8.326399
vt -8.542717 -8.326399
vt -8.542717 8.326399
vt 8.542716 -8.326399
vt 8.542716 8.326399
vt 9.458071 -8.326399
vt 9.458071 8.326399
vt 8.316939 -8.542716
vt 8.316939 -9.458071
vt -8.316939 -8.542716
vt -8.316939 -9.458071
vt 8.316939 9.458071
vt 8.316939 8.542717
vt -8.316939 9.458071
vt -8.316939 8.542717
vt -8.326399 9.458071
vt 8.326399 9.458071
vt -8.326399 8.542717
vt 8.326399 8.542717
vt -8.542716 -8.316939
vt -9.458071 -8.316939
vt -8.542716 8.316939
vt -9.458071 8.316939
vt 9.458071 -8.316939
vt 8.542717 -8.316939
vt 9.458071 8.316939
vt 8.542717 8.316939
vt 8.368799 20.4581
vt 8.542717 15.43945
vt 8.158268 0.08430299
vt 9.84252 0.08430299
vt 8.542717 16.35486
vt 9.458071 15.43945
vt 9.631989 20.4581
vt 9.458071 16.35486
vt -8.542717 16.35486
vt -8.368799 20.4581
vt -8.542717 15.43945
vt -9.458071 16.35486
vt -8.158268 0.08430299
vt -9.631989 20.4581
vt -9.84252 0.08430299
vt -9.458071 15.43945

usemtl wood

f 3/3/1 2/2/1 1/1/1
f 2/2/1 3/3/1 4/4/1
f 7/7/2 6/6/2 5/5/2
f 6/6/2 7/7/2 8/8/2
f 2/11/3 7/10/3 5/9/3
f 7/10/3 2/11/3 4/12/3
f 1/15/4 5/14/4 6/13/4
f 5/14/4 1/15/4 2/16/4
f 11/19/1 10/18/1 9/17/1
f 10/18/1 11/19/1 12/20/1
f 14/13/5 11/16/5 13/14/5
f 11/16/5 14/13/5 12/15/5
f 11/11/6 15/10/6 13/9/6
f 15/10/6 11/11/6 9/12/6
f 14/23/2 15/22/2 16/21/2
f 15/22/2 14/23/2 13/24/2
f 19/27/1 18/26/1 17/25/1
f 18/26/1 19/27/1 20/28/1
f 23/31/2 22/30/2 21/29/2
f 22/30/2 23/31/2 24/32/2
f 18/15/3 23/14/3 21/13/3
f 23/14/3 18/15/3 20/16/3
f 23/9/5 19/12/5 24/10/5
f 19/12/5 23/9/5 20/11/5
f 27/15/6 26/14/6 25/13/6
f 26/14/6 27/15/6 28/16/6
f 28/11/4 29/10/4 26/9/4
f 29/10/4 28/11/4 30/12/4
f 31/35/2 26/34/2 29/33/2
f 26/34/2 31/35/2 25/36/2
f 27/39/1 30/38/1 28/37/1
f 30/38/1 27/39/1 32/40/1
f 35/43/7 34/42/7 33/41/7
f 34/42/7 35/43/7 36/44/7
f 39/41/8 38/44/8 37/42/8
f 38/44/8 39/41/8 40/43/8
f 43/43/7 42/42/7 41/41/7
f 42/42/7 43/43/7 44/44/7
f 38/47/1 44/46/1 43/45/1
f 44/46/1 38/47/1 40/48/1
f 47/51/1 46/50/1 45/49/1
f 46/50/1 47/51/1 48/52/1
f 51/55/1 50/54/1 49/53/1
f 50/54/1 51/55/1 52/56/1
f 53/42/9 52/43/9 51/44/9
f 52/43/9 53/42/9 54/41/9
f 42/59/2 37/58/2 41/57/2
f 37/58/2 42/59/2 39/60/2
f 34/63/2 55/62/2 33/61/2
f 55/62/2 34/63/2 56/64/2
f 57/67/1 36/66/1 35/65/1
f 36/66/1 57/67/1 58/68/1
f 60/71/2 53/70/2 59/69/2
f 53/70/2 60/71/2 54/72/2
f 46/44/10 61/41/10 45/43/10
f 61/41/10 46/44/10 62/42/10
f 62/75/2 63/74/2 61/73/2
f 63/74/2 62/75/2 64/76/2
f 63/42/9 48/43/9 47/44/9
f 48/43/9 63/42/9 64/41/9
f 50/44/10 59/41/10 49/43/10
f 59/41/10 50/44/10 60/42/10
f 56/41/8 57/44/8 55/42/8
f 57/44/8 56/41/8 58/43/8
f 8/79/5 55/78/5 3/77/5
f 55/78/5 8/79/5 7/80/5
f 3/77/5 55/78/5 57/81/5
f 55/78/5 7/80/5 33/82/5
f 57/81/5 4/83/5 3/77/5
f 33/82/5 7/80/5 4/83/5
f 4/83/5 57/81/5 35/84/5
f 4/83/5 35/84/5 33/82/5
f 64/87/6 3/86/6 48/85/6
f 48/85/6 3/86/6 46/88/6
f 64/87/6 8/89/6 3/86/6
f 1/90/6 46/88/6 3/86/6
f 8/89/6 64/87/6 6/91/6
f 1/90/6 62/92/6 46/88/6
f 6/91/6 62/92/6 1/90/6
f 62/92/6 6/91/6 64/87/6
f 16/89/3 59/87/3 14/91/3
f 59/87/3 16/89/3 10/86/3
f 14/91/3 59/87/3 53/92/3
f 59/87/3 10/86/3 49/85/3
f 53/92/3 12/90/3 14/91/3
f 12/90/3 49/85/3 10/86/3
f 12/90/3 53/92/3 51/88/3
f 12/90/3 51/88/3 49/85/3
f 40/84/4 10/77/4 44/81/4
f 44/81/4 10/77/4 42/78/4
f 10/77/4 40/84/4 9/83/4
f 16/79/4 42/78/4 10/77/4
f 39/82/4 9/83/4 40/84/4
f 16/79/4 39/82/4 42/78/4
f 39/82/4 15/80/4 9/83/4
f 15/80/4 39/82/4 16/79/4
f 24/80/6 54/82/6 22/79/6
f 54/82/6 24/80/6 19/83/6
f 60/78/6 22/79/6 54/82/6
f 54/82/6 19/83/6 52/84/6
f 22/79/6 60/78/6 17/77/6
f 52/84/6 19/83/6 50/81/6
f 17/77/6 60/78/6 50/81/6
f 17/77/6 50/81/6 19/83/6
f 58/85/4 18/90/4 36/88/4
f 36/88/4 18/90/4 34/92/4
f 18/90/4 58/85/4 17/86/4
f 21/91/4 34/92/4 18/90/4
f 56/87/4 17/86/4 58/85/4
f 21/91/4 56/87/4 34/92/4
f 56/87/4 22/89/4 17/86/4
f 22/89/4 56/87/4 21/91/4
f 32/86/5 38/88/5 43/85/5
f 32/86/5 43/85/5 41/87/5
f 38/88/5 32/86/5 27/90/5
f 41/87/5 31/89/5 32/86/5
f 27/90/5 37/92/5 38/88/5
f 37/92/5 31/89/5 41/87/5
f 25/91/5 37/92/5 27/90/5
f 37/92/5 25/91/5 31/89/5
f 29/80/3 61/82/3 31/79/3
f 61/82/3 29/80/3 30/83/3
f 31/79/3 61/82/3 63/78/3
f 61/82/3 30/83/3 45/84/3
f 63/78/3 32/77/3 31/79/3
f 32/77/3 45/84/3 30/83/3
f 32/77/3 63/78/3 47/81/3
f 32/77/3 47/81/3 45/84/3

