# Created by Kenney (www.kenney.nl)

mtllib tent.mtl

g tent

v -0.09536267 0.2432599 -0.22675
v -0.09536268 0.2432599 0.22675
v -0.1149838 0.2557328 -0.22675
v -0.1149838 0.2557328 0.22675
v -0.1078356 0.2236387 -0.22675
v -0.1274567 0.2361117 -0.22675
v -0.1078356 0.2236387 0.22675
v -0.1274567 0.2361117 0.22675
v 0.011625 0.3932748 0.28117
v -0.011625 0.3932748 0.28117
v 0.011625 0.4165248 0.28117
v -0.011625 0.4165248 0.28117
v -0.011625 0.3932748 -0.28117
v 0.011625 0.3932748 -0.28117
v -0.011625 0.4165248 -0.28117
v 0.011625 0.4165248 -0.28117
v 0.1274567 0.2361117 0.22675
v 0.1274567 0.2361116 -0.22675
v 0.1078356 0.2236387 0.22675
v 0.1078356 0.2236387 -0.22675
v 0.1149838 0.2557328 0.22675
v 0.09536268 0.2432599 0.22675
v 0.1149838 0.2557328 -0.22675
v 0.09536267 0.2432599 -0.22675
v -0.25 0 -0.25
v -0.2696211 0.01247291 -0.25
v -0.25 6.239743E-11 -0.22675
v -0.2696211 0.01247291 -0.22675
v 0.03432881 0.4472774 -0.25
v 0.03432881 0.4472774 -0.22675
v 0.01470768 0.4597504 -0.25
v 0.01470768 0.4597504 -0.22675
v 4.764291E-10 0.3932748 -0.22675
v 0.011625 0.3932748 -0.22675
v 0.01377501 0.4149443 -0.22675
v 0.011625 0.4165248 -0.22675
v -0.011625 0.4165248 -0.22675
v 2.041334E-10 0.4366137 -0.22675
v -0.03432881 0.4472774 -0.22675
v -0.01470768 0.4597504 -0.22675
v -0.01377501 0.4149443 -0.22675
v -0.011625 0.3932748 -0.22675
v 2.165734E-14 0.3932748 -0.25
v -0.011625 0.3932748 -0.25
v -0.01377501 0.4149443 -0.25
v -0.011625 0.4165248 -0.25
v -0.03432881 0.4472774 -0.25
v 0.011625 0.4165248 -0.25
v 2.454499E-14 0.4366137 -0.25
v -0.01470768 0.4597504 -0.25
v 0.01377501 0.4149443 -0.25
v 0.011625 0.3932748 -0.25
v 0.2696211 0.01247291 -0.25
v 0.25 0 -0.25
v 0.03432881 0.4472774 0.22675
v 0.03432881 0.4472774 0.25
v 0.01470768 0.4597504 0.22675
v 0.01470768 0.4597504 0.25
v -0.25 0 0.25
v -0.25 -3.823508E-11 0.22675
v -0.2696211 0.01247291 0.25
v -0.2696211 0.01247291 0.22675
v 0.25 0 0.25
v -4.776455E-11 0.3932748 0.25
v 0.2696211 0.01247291 0.25
v 0.011625 0.3932748 0.25
v 0.01377501 0.4149443 0.25
v 0.011625 0.4165248 0.25
v -0.011625 0.4165248 0.25
v -6.01215E-11 0.4366137 0.25
v -0.03432881 0.4472774 0.25
v -0.01470768 0.4597504 0.25
v -0.01377501 0.4149443 0.25
v -0.011625 0.3932748 0.25
v -2.854683E-10 0.3932748 0.22675
v -0.011625 0.3932748 0.22675
v -0.01377501 0.4149443 0.22675
v -0.011625 0.4165248 0.22675
v -0.03432881 0.4472774 0.22675
v 0.011625 0.4165248 0.22675
v -1.566678E-10 0.4366137 0.22675
v -0.01470768 0.4597504 0.22675
v 0.01377501 0.4149443 0.22675
v 0.011625 0.3932748 0.22675
v 0.2696211 0.01247291 0.22675
v 0.25 -3.823428E-11 0.22675
v 0.2696211 0.01247291 -0.22675
v 0.25 6.239823E-11 -0.22675

vn 0.5364695 0.8439198 0
vn -0.5364695 -0.8439198 0
vn 0 0 1
vn 0 0 -1
vn 0.5364695 -0.8439198 0
vn -0.5364695 0.8439198 0
vn -0.8439198 -0.5364695 0
vn 0.8439198 0.5364695 0
vn 0.8439198 -0.5364695 0
vn -0.8439198 0.5364695 0
vn 1 0 0
vn -1 0 0
vn 0 -1 0
vn 0 1 0

vt 8.927165 8.306296
vt -8.927165 8.306296
vt 8.927165 9.221651
vt -8.927165 9.221651
vt 0.4576772 15.48326
vt -0.4576772 15.48326
vt 0.4576772 16.39861
vt -0.4576772 16.39861
vt -9.84252 8.306296
vt -9.84252 9.221651
vt 9.84252 8.306296
vt 9.84252 9.221651
vt 3.754436 9.57716
vt 1.633314E-08 15.48326
vt 4.526922 10.06822
vt 0.5423231 16.33639
vt 1.351528 17.60935
vt 5.612842E-09 17.18952
vt 0.5790424 18.10041
vt -1.351528 17.60935
vt -0.5790424 18.10041
vt -0.5423231 16.33639
vt -4.526922 10.06822
vt -3.754436 9.57716
vt 9.84252 -7.595493E-09
vt 1.155253E-09 15.48326
vt 10.61501 0.4910596
vt 1.155139E-09 17.18952
vt 0.5790425 18.10041
vt -10.61501 0.4910596
vt -9.84252 -7.595493E-09
vt -9.84252 3.36168E-08
vt -10.61501 0.4910597
vt -4.245496 8.804674
vt -5.017982 9.295734
vt 9.84252 2.203148E-09
vt -7.155361E-10 15.48326
vt -1.20203E-09 17.18952
vt -9.84252 2.203148E-09
vt 3.754436 9.57716
vt 8.881442E-09 15.48326
vt 4.526922 10.06822
vt 3.810554E-09 17.18952
vt -0.5790425 18.10041
vt -3.754436 9.57716
vt 9.84252 -3.125701E-08
vt 4.245496 8.804674
vt 10.61501 0.4910596
vt 5.017982 9.295734
vt 8.927165 14.07754
vt 8.927165 15.58593
vt 9.84252 14.07754
vt 9.84252 15.58593
vt -9.84252 -3.266502E-08
vt -10.61501 0.4910596
vt -9.84252 14.07754
vt -9.84252 15.58593
vt -8.927165 14.07754
vt -8.927165 15.58593
vt 9.84252 14.50657
vt 8.927165 14.50657
vt 9.84252 3.502487E-08
vt 10.61501 0.4910597
vt 5.017982 9.295733
vt 8.927165 -5.280211
vt 8.927165 5.15286
vt 9.84252 -5.280211
vt 9.84252 13.06663
vt 8.927165 13.06663
vt 8.927165 6.068214
vt -8.927165 5.15286
vt -8.927165 6.068214
vt -8.927165 -5.280211
vt -9.84252 13.06663
vt -8.927165 13.06663
vt -9.84252 -5.280211
vt 9.84252 -5.280211
vt 8.927165 -5.280211
vt -9.84252 -5.280211
vt -8.927165 -5.280211
vt 8.927165 13.49566
vt 9.84252 13.49566
vt -9.84252 13.49566
vt -8.927165 13.49566
vt -8.927165 14.50657
vt -9.84252 14.50657
vt 11.06968 16.39861
vt 11.06968 15.48326
vt 9.84252 16.39861
vt 9.84252 15.48326
vt 0.4576772 11.06969
vt 0.4576772 9.84252
vt -0.4576772 11.06969
vt -1.880458E-09 9.84252
vt -0.4576772 9.84252
vt -9.84252 16.39861
vt -9.84252 15.48326
vt -11.06968 16.39861
vt -11.06968 15.48326
vt -0.4576772 11.06968
vt 0.4576772 11.06968
vt 0.4576772 8.927165
vt 0.4576772 -8.927165
vt -1.123888E-08 8.927165
vt 1.875708E-08 -8.927165
vt -0.4576772 -8.927165
vt -0.4576772 8.927165
vt -8.927165 16.39861
vt 8.927165 16.39861
vt -8.927165 15.48326
vt 8.927165 15.48326
vt 0.4576772 -9.84252
vt 0.4576772 -11.06968
vt 8.525349E-13 -9.84252
vt -0.4576772 -11.06968
vt -0.4576772 -9.84252

usemtl wood

f 3/3/1 2/2/1 1/1/1
f 2/2/1 3/3/1 4/4/1
f 7/1/2 6/4/2 5/2/2
f 6/4/2 7/1/2 8/3/2
f 11/7/3 10/6/3 9/5/3
f 10/6/3 11/7/3 12/8/3
f 15/7/4 14/6/4 13/5/4
f 14/6/4 15/7/4 16/8/4
f 19/2/5 18/3/5 17/4/5
f 18/3/5 19/2/5 20/1/5
f 23/4/6 22/1/6 21/3/6
f 22/1/6 23/4/6 24/2/6
f 27/2/2 26/10/2 25/9/2
f 26/10/2 27/2/2 28/4/2
f 31/12/1 30/1/1 29/11/1
f 30/1/1 31/12/1 32/3/1
f 23/15/3 33/14/3 24/13/3
f 33/14/3 23/15/3 34/5/3
f 34/5/3 23/15/3 35/16/3
f 34/5/3 35/16/3 36/7/3
f 36/7/3 35/16/3 30/17/3
f 36/7/3 30/17/3 37/8/3
f 37/8/3 30/17/3 38/18/3
f 38/18/3 30/17/3 32/19/3
f 39/20/3 37/8/3 38/18/3
f 39/20/3 38/18/3 40/21/3
f 41/22/3 37/8/3 39/20/3
f 41/22/3 42/6/3 37/8/3
f 3/23/3 42/6/3 41/22/3
f 3/23/3 33/14/3 42/6/3
f 33/14/3 3/23/3 1/24/3
f 26/27/4 43/26/4 25/25/4
f 43/26/4 26/27/4 44/5/4
f 45/16/4 44/5/4 26/27/4
f 44/5/4 45/16/4 46/7/4
f 46/7/4 45/16/4 47/17/4
f 46/7/4 47/17/4 48/8/4
f 48/8/4 47/17/4 49/28/4
f 49/28/4 47/17/4 50/29/4
f 29/20/4 48/8/4 49/28/4
f 29/20/4 49/28/4 31/21/4
f 51/22/4 48/8/4 29/20/4
f 51/22/4 52/6/4 48/8/4
f 52/6/4 51/22/4 53/30/4
f 53/30/4 43/26/4 52/6/4
f 43/26/4 53/30/4 54/31/4
f 5/34/3 28/33/3 27/32/3
f 28/33/3 5/34/3 6/35/3
f 57/4/1 56/9/1 55/2/1
f 56/9/1 57/4/1 58/10/1
f 61/12/2 60/1/2 59/11/2
f 60/1/2 61/12/2 62/3/2
f 65/27/3 64/37/3 63/36/3
f 64/37/3 65/27/3 66/5/3
f 66/5/3 65/27/3 67/16/3
f 66/5/3 67/16/3 68/7/3
f 68/7/3 67/16/3 56/17/3
f 68/7/3 56/17/3 69/8/3
f 69/8/3 56/17/3 70/38/3
f 70/38/3 56/17/3 58/19/3
f 71/20/3 69/8/3 70/38/3
f 71/20/3 70/38/3 72/21/3
f 73/22/3 69/8/3 71/20/3
f 73/22/3 74/6/3 69/8/3
f 61/30/3 74/6/3 73/22/3
f 61/30/3 64/37/3 74/6/3
f 64/37/3 61/30/3 59/39/3
f 4/42/4 75/41/4 2/40/4
f 75/41/4 4/42/4 76/5/4
f 76/5/4 4/42/4 77/16/4
f 76/5/4 77/16/4 78/7/4
f 78/7/4 77/16/4 79/17/4
f 78/7/4 79/17/4 80/8/4
f 80/8/4 79/17/4 81/43/4
f 81/43/4 79/17/4 82/29/4
f 55/20/4 80/8/4 81/43/4
f 55/20/4 81/43/4 57/44/4
f 83/22/4 80/8/4 55/20/4
f 83/22/4 84/6/4 80/8/4
f 21/23/4 84/6/4 83/22/4
f 21/23/4 75/41/4 84/6/4
f 75/41/4 21/23/4 22/45/4
f 62/48/4 7/47/4 60/46/4
f 7/47/4 62/48/4 8/49/4
f 63/9/5 85/4/5 65/10/5
f 85/4/5 63/9/5 86/2/5
f 82/3/6 71/11/6 72/12/6
f 71/11/6 82/3/6 79/1/6
f 73/52/7 79/51/7 77/50/7
f 79/51/7 73/52/7 71/53/7
f 19/34/4 85/55/4 86/54/4
f 85/55/4 19/34/4 17/35/4
f 88/1/5 53/12/5 87/3/5
f 53/12/5 88/1/5 54/11/5
f 41/58/7 47/57/7 45/56/7
f 47/57/7 41/58/7 39/59/7
f 50/10/6 39/2/6 40/4/6
f 39/2/6 50/10/6 47/9/6
f 50/53/8 38/61/8 49/60/8
f 38/61/8 50/53/8 40/51/8
f 87/63/3 20/47/3 88/62/3
f 20/47/3 87/63/3 18/64/3
f 63/67/7 19/66/7 86/65/7
f 19/66/7 63/67/7 64/68/7
f 75/69/7 19/66/7 64/68/7
f 22/70/7 19/66/7 75/69/7
f 22/70/7 20/71/7 19/66/7
f 24/72/7 20/71/7 22/70/7
f 20/71/7 24/72/7 88/73/7
f 43/74/7 88/73/7 24/72/7
f 43/74/7 24/72/7 33/75/7
f 88/73/7 43/74/7 54/76/7
f 43/68/9 27/78/9 25/77/9
f 27/78/9 43/68/9 1/70/9
f 1/70/9 43/68/9 33/69/9
f 1/70/9 5/66/9 27/78/9
f 5/66/9 1/70/9 2/72/9
f 5/66/9 2/72/9 7/71/9
f 7/71/9 2/72/9 75/75/9
f 59/79/9 7/71/9 75/75/9
f 59/79/9 75/75/9 64/74/9
f 7/71/9 59/79/9 60/80/9
f 29/53/9 35/50/9 51/52/9
f 35/50/9 29/53/9 30/51/9
f 61/67/10 8/66/10 62/65/10
f 8/66/10 61/67/10 77/81/10
f 77/81/10 61/67/10 73/82/10
f 4/70/10 8/66/10 77/81/10
f 4/70/10 6/71/10 8/66/10
f 3/72/10 6/71/10 4/70/10
f 6/71/10 3/72/10 28/73/10
f 45/83/10 28/73/10 3/72/10
f 45/83/10 3/72/10 41/84/10
f 28/73/10 45/83/10 26/76/10
f 82/59/8 70/86/8 81/85/8
f 70/86/8 82/59/8 72/57/8
f 51/82/8 87/78/8 53/77/8
f 87/78/8 51/82/8 23/70/8
f 23/70/8 51/82/8 35/81/8
f 23/70/8 18/66/8 87/78/8
f 18/66/8 23/70/8 21/72/8
f 18/66/8 21/72/8 17/71/8
f 17/71/8 21/72/8 83/84/8
f 65/79/8 17/71/8 83/84/8
f 65/79/8 83/84/8 67/83/8
f 17/71/8 65/79/8 85/80/8
f 48/89/11 14/88/11 16/87/11
f 14/88/11 48/89/11 52/90/11
f 74/90/12 12/87/12 69/89/12
f 12/87/12 74/90/12 10/88/12
f 10/93/13 66/92/13 9/91/13
f 66/92/13 10/93/13 64/94/13
f 64/94/13 10/93/13 74/95/13
f 55/59/9 67/56/9 83/58/9
f 67/56/9 55/59/9 56/57/9
f 11/98/11 66/97/11 68/96/11
f 66/97/11 11/98/11 9/99/11
f 69/92/14 11/100/14 68/95/14
f 11/100/14 69/92/14 12/101/14
f 81/61/10 58/53/10 57/51/10
f 58/53/10 81/61/10 70/60/10
f 75/104/13 34/103/13 84/102/13
f 34/103/13 75/104/13 33/105/13
f 33/105/13 75/104/13 42/106/13
f 42/106/13 75/104/13 76/107/13
f 42/110/12 78/109/12 37/108/12
f 78/109/12 42/110/12 76/111/12
f 49/86/10 32/59/10 31/57/10
f 32/59/10 49/86/10 38/85/10
f 13/99/12 46/96/12 15/98/12
f 46/96/12 13/99/12 44/97/12
f 37/103/14 80/107/14 36/106/14
f 80/107/14 37/103/14 78/102/14
f 43/114/13 14/113/13 52/112/13
f 14/113/13 43/114/13 13/115/13
f 13/115/13 43/114/13 44/116/13
f 15/113/14 48/116/14 16/115/14
f 48/116/14 15/113/14 46/112/14
f 80/108/11 34/111/11 36/109/11
f 34/111/11 80/108/11 84/110/11

