# Created by Kenney (www.kenney.nl)

mtllib toolHoe.mtl

g toolHoe

v 0.0129 0 -0.0129
v 0.0129 0 0.0129
v 0.00915 0.2 -0.00915
v 0.00915 0.2 0.00915
v -0.0129 0 -0.0129
v -0.00915 0.2 -0.00915
v -0.0129 0 0.0129
v -0.00915 0.2 0.00915
v -0.04116938 0.231737 0.007200506
v -0.05523676 0.2251887 0.007200507
v -0.04116938 0.231737 -0.007200504
v -0.05523676 0.2251887 -0.007200502
v -0.06930414 0.2186405 0.0354635
v -0.05523676 0.2251887 0.0354635
v -0.05523676 0.2251887 -0.0354635
v -0.06930415 0.2186405 -0.0354635
v -0.0154635 0.208263 0.007200505
v -0.05523676 0.208263 0.007200508
v -0.0154635 0.231737 0.007200505
v -0.0154635 0.231737 -0.007200505
v 0.0154635 0.2 0.0154635
v -0.0154635 0.2 0.0154635
v 0.0154635 0.24 0.0154635
v -0.0154635 0.24 0.0154635
v 0.0154635 0.24 -0.0154635
v -0.0154635 0.24 -0.0154635
v 0.0154635 0.2 -0.0154635
v -0.0154635 0.2 -0.0154635
v -0.06930415 0.208263 -0.0354635
v -0.06930414 0.208263 0.0354635
v -0.05523676 0.208263 0.0354635
v -0.05523676 0.208263 -0.007200502
v -0.05523676 0.208263 -0.0354635
v -0.0154635 0.208263 -0.007200505

vn 0.9998243 0.01874671 0
vn 0 0.01874671 -0.9998243
vn 0 0.01874671 0.9998243
vn -0.9998243 0.01874671 0
vn 0 -1 0
vn -0.2161131 0.9763683 0
vn -0.422012 0.9065903 0
vn -0.2161131 0.9763683 0
vn -0.8432117 0.5375816 0
vn 0 0 1
vn 0 1 0
vn 1 0 0
vn 0 0 -1
vn -1 0 0

vt 0.507874 -0.009520965
vt -0.507874 -0.009520965
vt 0.3602362 7.865879
vt -0.3602362 7.865879
vt 0.507874 0.507874
vt 0.507874 -0.507874
vt -0.507874 0.507874
vt -0.507874 -0.507874
vt 0.2834845 2.380789
vt 0.2834845 1.769891
vt -0.2834845 2.380789
vt -0.2834844 1.769891
vt 1.396201 1.158994
vt 1.396201 1.769891
vt -1.396201 1.769891
vt -1.396201 1.158994
vt -0.6087992 8.19933
vt -2.174675 8.19933
vt -0.6087992 9.123504
vt -2.174675 8.865698
vt -1.620842 9.123504
vt 0.6087992 0.2834845
vt 1.620842 0.2834845
vt 0.6087992 -0.2834845
vt 1.620842 -0.2834844
vt 0.6087992 7.874016
vt -0.6087992 7.874016
vt 0.6087992 9.448819
vt -0.6087992 9.448819
vt -0.6087992 -0.6087992
vt -0.6087992 0.6087992
vt 0.6087992 -0.6087992
vt 0.6087992 0.6087992
vt -1.396201 8.607892
vt 1.396201 8.607892
vt -1.396201 8.19933
vt 1.396201 8.19933
vt -2.174675 1.396201
vt -2.174675 0.2834846
vt -2.728509 1.396201
vt -2.174675 -0.2834843
vt -2.174676 -1.396201
vt -2.72851 -1.396201
vt -0.6087992 -0.2834845
vt -0.6087992 0.2834845
vt 2.174675 8.19933
vt 0.6087992 8.19933
vt 2.174675 8.865698
vt 0.6087992 9.123504
vt 1.620842 9.123504
vt -0.2834843 8.865698
vt -0.2834843 8.19933
vt -1.396201 8.865698
vt 2.728509 8.19933
vt 2.728509 8.607892
vt -2.728509 8.19933
vt -2.728509 8.607892
vt 1.396201 8.865698
vt 0.2834845 8.865698
vt 0.2834845 8.19933
vt 0.3602362 0.3602362
vt 0.3602362 -0.3602362
vt -0.3602362 0.3602362
vt -0.3602362 -0.3602362
vt -0.2834845 8.19933
vt -0.2834845 9.123504
vt 0.2834845 8.19933
vt 0.2834845 9.123504

usemtl wood

f 3/3/1 2/2/1 1/1/1
f 2/2/1 3/3/1 4/4/1
f 6/3/2 1/2/2 5/1/2
f 1/2/2 6/3/2 3/4/2
f 4/3/3 7/2/3 2/1/3
f 7/2/3 4/3/3 8/4/3
f 7/1/4 6/4/4 5/2/4
f 6/4/4 7/1/4 8/3/4
f 7/7/5 1/6/5 2/5/5
f 1/6/5 7/7/5 5/8/5

usemtl metal

f 11/11/8 10/10/7 9/9/6
f 10/10/7 11/11/8 12/12/7
f 13/13/9 10/10/7 12/12/7
f 10/10/7 13/13/9 14/14/7
f 13/13/9 12/12/7 15/15/7
f 13/13/9 15/15/7 16/16/9
f 19/19/10 18/18/10 17/17/10
f 18/18/10 19/19/10 10/20/10
f 10/20/10 19/19/10 9/21/10
f 20/24/11 9/23/6 19/22/11
f 9/23/6 20/24/11 11/25/8
f 23/28/10 22/27/10 21/26/10
f 22/27/10 23/28/10 24/29/10
f 26/32/11 23/31/11 25/30/11
f 23/31/11 26/32/11 24/33/11
f 23/29/12 27/26/12 25/28/12
f 27/26/12 23/29/12 21/27/12
f 26/28/13 27/27/13 28/26/13
f 27/27/13 26/28/13 25/29/13
f 29/36/14 13/35/9 16/34/9
f 13/35/9 29/36/14 30/37/14
f 30/40/5 18/39/5 31/38/5
f 18/39/5 30/40/5 32/41/5
f 32/41/5 30/40/5 33/42/5
f 33/42/5 30/40/5 29/43/5
f 34/44/5 18/39/5 32/41/5
f 18/39/5 34/44/5 17/45/5
f 12/48/13 34/47/13 32/46/13
f 34/47/13 12/48/13 20/49/13
f 20/49/13 12/48/13 11/50/13
f 14/53/12 18/52/12 10/51/12
f 18/52/12 14/53/12 31/36/12
f 16/55/13 33/46/13 29/54/13
f 33/46/13 16/55/13 15/48/13
f 14/20/10 30/56/10 31/18/10
f 30/56/10 14/20/10 13/57/10
f 12/59/12 33/37/12 15/58/12
f 33/37/12 12/59/12 32/60/12
f 21/33/5 4/61/5 27/32/5
f 4/61/5 21/33/5 22/31/5
f 3/62/5 27/32/5 4/61/5
f 4/61/5 22/31/5 8/63/5
f 27/32/5 3/62/5 28/30/5
f 8/63/5 22/31/5 6/64/5
f 28/30/5 3/62/5 6/64/5
f 28/30/5 6/64/5 22/31/5
f 28/27/14 34/65/14 26/29/14
f 34/65/14 28/27/14 22/26/14
f 26/29/14 34/65/14 20/66/14
f 34/65/14 22/26/14 17/67/14
f 20/66/14 24/28/14 26/29/14
f 24/28/14 17/67/14 22/26/14
f 24/28/14 20/66/14 19/68/14
f 24/28/14 19/68/14 17/67/14

