# Created by Kenney (www.kenney.nl)

mtllib toolShovel.mtl

g toolShovel

v 0.01236713 0.06273579 -0.01236713
v 0.01236713 0.06273579 0.01236713
v 0.00915 0.2 -0.00915
v 0.00915 0.2 0.00915
v -0.01236713 0.06273579 -0.01236713
v -0.00915 0.2 -0.00915
v -0.01236713 0.06273579 0.01236713
v -0.00915 0.2 0.00915
v 0.0129 0.04 0.0129
v 0.0129 0.04 -0.0129
v -0.0129 0.04 0.0129
v -0.0129 0.04 -0.0129
v -0.0354635 0.2 -0.00915
v -0.0354635 0.2 0.0154635
v 0.0354635 0.2 0.0154635
v 0.0354635 0.2 -0.00915
v -0.0354635 0.2622416 -0.00915
v -0.0354635 0.2622416 0.0154635
v 0.0354635 0.2622416 0.0154635
v 0.02659762 0.2830604 0.0154635
v -0.02659762 0.2830604 0.0154635
v -1.082867E-15 0.29 0.0154635
v 0.0354635 0.2622416 -0.00915
v -0.00915 0.2063135 -0.0154635
v 0.00915 0.2063135 -0.0154635
v -0.00915 0.2236865 -0.0154635
v 0.00915 0.2236865 -0.0154635
v 0.02659762 0.2830604 -0.00915
v -1.082867E-15 0.29 -0.00915
v -0.02659762 0.2830604 -0.00915
v 0.01522989 -4.22995E-16 0.0129
v 0.01522989 -4.22995E-16 -0.0129
v -0.01522989 -1.887998E-10 0.0129
v -0.01522989 -1.887998E-10 -0.0129
v 0.02473247 0.03683247 0.0129
v -0.02473247 0.03683247 0.0129
v -0.01522989 0.02732988 0.0129
v -0.0279 0.02732988 0.0129
v -0.0279 0.01267011 0.0129
v 0.01522989 0.02732988 0.0129
v 0.0279 0.02732988 0.0129
v 0.0279 0.01267011 0.0129
v -0.01522989 0.01267011 0.0129
v 0.01522989 0.01267011 0.0129
v 0.02473247 0.003167529 0.0129
v -0.02473247 0.003167529 0.0129
v -0.0279 0.01267011 -0.0129
v -0.0279 0.02732988 -0.0129
v 0.0279 0.02732988 -0.0129
v 0.0279 0.01267011 -0.0129
v 0.01522989 0.01267011 -0.0129
v 0.01522989 0.02732988 -0.0129
v -0.01522989 0.01267011 -0.0129
v -0.01522989 0.02732988 -0.0129
v 0.02473247 0.03683247 -0.0129
v -0.02473247 0.03683247 -0.0129
v 0.02473247 0.003167529 -0.0129
v -0.02473247 0.003167529 -0.0129
v -0.00915 0.23 -0.00915
v 0.00915 0.23 -0.00915

vn 0.9997254 0.02343106 0
vn 0 0.02343106 -0.9997254
vn 0 0.02343106 0.9997254
vn -0.9997254 0.02343106 0
vn 0 -1 0
vn -1 0 0
vn 0 0 1
vn 1 0 0
vn 0 -0.3826834 -0.9238795
vn 0 0.3826834 -0.9238795
vn 0.6531295 0.7572463 0
vn 0.9200463 0.3918097 0
vn 0 1 0
vn -0.6531295 0.7572463 0
vn -0.9200463 0.3918097 0
vn -0.7071068 0.7071068 0
vn -0.7071068 -0.7071068 0
vn 0.7071068 0.7071068 0
vn 0.7071068 -0.7071068 0
vn 0 0 -1
vn -0.2585926 0.9659864 0
vn -0.6855111 0.7280622 0
vn -0.9486833 0.3162278 0
vn -0.9486833 -0.3162278 0
vn -0.3162278 -0.9486833 0
vn 0.6855111 0.7280622 0
vn 0.9486833 0.3162278 0
vn 0.2585926 0.9659864 0
vn 0.3162278 -0.9486833 0
vn 0.9486833 -0.3162278 0
vn 0 0.7071068 -0.7071068
vn 0 -0.7071068 -0.7071068

vt 0.4868949 2.457826
vt -0.4868949 2.457826
vt 0.3602362 7.863413
vt -0.3602362 7.863413
vt 0.507874 0.507874
vt 0.507874 -0.507874
vt -0.507874 0.507874
vt -0.507874 -0.507874
vt -1.396201 -0.3602362
vt -1.396201 0.6087992
vt -0.3602362 -0.3602362
vt -0.3602362 0.3602362
vt 0.3602362 0.3602362
vt 1.396201 0.6087992
vt 1.396201 -0.3602362
vt 0.3602362 -0.3602362
vt -0.3602362 7.874016
vt -0.3602362 10.32447
vt 0.6087992 7.874016
vt 0.6087992 10.32447
vt 1.396201 7.874016
vt -1.396201 7.874016
vt 1.396201 10.32447
vt -1.396201 10.32447
vt 1.047151 11.14411
vt -1.047151 11.14411
vt -4.263256E-14 11.41732
vt 0.3602362 10.32447
vt 0.3602362 7.874016
vt -0.6087992 10.32447
vt -0.6087992 7.874016
vt 0.3602362 8.122579
vt -0.3602362 8.122579
vt 0.3602362 8.806555
vt -0.3602362 8.806555
vt 0.3602362 9.842813
vt 0.3602362 8.951946
vt -0.6087992 9.842813
vt -0.6087992 8.951946
vt 0.3602362 1.800203
vt -0.6087992 1.800203
vt 0.3602362 2.882409
vt -0.6087992 2.882409
vt -0.3602362 2.882409
vt 0.6087992 2.882409
vt -0.3602362 1.800203
vt 0.6087992 1.800203
vt -0.3602362 8.951946
vt -0.3602362 9.842813
vt 0.6087992 8.951946
vt 0.6087992 9.842813
vt 0.5996018 0.507874
vt 0.5996018 -0.507874
vt -0.5996018 0.507874
vt -0.5996018 -0.507874
vt 0.507874 1.574803
vt 0.9737194 1.450097
vt -0.507874 1.574803
vt -0.9737194 1.450097
vt -0.5996018 1.07598
vt -1.098425 1.07598
vt -1.098425 0.4988234
vt 0.5996018 1.07598
vt 1.098425 1.07598
vt 1.098425 0.4988234
vt -0.5996018 0.4988234
vt 0.5996018 0.4988234
vt 0.9737194 0.1247059
vt -0.9737194 0.1247059
vt 0.5996018 -1.815575E-14
vt -0.5996018 -7.433065E-09
vt -0.507874 0.4988234
vt -0.507874 1.07598
vt 0.507874 0.4988234
vt 0.507874 1.07598
vt 0.507874 1.07598
vt 0.507874 0.4988234
vt -0.507874 1.07598
vt -0.507874 0.4988234
vt -0.507874 1.562471
vt 0.507874 1.562471
vt -0.5996018 -1.665335E-14
vt 0.5996018 -7.433063E-09
vt -0.507874 -0.08336695
vt 0.507874 -0.08336695
vt -0.507874 -0.5656152
vt 0.507874 -0.5656152
vt -0.507874 0.6734114
vt -0.507874 1.067766
vt 0.507874 0.6734114
vt 0.507874 1.067766
vt -0.507874 0.4262234
vt -0.507874 0.820578
vt 0.507874 0.4262234
vt 0.507874 0.820578
vt 0.507874 0.5688322
vt -0.507874 0.5688322
vt 0.507874 0.9631867
vt -0.507874 0.9631867
vt 0.507874 0.6734115
vt -0.507874 0.6734115
vt 0.507874 -0.08336695
vt -0.507874 -0.08336695
vt 0.507874 0.4262235
vt -0.507874 0.4262235
vt 0.3602362 9.055119
vt -0.3602362 9.055119
vt 4.263256E-14 11.41732
vt 0.6087992 8.806555
vt 0.6087992 8.122579
vt -0.6087992 8.122579
vt -0.6087992 8.806555
vt 0.3602362 5.796689
vt -0.3602362 5.796689
vt 0.3602362 6.14821
vt -0.3602362 6.14821
vt -0.3602362 5.822495
vt -0.3602362 6.174016
vt 0.3602362 5.822495
vt 0.3602362 6.174016

usemtl wood

f 3/3/1 2/2/1 1/1/1
f 2/2/1 3/3/1 4/4/1
f 6/3/2 1/2/2 5/1/2
f 1/2/2 6/3/2 3/4/2
f 4/3/3 7/2/3 2/1/3
f 7/2/3 4/3/3 8/4/3
f 7/1/4 6/4/4 5/2/4
f 6/4/4 7/1/4 8/3/4
f 11/7/5 10/6/5 9/5/5
f 10/6/5 11/7/5 12/8/5

usemtl metal

f 6/11/5 14/10/5 13/9/5
f 8/12/5 14/10/5 6/11/5
f 4/13/5 14/10/5 8/12/5
f 4/13/5 15/14/5 14/10/5
f 15/14/5 4/13/5 16/15/5
f 3/16/5 16/15/5 4/13/5
f 14/19/6 17/18/6 13/17/6
f 17/18/6 14/19/6 18/20/6
f 19/23/7 14/22/7 15/21/7
f 14/22/7 19/23/7 18/24/7
f 18/24/7 19/23/7 20/25/7
f 18/24/7 20/25/7 21/26/7
f 21/26/7 20/25/7 22/27/7
f 19/30/8 16/29/8 23/28/8
f 16/29/8 19/30/8 15/31/8
f 26/34/10 25/33/9 24/32/9
f 25/33/9 26/34/10 27/35/10
f 20/38/11 23/37/12 28/36/11
f 23/37/12 20/38/11 19/39/12
f 29/42/13 20/41/11 28/40/11
f 20/41/11 29/42/13 22/43/13
f 30/46/14 22/45/13 29/44/13
f 22/45/13 30/46/14 21/47/14
f 18/50/15 30/49/14 17/48/15
f 30/49/14 18/50/15 21/51/14
f 33/54/5 32/53/5 31/52/5
f 32/53/5 33/54/5 34/55/5
f 11/58/7 35/57/7 9/56/7
f 36/59/7 35/57/7 11/58/7
f 37/60/7 35/57/7 36/59/7
f 38/61/7 37/60/7 36/59/7
f 39/62/7 37/60/7 38/61/7
f 40/63/7 35/57/7 37/60/7
f 40/63/7 41/64/7 35/57/7
f 40/63/7 42/65/7 41/64/7
f 39/62/7 43/66/7 37/60/7
f 44/67/7 42/65/7 40/63/7
f 39/62/7 44/67/7 43/66/7
f 42/65/7 44/67/7 45/68/7
f 39/62/7 45/68/7 44/67/7
f 46/69/7 45/68/7 39/62/7
f 46/69/7 31/70/7 45/68/7
f 31/70/7 46/69/7 33/71/7
f 39/74/6 48/73/6 47/72/6
f 48/73/6 39/74/6 38/75/6
f 41/78/8 50/77/8 49/76/8
f 50/77/8 41/78/8 42/79/8
f 44/77/16 52/78/17 51/79/16
f 52/78/17 44/77/16 40/76/17
f 53/53/18 44/54/16 51/55/16
f 44/54/16 53/53/18 43/52/18
f 37/78/19 53/77/18 54/76/19
f 53/77/18 37/78/19 43/79/18
f 37/54/19 52/53/17 40/52/17
f 52/53/17 37/54/19 54/55/19
f 11/81/4 5/2/4 12/80/4
f 5/2/4 11/81/4 7/1/4
f 2/1/3 11/80/3 9/81/3
f 11/80/3 2/1/3 7/2/3
f 1/1/1 9/80/1 10/81/1
f 9/80/1 1/1/1 2/2/1
f 5/1/2 10/80/2 12/81/2
f 10/80/2 5/1/2 1/2/2
f 55/59/20 12/56/20 10/58/20
f 55/59/20 56/57/20 12/56/20
f 49/61/20 56/57/20 55/59/20
f 52/60/20 56/57/20 49/61/20
f 50/62/20 52/60/20 49/61/20
f 54/63/20 56/57/20 52/60/20
f 54/63/20 48/64/20 56/57/20
f 53/67/20 48/64/20 54/63/20
f 50/62/20 51/66/20 52/60/20
f 48/64/20 53/67/20 47/65/20
f 51/66/20 47/65/20 53/67/20
f 57/69/20 51/66/20 50/62/20
f 57/69/20 47/65/20 51/66/20
f 57/69/20 58/68/20 47/65/20
f 32/82/20 58/68/20 57/69/20
f 58/68/20 32/82/20 34/83/20
f 56/86/22 11/85/21 12/84/21
f 11/85/21 56/86/22 36/87/22
f 38/90/23 56/89/22 48/88/23
f 56/89/22 38/90/23 36/91/22
f 46/94/17 47/93/24 58/92/17
f 47/93/24 46/94/17 39/95/24
f 46/98/17 34/97/25 33/96/25
f 34/97/25 46/98/17 58/99/17
f 35/89/26 49/100/27 55/91/26
f 49/100/27 35/89/26 41/101/27
f 10/102/28 35/86/26 55/87/26
f 35/86/26 10/102/28 9/103/28
f 31/97/29 57/98/19 45/99/19
f 57/98/19 31/97/29 32/96/29
f 42/93/30 57/104/19 50/95/30
f 57/104/19 42/93/30 45/105/19
f 17/23/20 6/29/20 13/21/20
f 6/29/20 17/23/20 59/106/20
f 59/106/20 17/23/20 60/107/20
f 23/24/20 60/107/20 17/23/20
f 23/24/20 17/23/20 30/25/20
f 16/22/20 60/107/20 23/24/20
f 60/107/20 16/22/20 3/17/20
f 23/24/20 30/25/20 28/26/20
f 28/26/20 30/25/20 29/108/20
f 60/106/8 25/110/8 27/109/8
f 25/110/8 60/106/8 3/29/8
f 6/17/6 26/112/6 24/111/6
f 26/112/6 6/17/6 59/107/6
f 59/115/31 27/114/10 26/113/10
f 27/114/10 59/115/31 60/116/31
f 6/119/32 25/118/9 3/117/32
f 25/118/9 6/119/32 24/120/9

usemtl _defaultMat

f 5/80/13 2/1/13 1/2/13
f 2/80/13 5/1/13 7/2/13

