# Created by Kenney (www.kenney.nl)

mtllib treeFall.mtl

g treeFall

v 0.1196695 0.4289249 0.2156707
v -0.1293656 0.4289249 0.2156707
v 0.06861784 0.7163079 0.1272466
v -0.07831387 0.7163079 0.1272466
v 0.1021107 0.6434196 -0.1852578
v 0.1897817 0.6798638 -0.1123695
v -0.00484802 0.6798638 -0.224739
v -0.00484802 0.7163079 -0.2024676
v 0.1704941 0.7163079 -0.1012338
v 0.1704941 0.7163079 0.1012338
v 0.07549566 1.025058 -0.04638644
v 0.07549566 1.025058 0.04638644
v 0.1021107 0.6434196 0.1852578
v -0.004848014 0.6798638 0.224739
v 0.1897817 0.6798638 0.1123695
v -0.004848014 0.7163079 0.2024676
v -0.004848018 1.025058 -0.09277289
v -0.1994777 0.6798638 -0.1123695
v -0.1801901 0.7163079 -0.1012338
v -0.2187653 0.6434196 -1.179532E-09
v -0.1801901 0.7163079 0.1012338
v -0.1994777 0.6798638 0.1123695
v -0.1118067 0.6434196 0.1852578
v -0.004848015 1.025058 0.09277288
v -0.08519169 1.025058 -0.04638644
v -0.08519169 1.025058 0.04638644
v -0.07664504 1.025058 -0.1243561
v 0.06694899 1.025058 -0.1243561
v -0.02135035 1.348904 -0.02858288
v 0.01165431 1.348904 -0.02858288
v 0.138746 1.025058 -2.747337E-09
v 0.02815665 1.348904 -1.099284E-09
v 0.01165432 1.348904 0.02858287
v -0.02135035 1.348904 0.02858287
v -0.03785268 1.348904 -1.155838E-10
v 0.066949 1.025058 0.1243561
v -0.004848018 0.9733638 -0.1517144
v 0.07484667 0.9992106 -0.1380353
v -0.08454271 0.9992106 -0.1380353
v -0.148442 1.025058 1.532468E-09
v -0.004848015 0.3392722 0.2631183
v -0.1430625 0.3840986 0.2393945
v 0.1333665 0.3840986 0.2393945
v 0.1333665 0.3840986 -0.2393945
v 0.2230191 0.3392722 -0.1315591
v 0.1196695 0.4289249 -0.2156707
v 0.2441871 0.4289249 -5.566778E-09
v 0.271581 0.3840986 -5.975036E-09
v -0.07664503 1.025058 0.1243561
v -0.004848015 0.9733638 0.1517144
v -0.0845427 0.9992106 0.1380353
v 0.07484667 0.9992106 0.1380353
v 0.1265405 0.9733638 -0.07585721
v 0.1545414 0.9992106 -2.982726E-09
v -0.1118067 0.6434196 -0.1852578
v 0.1265405 0.9733638 0.07585721
v 0.2090693 0.6434196 -4.524326E-09
v -0.1430625 0.3840986 -0.2393945
v -0.1293656 0.4289249 -0.2156707
v -0.2327152 0.3392722 -0.1315591
v -0.2538832 0.4289249 1.856084E-09
v -0.281277 0.3840986 2.264341E-09
v -0.2327152 0.3392722 0.1315591
v 0.06861784 0.7163079 -0.1272466
v 0.1420837 0.7163079 -4.045106E-09
v -0.1642374 0.9992106 1.767857E-09
v -0.1362366 0.9733638 0.07585721
v 0.2230191 0.3392722 0.1315591
v -0.1362366 0.9733638 -0.07585721
v -0.00484802 0.3392722 -0.2631183
v -0.07831388 0.7163079 -0.1272466
v -0.1517797 0.7163079 3.344117E-10
v 0.03358568 0.4289249 0.03358568
v 0.03358568 0.4289249 -0.03358568
v -0.03358568 0.4289249 0.03358568
v -0.03358568 0.4289249 -0.03358568
v 0.07574766 0 0.07574766
v 0.07574766 0 -0.07574766
v -0.07574766 0 0.07574766
v -0.07574766 0 -0.07574766
v -0.04053672 0.104704 -0.04053672
v -0.04053672 0.104704 0.04053672
v 0.04053672 0.104704 0.04053672
v 0.04053672 0.104704 -0.04053672

vn 0.4711473 0.3347849 0.816051
vn -0.4711472 0.3347849 0.816051
vn 0.4419258 0.4677676 -0.7654379
vn 0.7389638 0.52145 -0.4266409
vn 0 0.52145 -0.8532819
vn 0 -0.52145 0.8532819
vn -0.7389638 -0.52145 0.4266409
vn -0.4419258 -0.4677676 0.7654379
vn 0.816051 0.3347849 -0.4711473
vn 0.816051 0.3347849 0.4711472
vn 0.4419257 0.4677676 0.7654378
vn 0 0.52145 0.8532819
vn 0.7389637 0.52145 0.4266409
vn -0.7389637 -0.52145 -0.4266409
vn 0 -0.52145 -0.8532819
vn -0.4419257 -0.4677676 -0.7654378
vn 0 0.3347849 -0.9422946
vn -0.7389638 0.52145 -0.4266409
vn -0.8838516 0.4677675 0
vn -0.7389638 0.52145 0.4266409
vn 0.8838516 -0.4677675 0
vn 0.7389638 -0.52145 0.4266409
vn 0.7389638 -0.52145 -0.4266409
vn -0.4419257 0.4677676 0.7654378
vn 0.4419257 -0.4677676 -0.7654378
vn 0 0.3347849 0.9422946
vn -0.816051 0.3347849 -0.4711472
vn -0.816051 0.3347849 0.4711473
vn -0.4731715 0.323164 -0.819557
vn 0.4731715 0.3231641 -0.8195571
vn -0.3415604 0.7303054 -0.5916
vn 0.3415604 0.7303054 -0.5916
vn 0.9463429 0.323164 0
vn 0.6831208 0.7303054 0
vn 0.3415604 0.7303054 0.5916
vn -0.3415604 0.7303054 0.5916
vn -0.6831208 0.7303054 0
vn 0.4731715 0.323164 0.819557
vn 0 0.4677676 -0.8838516
vn 0.4266409 0.52145 -0.7389638
vn -0.4266409 0.52145 -0.7389638
vn 0.4266409 -0.52145 0.7389638
vn -0.4266409 -0.52145 0.7389638
vn 0 -0.4677676 0.8838516
vn -0.9463429 0.323164 0
vn 0 0.4677676 0.8838515
vn -0.4266409 0.52145 0.7389637
vn 0.4266409 0.52145 0.7389637
vn -0.4266409 -0.52145 -0.7389637
vn 0.4266409 -0.52145 -0.7389637
vn 0 -0.4677676 -0.8838515
vn 0.7654378 0.4677676 -0.4419257
vn 0.8532819 0.52145 0
vn -0.7654378 -0.4677676 0.4419257
vn -0.8532819 -0.52145 0
vn -0.4731715 0.3231641 0.8195571
vn 0 0.4677676 0.8838516
vn -0.4266409 0.52145 0.7389638
vn 0.4266409 -0.52145 -0.7389638
vn 0 -0.4677676 -0.8838516
vn -0.4419257 0.4677676 -0.7654378
vn 0.4419257 -0.4677676 0.7654378
vn 0.7654378 0.4677676 0.4419257
vn -0.7654378 -0.4677676 -0.4419257
vn 0.8838516 0.4677676 0
vn -0.8838516 -0.4677676 0
vn -0.7654379 0.4677675 -0.4419258
vn -0.8532819 0.52145 0
vn 0.7654379 -0.4677675 0.4419258
vn 0.8532819 -0.52145 0
vn -0.7654378 0.4677676 0.4419257
vn 0.7654378 -0.4677676 -0.4419257
vn 0.4711472 0.3347849 -0.816051
vn 0.9422946 0.3347849 0
vn -0.7654379 0.4677676 0.4419258
vn 0.7654379 -0.4677676 -0.4419258
vn -0.7654378 0.4677676 -0.4419257
vn 0.7654378 -0.4677676 0.4419257
vn -0.4711473 0.3347849 -0.816051
vn -0.9422946 0.3347849 0
vn 0 -1 0
vn -0.982452 0.1865153 0
vn -0.9997702 0.02143431 0
vn 0 0.1865153 0.982452
vn 0 0.02143431 0.9997702
vn 0.982452 0.1865153 0
vn 0.9997702 0.02143431 0
vn 0 0.1865153 -0.982452
vn 0 0.02143431 -0.9997702
vn 0 0.3187491 -0.9478392
vn 0 0.3187491 0.9478392
vn 0.9478392 0.3187491 0
vn -0.9478392 0.3187491 0

vt 4.7114 13.64304
vt -5.093133 13.64304
vt 2.70149 25.48079
vt -3.083223 25.48079
vt 0.1652955 18.4944
vt -4.258701 20.11776
vt 4.589292 20.11776
vt 4.150878 21.74112
vt -3.820287 21.74112
vt 3.985583 24.98007
vt -3.985582 24.98007
vt 1.826238 37.69795
vt -1.826238 37.69795
vt -0.1652955 18.49439
vt -4.589292 20.11776
vt 4.258701 20.11776
vt 3.820287 21.74112
vt -4.150878 21.74112
vt 4.150878 24.95201
vt -3.820287 24.95201
vt 1.991533 37.66988
vt -1.660942 37.66988
vt -4.423996 19.98384
vt -3.985583 21.60719
vt -1.747883E-07 18.36047
vt 3.985582 21.60719
vt 4.423996 19.98384
vt -0.1652955 18.40511
vt -4.589292 20.02847
vt 4.258701 20.02847
vt 3.820287 21.65183
vt -4.150878 21.65183
vt 3.820287 24.95201
vt -4.150878 24.95201
vt 1.660942 37.66988
vt -1.991533 37.66988
vt 4.150878 24.89588
vt -3.820287 24.89588
vt 1.991533 37.61375
vt -1.660942 37.61375
vt 3.820287 24.89588
vt -4.150878 24.89588
vt 1.660942 37.61375
vt -1.991533 37.61375
vt 3.017521 37.31127
vt -2.635787 37.31127
vt 0.8405649 50.60699
vt -0.4588313 50.60699
vt 2.922088 37.35815
vt -2.731221 37.35815
vt 0.7451316 50.65387
vt -0.5542647 50.65387
vt -1.108529 -4.32789E-08
vt -0.4588313 1.12531
vt -0.4588313 -1.12531
vt 0.8405649 1.12531
vt 0.840565 -1.12531
vt 1.490263 -4.550543E-09
vt 2.731221 37.35815
vt -2.922088 37.35815
vt 0.5542647 50.65387
vt -0.7451315 50.65387
vt 0.1908668 31.07645
vt -2.946719 32.22777
vt 3.328453 32.22777
vt 3.017521 33.37909
vt -2.635787 33.37909
vt -2.731221 37.26439
vt -0.5542647 50.56011
vt 2.922088 37.26439
vt 0.7451315 50.56011
vt -0.1908669 6.96016
vt -5.632382 8.956893
vt 5.250649 8.956893
vt 4.7114 10.95363
vt -5.093133 10.95363
vt 5.536949 9.034214
vt 0.0954334 7.03748
vt 4.9977 11.03095
vt -4.806833 11.03095
vt -5.346082 9.034214
vt 2.635787 37.31127
vt -3.017521 37.31127
vt 0.4588313 50.60699
vt -0.8405649 50.60699
vt -0.1908668 31.07645
vt -3.328453 32.22777
vt 2.946719 32.22777
vt 2.635787 33.37909
vt -3.017521 33.37909
vt 3.23302 32.30509
vt 0.09543343 31.15377
vt 2.922088 33.45641
vt -2.731221 33.45641
vt -3.042153 32.30509
vt -3.985583 24.86781
vt -1.826238 37.58569
vt 3.985582 24.86781
vt 1.826238 37.58569
vt -0.7451316 50.56011
vt 0.5542647 50.56011
vt -2.922088 37.26439
vt 2.731221 37.26439
vt 0.1652955 18.40511
vt -4.258701 20.02847
vt 4.589292 20.02847
vt 4.150878 21.65183
vt -3.820287 21.65183
vt 3.042153 32.30509
vt -0.09543343 31.15377
vt 2.731221 33.45641
vt -2.922088 33.45641
vt -3.23302 32.30509
vt 4.423996 20.1624
vt 5.546169E-08 18.53904
vt 3.985583 21.78576
vt -3.985582 21.78576
vt -4.423996 20.1624
vt -5.346082 8.879574
vt -4.806833 10.87631
vt 0.09543318 6.882841
vt 4.9977 10.87631
vt 5.536949 8.879574
vt -4.9977 10.87631
vt 4.806833 10.87631
vt -5.536949 8.879574
vt -0.09543346 6.88284
vt 5.346082 8.879574
vt 4.9977 13.69165
vt -4.806833 13.69165
vt 2.98779 25.5294
vt -2.796923 25.5294
vt -2.922088 33.30177
vt 2.731221 33.30177
vt -3.23302 32.15045
vt -0.09543351 30.99913
vt 3.042153 32.15045
vt 5.346082 9.034213
vt -0.09543332 7.03748
vt 4.806833 11.03095
vt -4.9977 11.03095
vt -5.536949 9.034213
vt -3.042153 32.15045
vt -2.731221 33.30177
vt 0.09543338 30.99913
vt 2.922088 33.30177
vt 3.23302 32.15045
vt 0.1908668 6.96016
vt -5.250649 8.956894
vt 5.632382 8.956894
vt 5.093133 10.95363
vt -4.7114 10.95363
vt 5.093133 13.64304
vt -4.7114 13.64304
vt 3.083223 25.48079
vt -2.70149 25.48079
vt 4.806833 13.69165
vt -4.9977 13.69165
vt 2.796923 25.5294
vt -2.98779 25.5294
vt -2.98779 25.43218
vt 2.796923 25.43218
vt -4.9977 13.59443
vt 4.806833 13.59443
vt -4.806833 13.59443
vt -2.796923 25.43218
vt 4.9977 13.59443
vt 2.98779 25.43218
vt 9.613667 -2.191645E-07
vt 4.7114 -8.490974
vt 4.7114 8.490974
vt 1.322271 1.322271
vt -5.093133 8.490974
vt 1.322271 -1.322271
vt -1.322271 1.322271
vt -5.093133 -8.490974
vt -1.322271 -1.322271
vt -9.995399 7.307416E-08
vt 6.712365 -3.985583
vt 5.593847 -1.592561E-07
vt 6.712365 3.985582
vt 2.70149 -5.009709
vt 2.70149 5.009708
vt -0.1908669 -7.971165
vt -0.1908667 7.971165
vt -3.083224 -5.009709
vt -3.083223 5.009709
vt -7.094098 -3.985582
vt -7.094098 3.985583
vt -5.97558 1.316582E-08
vt 5.462441 -1.081629E-07
vt 2.97227 1.826238
vt 2.635787 4.895909
vt 2.97227 -1.826238
vt -0.1908668 3.652476
vt 2.635787 -4.895909
vt -3.017521 4.895909
vt -0.1908669 -3.652476
vt -3.354003 1.826238
vt -3.017521 -4.895909
vt -5.844175 6.033337E-08
vt -3.354004 -1.826238
vt 2.982191 2.982191
vt 2.982191 -2.982191
vt -2.982191 2.982191
vt -2.982191 -2.982191
vt -1.595934 4.08705
vt -1.322271 16.85459
vt 1.595934 4.08705
vt 1.322271 16.85459
vt 2.982191 -0.9505706
vt -2.982191 -0.9505706
vt 1.595934 3.398484
vt -1.595934 3.398484

usemtl foliageFall

f 3/3/1 2/2/2 1/1/1
f 2/2/2 3/3/1 4/4/2
f 7/7/5 6/6/4 5/5/3
f 6/6/4 7/7/5 8/8/5
f 6/6/4 8/8/5 9/9/4
f 5/5/8 6/6/7 7/7/6
f 8/8/6 7/7/6 6/6/7
f 9/9/7 8/8/6 6/6/7
f 11/12/9 10/11/10 9/10/9
f 10/11/10 11/12/9 12/13/10
f 15/16/13 14/15/12 13/14/11
f 14/15/12 15/16/13 10/17/13
f 14/15/12 10/17/13 16/18/12
f 13/14/16 14/15/15 15/16/14
f 10/17/14 15/16/14 14/15/15
f 16/18/15 10/17/14 14/15/15
f 17/21/17 9/20/9 8/19/17
f 9/20/9 17/21/17 11/22/9
f 20/25/19 19/24/18 18/23/18
f 19/24/18 20/25/19 21/26/20
f 21/26/20 20/25/19 22/27/20
f 18/23/22 19/24/22 20/25/21
f 21/26/23 20/25/21 19/24/22
f 22/27/23 20/25/21 21/26/23
f 14/30/12 22/29/20 23/28/24
f 22/29/20 14/30/12 16/31/12
f 22/29/20 16/31/12 21/32/20
f 23/28/25 22/29/23 14/30/15
f 16/31/15 14/30/15 22/29/23
f 21/32/23 16/31/15 22/29/23
f 12/35/10 16/34/26 10/33/10
f 16/34/26 12/35/10 24/36/26
f 25/39/27 8/38/17 19/37/27
f 8/38/17 25/39/27 17/40/17
f 24/43/26 21/42/28 16/41/26
f 21/42/28 24/43/26 26/44/28
f 29/47/31 28/46/30 27/45/29
f 28/46/30 29/47/31 30/48/32
f 30/51/32 31/50/33 28/49/30
f 31/50/33 30/51/32 32/52/34
f 30/55/32 33/54/35 32/53/34
f 33/54/35 30/55/32 34/56/36
f 34/56/36 30/55/32 29/57/31
f 34/56/36 29/57/31 35/58/37
f 32/61/34 36/60/38 31/59/33
f 36/60/38 32/61/34 33/62/35
f 39/65/41 38/64/40 37/63/39
f 38/64/40 39/65/41 27/66/41
f 38/64/40 27/66/41 28/67/40
f 37/63/44 38/64/43 39/65/42
f 27/66/42 39/65/42 38/64/43
f 28/67/43 27/66/42 38/64/43
f 40/70/45 29/69/31 27/68/29
f 29/69/31 40/70/45 35/71/37
f 43/74/48 42/73/47 41/72/46
f 42/73/47 43/74/48 1/75/48
f 42/73/47 1/75/48 2/76/47
f 41/72/51 42/73/50 43/74/49
f 1/75/49 43/74/49 42/73/50
f 2/76/50 1/75/49 42/73/50
f 46/79/40 45/78/52 44/77/40
f 45/78/52 46/79/40 47/80/53
f 45/78/52 47/80/53 48/81/53
f 44/77/43 45/78/54 46/79/43
f 47/80/55 46/79/43 45/78/54
f 48/81/55 47/80/55 45/78/54
f 33/84/35 49/83/56 36/82/38
f 49/83/56 33/84/35 34/85/36
f 52/88/48 51/87/58 50/86/57
f 51/87/58 52/88/48 36/89/48
f 51/87/58 36/89/48 49/90/58
f 50/86/60 51/87/59 52/88/49
f 36/89/49 52/88/49 51/87/59
f 49/90/59 36/89/49 51/87/59
f 28/93/40 53/92/52 38/91/40
f 53/92/52 28/93/40 31/94/53
f 53/92/52 31/94/53 54/95/53
f 38/91/43 53/92/54 28/93/43
f 31/94/55 28/93/43 53/92/54
f 54/95/55 31/94/55 53/92/54
f 21/98/28 25/97/27 19/96/27
f 25/97/27 21/98/28 26/99/28
f 40/102/45 34/101/36 35/100/37
f 34/101/36 40/102/45 49/103/56
f 18/106/18 7/105/5 55/104/61
f 7/105/5 18/106/18 19/107/18
f 7/105/5 19/107/18 8/108/5
f 55/104/62 7/105/6 18/106/22
f 19/107/22 18/106/22 7/105/6
f 8/108/6 19/107/22 7/105/6
f 31/111/53 56/110/63 54/109/53
f 56/110/63 31/111/53 36/112/48
f 56/110/63 36/112/48 52/113/48
f 54/109/55 56/110/64 31/111/55
f 36/112/49 31/111/55 56/110/64
f 52/113/49 36/112/49 56/110/64
f 9/116/4 57/115/65 6/114/4
f 57/115/65 9/116/4 10/117/13
f 57/115/65 10/117/13 15/118/13
f 6/114/7 57/115/66 9/116/7
f 10/117/14 9/116/7 57/115/66
f 15/118/14 10/117/14 57/115/66
f 60/121/67 59/120/41 58/119/41
f 59/120/41 60/121/67 61/122/68
f 61/122/68 60/121/67 62/123/68
f 58/119/42 59/120/42 60/121/69
f 61/122/70 60/121/69 59/120/42
f 62/123/70 60/121/69 61/122/70
f 62/126/68 2/125/47 61/124/68
f 2/125/47 62/126/68 63/127/71
f 2/125/47 63/127/71 42/128/47
f 61/124/70 2/125/50 62/126/70
f 63/127/72 62/126/70 2/125/50
f 42/128/50 63/127/72 2/125/50
f 64/131/73 47/130/74 46/129/73
f 47/130/74 64/131/73 65/132/74
f 66/135/68 49/134/58 40/133/68
f 49/134/58 66/135/68 67/136/75
f 49/134/58 67/136/75 51/137/58
f 40/133/70 49/134/59 66/135/70
f 67/136/76 66/135/70 49/134/59
f 51/137/59 67/136/76 49/134/59
f 47/140/53 68/139/63 48/138/53
f 68/139/63 47/140/53 1/141/48
f 68/139/63 1/141/48 43/142/48
f 48/138/55 68/139/64 47/140/55
f 1/141/49 47/140/55 68/139/64
f 43/142/49 1/141/49 68/139/64
f 69/145/77 27/144/41 39/143/41
f 27/144/41 69/145/77 40/146/68
f 40/146/68 69/145/77 66/147/68
f 39/143/42 27/144/42 69/145/78
f 40/146/70 69/145/78 27/144/42
f 66/147/70 69/145/78 40/146/70
f 58/150/41 44/149/40 70/148/39
f 44/149/40 58/150/41 59/151/41
f 44/149/40 59/151/41 46/152/40
f 70/148/44 44/149/43 58/150/42
f 59/151/42 58/150/42 44/149/43
f 46/152/43 59/151/42 44/149/43
f 71/155/79 46/154/73 59/153/79
f 46/154/73 71/155/79 64/156/73
f 65/159/74 1/158/1 47/157/74
f 1/158/1 65/159/74 3/160/1
f 61/163/80 4/162/2 72/161/80
f 4/162/2 61/163/80 2/164/2
f 61/167/80 71/166/79 59/165/79
f 71/166/79 61/167/80 72/168/80
f 1/171/81 46/170/81 47/169/81
f 46/170/81 1/171/81 73/172/81
f 73/172/81 1/171/81 2/173/81
f 74/174/81 46/170/81 73/172/81
f 73/172/81 2/173/81 75/175/81
f 46/170/81 74/174/81 59/176/81
f 75/175/81 2/173/81 76/177/81
f 59/176/81 74/174/81 76/177/81
f 59/176/81 76/177/81 2/173/81
f 59/176/81 2/173/81 61/178/81
f 10/181/81 65/180/81 9/179/81
f 64/182/81 9/179/81 65/180/81
f 65/180/81 10/181/81 3/183/81
f 9/179/81 64/182/81 8/184/81
f 3/183/81 10/181/81 16/185/81
f 8/184/81 64/182/81 71/186/81
f 3/183/81 16/185/81 4/187/81
f 8/184/81 71/186/81 19/188/81
f 4/187/81 16/185/81 21/189/81
f 19/188/81 71/186/81 72/190/81
f 4/187/81 21/189/81 72/190/81
f 19/188/81 72/190/81 21/189/81
f 36/193/81 12/192/81 31/191/81
f 11/194/81 31/191/81 12/192/81
f 12/192/81 36/193/81 24/195/81
f 31/191/81 11/194/81 28/196/81
f 24/195/81 36/193/81 49/197/81
f 28/196/81 11/194/81 17/198/81
f 24/195/81 49/197/81 26/199/81
f 28/196/81 17/198/81 27/200/81
f 26/199/81 49/197/81 40/201/81
f 27/200/81 17/198/81 25/202/81
f 26/199/81 40/201/81 25/202/81
f 27/200/81 25/202/81 40/201/81

usemtl rock

f 79/205/81 78/204/81 77/203/81
f 78/204/81 79/205/81 80/206/81
f 82/209/82 76/208/83 81/207/82
f 76/208/83 82/209/82 75/210/83
f 73/210/85 82/207/84 83/209/84
f 82/207/84 73/210/85 75/208/85
f 74/210/87 83/207/86 84/209/86
f 83/207/86 74/210/87 73/208/87
f 76/210/89 84/207/88 81/209/88
f 84/207/88 76/210/89 74/208/89
f 81/213/88 78/212/90 80/211/90
f 78/212/90 81/213/88 84/214/88
f 83/213/84 79/212/91 77/211/91
f 79/212/91 83/213/84 82/214/84
f 84/213/86 77/212/92 78/211/92
f 77/212/92 84/213/86 83/214/86
f 79/211/93 81/214/82 80/212/93
f 81/214/82 79/211/93 82/213/82

