# Created by Kenney (www.kenney.nl)

mtllib workbenchAnvil.mtl

g workbenchAnvil

v 0.086008 0.1381 0.043004
v -0.086008 0.1381 0.043004
v 0.06192576 0.1661 0.043004
v -0.06192576 0.1661 0.043004
v -0.021502 0.1381 0.064506
v -0.021502 0.1053 0.064506
v -0.043004 0.1381 0.086008
v -0.043004 0.1053 0.086008
v 0.021502 0.1053 0.064506
v 0.021502 0.1381 0.064506
v 0.043004 0.1053 0.086008
v 0.043004 0.1381 0.086008
v -0.021502 0.1053 -0.064506
v 0.021502 0.1053 -0.064506
v -0.021502 0.1381 -0.064506
v 0.021502 0.1381 -0.064506
v 0.086008 0.1053 0.086008
v 0.086008 0.1381 0.086008
v -0.086008 0.1381 -0.043004
v -0.06192576 0.1661 -0.043004
v 0.06192576 0.1661 -0.043004
v 0.086008 0.1381 -0.043004
v 0.086008 0.1381 -0.086008
v 0.086008 0.1053 -0.086008
v 0.043004 0.1053 -0.086008
v 0.043004 0.1381 -0.086008
v -0.086008 0.1053 -0.086008
v -0.086008 0.1381 -0.086008
v -0.086008 0.1053 0.086008
v -0.086008 0.1381 0.086008
v -0.043004 0.1381 -0.086008
v -0.043004 0.1053 -0.086008
v -0.1348383 0.2117 -0.05463658
v -0.1348383 0.2345 -0.05463658
v -0.1348383 0.2117 0.05463658
v -0.1348383 0.2345 0.05463658
v -0.08483829 0.1889 -0.05463658
v 0.08483829 0.1889 -0.05463658
v 0.08483829 0.2117 -0.05463658
v 0.08483829 0.2345 -0.05463658
v 0.1743875 0.1889 -0.01365914
v 0.1743875 0.2117 -0.01365914
v 0.08483829 0.2345 0.05463658
v 0.08483829 0.2117 0.05463658
v 0.1743875 0.1889 0.01365914
v 0.08483829 0.1889 0.05463658
v 0.1743875 0.2117 0.01365914
v -0.08483829 0.1889 0.05463658
v -0.1343875 0.0853 -0.1343875
v -0.1343875 0.1053 -0.1343875
v -0.1343875 0.0853 -0.0659301
v -0.1343875 0.1053 -0.0659301
v -0.1167044 0.0853 -0.05388046
v -0.1167044 0.1053 -0.05388046
v -0.1343875 0.0853 -0.0418308
v -0.1343875 0.1053 -0.0418308
v 0.1343875 0.1053 -0.1343875
v 0.1343875 0.0853 -0.1343875
v 0.1343875 0.1053 0.1343875
v 0.1343875 0.0853 0.1343875
v 0.03831659 0.1053 -0.1343875
v 0.05036623 0.1053 -0.1167044
v 0.06241588 0.1053 -0.1343875
v 0.06535825 0.1053 0.1343875
v 0.0533086 0.1053 0.1167044
v 0.04125895 0.1053 0.1343875
v -0.1343875 0.1053 0.1343875
v 0.06535825 0.0853 0.1343875
v -0.1343875 0.0853 0.1343875
v 0.03831659 0.0853 -0.1343875
v 0.0533086 0.0853 0.1167044
v 0.04125895 0.0853 0.1343875
v 0.06241588 0.0853 -0.1343875
v 0.05036623 0.0853 -0.1167044
v -0.0837 1.001853E-32 -0.0837
v -0.1302 1.001853E-32 -0.0837
v -0.0895125 0.0853 -0.0895125
v -0.1243875 0.0853 -0.0895125
v -0.0837 1.001853E-32 -0.1302
v -0.1302 0 -0.1302
v -0.0895125 0.0853 -0.1243875
v -0.1243875 0.0853 -0.1243875
v 0.1302 0 -0.1302
v 0.1302 1.001853E-32 -0.0837
v 0.1243875 0.0853 -0.1243875
v 0.1243875 0.0853 -0.0895125
v 0.0837 1.001853E-32 -0.0837
v 0.0895125 0.0853 -0.0895125
v 0.0837 1.001853E-32 -0.1302
v 0.0895125 0.0853 -0.1243875
v 0.1302 1.001853E-32 0.0837
v 0.1302 0 0.1302
v 0.1243875 0.0853 0.0895125
v 0.1243875 0.0853 0.1243875
v 0.0837 1.001853E-32 0.1302
v 0.0837 1.001853E-32 0.0837
v 0.0895125 0.0853 0.1243875
v 0.0895125 0.0853 0.0895125
v -0.0837 1.001853E-32 0.1302
v -0.0837 1.001853E-32 0.0837
v -0.1302 0 0.1302
v -0.1302 1.001853E-32 0.0837
v -0.1243875 0.0853 0.0895125
v -0.1243875 0.0853 0.1243875
v -0.0895125 0.0853 0.0895125
v -0.0895125 0.0853 0.1243875

vn 0 0 1
vn 0.7071068 0 0.7071068
vn -0.7071068 0 0.7071068
vn 0 0 -1
vn -0.7581552 0.6520741 0
vn 0.7581552 0.6520741 0
vn 1 0 0
vn -1 0 0
vn 0.7071068 0 -0.7071068
vn -0.7071068 0 -0.7071068
vn 0 -0.4544681 -0.890763
vn 0.4161012 0 -0.9093183
vn 0 -1 0
vn 0.4161012 0 0.9093183
vn 0 1 0
vn 0 -0.4544681 0.890763
vn -0.4148995 -0.9098673 0
vn 0.7053639 -0.7088454 0
vn -0.7053639 -0.7088454 0
vn -0.5631141 0 -0.8263792
vn -0.8263792 0 0.5631141
vn 0.8263792 0 0.5631141
vn -0.8263792 0 -0.5631141
vn 0.8263792 0 -0.5631141
vn -0.5631141 0 0.8263792
vn 0 0.0679842 0.9976864
vn 0.9976864 0.0679842 0
vn -0.9976864 0.0679842 0
vn 0 0.0679842 -0.9976864

vt 3.386142 5.437008
vt -3.386142 5.437008
vt 2.438022 6.53937
vt -2.438022 6.53937
vt -2.394364 5.437008
vt -2.394364 4.145669
vt -3.591546 5.437008
vt -3.591546 4.145669
vt 2.394364 4.145669
vt 2.394364 5.437008
vt 3.591546 4.145669
vt 3.591546 5.437008
vt 0.8465354 4.145669
vt -0.8465354 4.145669
vt 0.8465354 5.437008
vt -0.8465354 5.437008
vt 3.386142 4.145669
vt 1.693071 4.145669
vt 1.693071 5.437008
vt -1.693071 1.91408
vt -1.693071 3.368086
vt 1.693071 1.91408
vt 1.693071 3.368086
vt -3.386142 4.145669
vt -1.693071 5.437008
vt -1.693071 4.145669
vt -2.151047 8.334645
vt -2.151047 9.232284
vt 2.151047 8.334645
vt 2.151047 9.232284
vt 3.34009 7.437008
vt -3.34009 7.437008
vt 5.308594 8.334645
vt -3.34009 8.334645
vt 5.308594 9.232284
vt -3.34009 9.232284
vt 2.438022 6.594476
vt -2.438022 6.594476
vt 3.34009 7.602193
vt -3.34009 7.602193
vt -2.142152 7.437008
vt -6.019298 7.437008
vt -2.142152 8.334645
vt -6.019298 8.334645
vt 6.86565 0.5377616
vt 6.86565 -0.5377616
vt 3.34009 2.151047
vt 3.34009 -2.151047
vt 6.019298 7.437008
vt 2.142152 7.437008
vt 6.019298 8.334645
vt 2.142152 8.334645
vt -1.693071 3.386142
vt -0.8465354 2.539606
vt -3.386142 3.386142
vt -3.386142 1.693071
vt 3.386142 1.693071
vt 0.8465354 2.539606
vt 1.693071 3.386142
vt 3.386142 3.386142
vt 2.151047 6.12465
vt -2.151047 6.12465
vt 2.151047 8.288157
vt -2.151047 8.288157
vt 3.34009 8.334645
vt -5.308594 8.334645
vt -5.308594 9.232284
vt 3.34009 9.232284
vt 0.5377616 8.334645
vt 0.5377616 7.437008
vt -0.5377616 8.334645
vt -0.5377616 7.437008
vt -2.151047 7.613405
vt 2.151047 7.613405
vt -1.693071 6.340816
vt 1.693071 6.340816
vt -6.86565 -0.5377616
vt -6.86565 0.5377616
vt -3.34009 -2.151047
vt -3.34009 2.151047
vt -3.386142 -3.386142
vt -3.386142 -1.693071
vt -1.693071 -3.386142
vt -0.8465354 -2.539606
vt 3.386142 -1.693071
vt 0.8465354 -2.539606
vt 1.693071 -3.386142
vt 3.386142 -3.386142
vt 5.308594 -2.151047
vt 5.308594 2.151047
vt -5.290846 3.358268
vt -5.290846 4.145669
vt -2.595673 3.358268
vt -2.595673 4.145669
vt 2.602412 3.358268
vt 2.602412 4.145669
vt 3.444863 3.358268
vt 3.444863 4.145669
vt 5.290846 4.145669
vt 5.290846 3.358268
vt 5.290846 -5.290846
vt -1.508527 -5.290846
vt -1.982923 -4.594663
vt -2.457318 -5.290846
vt -5.290846 -5.290846
vt -5.290846 5.290846
vt -2.573159 5.290846
vt -2.098764 4.594663
vt -1.624368 5.290846
vt 5.290846 5.290846
vt 4.594663 -2.121278
vt 5.290846 -1.646882
vt 5.290846 -2.595673
vt 2.573159 3.358268
vt 2.573159 4.145669
vt -1.646882 3.358268
vt -1.646882 4.145669
vt -1.508527 3.358268
vt -1.508527 4.145669
vt 4.978777 3.358268
vt 4.978777 4.145669
vt 5.821228 3.358268
vt 5.821228 4.145669
vt -2.61509 4.145669
vt -2.61509 3.358268
vt -3.457541 4.145669
vt -3.457541 3.358268
vt 1.624368 3.358268
vt 1.624368 4.145669
vt -5.755996 3.358268
vt -5.755996 4.145669
vt -4.913546 3.358268
vt -4.913546 4.145669
vt 3.522772 4.145669
vt 3.522772 3.358268
vt 2.680322 4.145669
vt 2.680322 3.358268
vt -2.457318 3.358268
vt -2.457318 4.145669
vt -4.991455 3.358268
vt -5.833906 3.358268
vt -4.991455 4.145669
vt -5.833906 4.145669
vt -3.295276 0.2240267
vt -5.125984 0.2240267
vt -3.524114 3.590082
vt -4.897146 3.590082
vt -3.295276 -3.295276
vt -3.295276 -5.125984
vt -5.125984 -3.295276
vt -5.125984 -5.125984
vt 5.125984 0.2240267
vt 3.295276 0.2240267
vt 4.897146 3.590082
vt 3.524114 3.590082
vt -5.125984 -0.3484859
vt -4.897146 3.01757
vt -3.295276 -0.3484859
vt -3.524114 3.01757
vt 5.125984 -0.3484859
vt 3.295276 -0.3484859
vt 4.897146 3.01757
vt 3.524114 3.01757
vt 5.125984 -3.295276
vt 5.125984 -5.125984
vt 3.295276 -3.295276
vt 3.295276 -5.125984
vt 5.125984 5.125984
vt 5.125984 3.295276
vt 3.295276 5.125984
vt 3.295276 3.295276
vt -3.295276 5.125984
vt -3.295276 3.295276
vt -5.125984 5.125984
vt -5.125984 3.295276
vt 3.524114 4.897146
vt 2.573159 5.290846
vt 4.897146 4.897146
vt 3.524114 3.524114
vt 4.897146 -4.897146
vt 4.897146 3.524114
vt 2.457318 -5.290846
vt 4.897146 -3.524114
vt 3.524114 -3.524114
vt 3.524114 -4.897146
vt 2.098764 4.594663
vt 1.982923 -4.594663
vt 1.624368 5.290846
vt 1.508527 -5.290846
vt -3.524114 4.897146
vt -4.897146 4.897146
vt -4.897146 3.524114
vt -5.290846 -1.646882
vt -4.594663 -2.121278
vt -3.524114 -4.897146
vt -3.524114 3.524114
vt -4.897146 -4.897146
vt -5.290846 -2.595673
vt -4.897146 -3.524114
vt -3.524114 -3.524114

usemtl metal

f 3/3/1 2/2/1 1/1/1
f 2/2/1 3/3/1 4/4/1
f 7/7/2 6/6/2 5/5/2
f 6/6/2 7/7/2 8/8/2
f 11/11/3 10/10/3 9/9/3
f 10/10/3 11/11/3 12/12/3
f 15/15/4 14/14/4 13/13/4
f 14/14/4 15/15/4 16/16/4
f 18/1/1 11/18/1 17/17/1
f 11/18/1 18/1/1 12/19/1
f 2/22/5 20/21/5 19/20/5
f 20/21/5 2/22/5 4/23/5
f 3/21/6 22/22/6 21/23/6
f 22/22/6 3/21/6 1/20/6
f 20/3/4 22/2/4 19/1/4
f 22/2/4 20/3/4 21/4/4
f 22/19/7 24/17/7 23/1/7
f 24/17/7 22/19/7 17/24/7
f 17/24/7 22/19/7 1/25/7
f 17/24/7 1/25/7 18/2/7
f 26/25/4 24/24/4 25/26/4
f 24/24/4 26/25/4 23/2/4
f 29/17/8 28/2/8 27/24/8
f 28/2/8 29/17/8 19/25/8
f 19/25/8 29/17/8 2/19/8
f 2/19/8 29/17/8 30/1/8
f 15/10/9 32/11/9 31/12/9
f 32/11/9 15/10/9 13/9/9
f 28/1/4 32/18/4 27/17/4
f 32/18/4 28/1/4 31/19/4
f 14/6/10 26/7/10 25/8/10
f 26/7/10 14/6/10 16/5/10
f 7/25/1 29/24/1 8/26/1
f 29/24/1 7/25/1 30/2/1
f 35/29/8 34/28/8 33/27/8
f 34/28/8 35/29/8 36/30/8
f 10/15/1 6/14/1 9/13/1
f 6/14/1 10/15/1 5/16/1
f 33/33/4 38/32/4 37/31/4
f 38/32/4 33/33/4 39/34/4
f 39/34/4 33/33/4 34/35/4
f 39/34/4 34/35/4 40/36/4
f 37/39/11 21/38/11 20/37/11
f 21/38/11 37/39/11 38/40/11
f 39/43/12 41/42/12 38/41/12
f 41/42/12 39/43/12 42/44/12
f 43/28/7 39/29/7 40/30/7
f 39/29/7 43/28/7 44/27/7
f 46/47/13 41/46/13 45/45/13
f 41/46/13 46/47/13 38/48/13
f 47/51/14 46/50/14 45/49/14
f 46/50/14 47/51/14 44/52/14
f 18/55/15 10/54/15 12/53/15
f 1/56/15 10/54/15 18/55/15
f 10/54/15 1/56/15 2/57/15
f 10/54/15 2/57/15 5/58/15
f 5/58/15 2/57/15 7/59/15
f 7/59/15 2/57/15 30/60/15
f 46/39/16 4/38/16 3/37/16
f 4/38/16 46/39/16 48/40/16
f 35/63/17 37/62/17 48/61/17
f 37/62/17 35/63/17 33/64/17
f 44/65/1 48/32/1 46/31/1
f 48/32/1 44/65/1 35/66/1
f 35/66/1 44/65/1 36/67/1
f 36/67/1 44/65/1 43/68/1
f 47/71/7 41/70/7 42/69/7
f 41/70/7 47/71/7 45/72/7
f 3/75/18 38/74/18 46/73/18
f 38/74/18 3/75/18 21/76/18
f 39/79/15 47/78/15 42/77/15
f 47/78/15 39/79/15 44/80/15
f 26/83/15 22/82/15 23/81/15
f 22/82/15 26/83/15 16/84/15
f 22/82/15 16/84/15 19/85/15
f 19/85/15 16/84/15 15/86/15
f 19/85/15 15/86/15 31/87/15
f 19/85/15 31/87/15 28/88/15
f 48/74/19 20/75/19 4/76/19
f 20/75/19 48/74/19 37/73/19
f 34/89/15 43/80/15 40/79/15
f 43/80/15 34/89/15 36/90/15

usemtl _defaultMat

f 44/78/7 38/79/7 39/80/7
f 38/78/7 44/79/7 46/80/7

usemtl wood

f 51/93/8 50/92/8 49/91/8
f 50/92/8 51/93/8 52/94/8
f 55/97/20 54/96/20 53/95/20
f 54/96/20 55/97/20 56/98/20
f 59/92/7 58/100/7 57/99/7
f 58/100/7 59/92/7 60/91/7
f 14/84/15 32/87/15 13/86/15
f 14/84/15 50/101/15 32/87/15
f 32/87/15 50/101/15 27/88/15
f 14/84/15 61/102/15 50/101/15
f 25/83/15 61/102/15 14/84/15
f 25/83/15 62/103/15 61/102/15
f 25/83/15 63/104/15 62/103/15
f 24/81/15 63/104/15 25/83/15
f 24/81/15 57/105/15 63/104/15
f 57/105/15 24/81/15 59/106/15
f 17/55/15 59/106/15 24/81/15
f 59/106/15 17/55/15 64/107/15
f 64/107/15 17/55/15 11/53/15
f 64/107/15 11/53/15 65/108/15
f 65/108/15 11/53/15 66/109/15
f 66/109/15 11/53/15 9/54/15
f 66/109/15 9/54/15 67/110/15
f 67/110/15 9/54/15 8/59/15
f 8/59/15 9/54/15 6/58/15
f 67/110/15 8/59/15 29/60/15
f 67/110/15 29/60/15 54/111/15
f 67/110/15 54/111/15 56/112/15
f 27/88/15 54/111/15 29/60/15
f 27/88/15 50/101/15 54/111/15
f 54/111/15 50/101/15 52/113/15
f 59/99/1 68/114/1 60/100/1
f 68/114/1 59/99/1 64/115/1
f 69/100/8 56/117/8 55/116/8
f 56/117/8 69/100/8 67/99/8
f 50/99/4 70/118/4 49/100/4
f 70/118/4 50/99/4 61/119/4
f 68/122/21 65/121/21 71/120/21
f 65/121/21 68/122/21 64/123/21
f 66/126/22 71/125/22 65/124/22
f 71/125/22 66/126/22 72/127/22
f 66/129/1 69/91/1 72/128/1
f 69/91/1 66/129/1 67/92/1
f 74/132/23 63/131/23 73/130/23
f 63/131/23 74/132/23 62/133/23
f 62/136/24 70/135/24 61/134/24
f 70/135/24 62/136/24 74/137/24
f 63/139/4 58/91/4 73/138/4
f 58/91/4 63/139/4 57/92/4
f 54/142/25 51/141/25 53/140/25
f 51/141/25 54/142/25 52/143/25
f 77/146/26 76/145/26 75/144/26
f 76/145/26 77/146/26 78/147/26
f 76/150/13 79/149/13 75/148/13
f 79/149/13 76/150/13 80/151/13
f 81/154/27 75/153/27 79/152/27
f 75/153/27 81/154/27 77/155/27
f 76/158/28 82/157/28 80/156/28
f 82/157/28 76/158/28 78/159/28
f 82/162/29 79/161/29 80/160/29
f 79/161/29 82/162/29 81/163/29
f 85/162/27 84/161/27 83/160/27
f 84/161/27 85/162/27 86/163/27
f 86/154/26 87/153/26 84/152/26
f 87/153/26 86/154/26 88/155/26
f 87/144/28 90/147/28 89/145/28
f 90/147/28 87/144/28 88/146/28
f 89/158/29 85/157/29 83/156/29
f 85/157/29 89/158/29 90/159/29
f 87/166/13 83/165/13 84/164/13
f 83/165/13 87/166/13 89/167/13
f 93/159/27 92/156/27 91/158/27
f 92/156/27 93/159/27 94/157/27
f 95/170/13 91/169/13 92/168/13
f 91/169/13 95/170/13 96/171/13
f 94/162/26 95/161/26 92/160/26
f 95/161/26 94/162/26 97/163/26
f 95/152/28 98/155/28 96/153/28
f 98/155/28 95/152/28 97/154/28
f 98/146/29 91/145/29 96/144/29
f 91/145/29 98/146/29 93/147/29
f 101/174/13 100/173/13 99/172/13
f 100/173/13 101/174/13 102/175/13
f 101/160/28 103/163/28 102/161/28
f 103/163/28 101/160/28 104/162/28
f 103/154/29 100/153/29 102/152/29
f 100/153/29 103/154/29 105/155/29
f 99/158/26 104/157/26 101/156/26
f 104/157/26 99/158/26 106/159/26
f 105/146/27 99/145/27 100/144/27
f 99/145/27 105/146/27 106/147/27
f 94/178/13 68/177/13 97/176/13
f 97/176/13 68/177/13 98/179/13
f 94/178/13 60/110/13 68/177/13
f 60/110/13 94/178/13 58/101/13
f 85/180/13 58/101/13 94/178/13
f 85/180/13 94/178/13 93/181/13
f 58/101/13 85/180/13 73/182/13
f 85/180/13 93/181/13 86/183/13
f 98/179/13 86/183/13 93/181/13
f 86/183/13 98/179/13 88/184/13
f 98/179/13 68/177/13 88/184/13
f 88/184/13 68/177/13 90/185/13
f 73/182/13 85/180/13 90/185/13
f 73/182/13 90/185/13 68/177/13
f 73/182/13 68/177/13 71/186/13
f 73/182/13 71/186/13 74/187/13
f 74/187/13 71/186/13 72/188/13
f 74/187/13 72/188/13 70/189/13
f 70/189/13 72/188/13 106/190/13
f 106/190/13 72/188/13 69/106/13
f 106/190/13 69/106/13 104/191/13
f 104/191/13 69/106/13 103/192/13
f 55/193/13 103/192/13 69/106/13
f 53/194/13 103/192/13 55/193/13
f 81/195/13 70/189/13 106/190/13
f 81/195/13 106/190/13 105/196/13
f 70/189/13 81/195/13 49/105/13
f 49/105/13 81/195/13 82/197/13
f 49/105/13 82/197/13 51/198/13
f 78/199/13 51/198/13 82/197/13
f 78/199/13 53/194/13 51/198/13
f 81/195/13 105/196/13 77/200/13
f 103/192/13 77/200/13 105/196/13
f 77/200/13 103/192/13 53/194/13
f 53/194/13 78/199/13 77/200/13

g hammer

v 0.0214895 0.2460078 -0.01979198
v 0.01067162 0.2745 -0.01354628
v 0.01234834 0.2745 -0.03562493
v -0.07357344 0.2345 -0.02264241
v -0.04857343 0.2345 0.02065887
v -0.003510505 0.2345 -0.06309326
v 0.0214895 0.2345 -0.01979198
v -0.004568489 0.2444108 -0.004747394
v -0.004568489 0.2645892 -0.004747394
v -0.02251545 0.2444108 0.005614284
v -0.04857343 0.2745 0.02065887
v -0.02251545 0.2645892 0.005614284
v -0.003510505 0.2745 -0.06309326
v -0.07357344 0.2745 -0.02264241
v -0.04392606 0.2605535 -0.03975933
v -0.04392606 0.2484465 -0.03975933
v -0.03315789 0.2605535 -0.04597634
v -0.03315789 0.2484465 -0.04597634
v 0.03184212 0.2484465 0.06660699
v 0.02107395 0.2484465 0.07282399
v 0.03184212 0.2605535 0.06660699
v 0.02107395 0.2605535 0.07282399
v -0.04784924 0.2496572 -0.04904129
v -0.0392347 0.2496572 -0.05401489
v -0.04784924 0.2593428 -0.04904129
v -0.0392347 0.2593428 -0.05401489

vn 0.9375904 0.3403742 0.07120359
vn 0.5000001 0 0.8660256
vn 0.8660256 0 -0.5000001
vn -0.8660256 0 0.5000001
vn -0.5000001 0 -0.8660256
vn 0.0251909 -0.99873 0.04363192
vn -0.8389962 0 0.5441377
vn 0.0251909 0.99873 0.04363192
vn 0.8907351 0 -0.4545231
vn -0.06009619 0.9927506 -0.1040897
vn 0.7977126 0 -0.6030381
vn -0.06009619 -0.9927506 -0.1040897
vn -0.9211026 0 0.3893203

vt 1.223499 0.05403848
vt 0.9460598 1.247012
vt 1.817801 1.247012
vt 1.592553 2.362205
vt 1.592553 0.3937008
vt -1.592553 2.362205
vt -1.592553 0.3937008
vt 1.592553 -1.160203E-15
vt -1.592553 -1.160203E-15
vt 1.592553 0.4530616
vt 0.4079401 0.3901901
vt 0.4079401 1.184613
vt -0.4079401 0.3901901
vt 1.100765 1.574803
vt -1.592553 1.574803
vt -0.4079401 1.184613
vt 0.3937008 -4.945805E-15
vt 0.3937008 0.4530616
vt 2.362205 -4.945805E-15
vt 1.113477 1.574803
vt 2.362205 1.574803
vt -0.3937008 1.574803
vt -0.3937008 0
vt -2.362205 1.574803
vt -2.362205 0
vt 1.100765 0.3937008
vt 1.592553 1.113477
vt 0.2447641 1.025728
vt 1.592553 1.574803
vt 0.2447641 0.5490747
vt -0.2447641 1.025728
vt 1.592553 0
vt -1.592553 0
vt -0.2447641 0.5490747
vt -0.4079401 -0.3735423
vt -0.2447641 2.780069
vt 0.4079401 -0.3735423
vt 0.2447641 2.780069
vt 2.739551 1.025728
vt 2.739551 0.5490747
vt -0.4142799 1.184613
vt -0.4142799 0.3901901
vt -0.4079401 0.4528837
vt 0.4079401 0.4528837
vt -0.2447641 -2.700727
vt 0.2447641 -2.700727
vt -2.739551 0.5490747
vt -2.739551 1.025728
vt 0.4142799 0.3901901
vt 0.4142799 1.184613
vt 0.1958113 0.5967401
vt -0.1958113 0.5967401
vt 0.1958113 0.978063
vt -0.1958113 0.978063
vt 0.2447641 -2.221796
vt 0.1958113 -2.618371
vt -0.2447641 -2.221796
vt -0.1958113 -2.618371
vt 2.313952 0.5490747
vt 2.313952 1.025728
vt 2.710685 0.5967401
vt 2.710685 0.978063
vt 0.2447641 2.411075
vt -0.2447641 2.411075
vt 0.1958113 2.807651
vt -0.1958113 2.807651
vt -2.313952 1.025728
vt -2.313952 0.5490747
vt -2.710685 0.978063
vt -2.710685 0.5967401

usemtl metal

f 109/203/30 108/202/30 107/201/30
f 112/206/13 111/205/13 110/204/13
f 111/205/13 112/206/13 113/207/13
f 107/210/31 111/209/31 113/208/31
f 111/209/31 107/210/31 114/211/31
f 114/211/31 107/210/31 115/212/31
f 116/213/31 111/209/31 114/211/31
f 115/212/31 107/210/31 108/214/31
f 111/209/31 116/213/31 117/215/31
f 115/212/31 108/214/31 118/216/31
f 117/215/31 116/213/31 118/216/31
f 117/215/31 118/216/31 108/214/31
f 112/219/32 107/218/32 113/217/32
f 107/218/32 112/219/32 109/220/32
f 109/220/32 112/219/32 119/221/32
f 120/224/33 111/223/33 117/222/33
f 111/223/33 120/224/33 110/225/33
f 117/207/15 119/204/15 120/206/15
f 119/204/15 117/207/15 108/226/15
f 119/204/15 108/226/15 109/227/15
f 122/230/34 120/229/34 121/228/34
f 121/228/34 120/229/34 123/231/34
f 122/230/34 110/232/34 120/229/34
f 119/215/34 123/231/34 120/229/34
f 110/232/34 122/230/34 112/233/34
f 119/215/34 124/234/34 123/231/34
f 112/233/34 124/234/34 119/215/34
f 124/234/34 112/233/34 122/230/34

usemtl wood

f 127/228/31 126/234/31 125/230/31
f 126/234/31 127/228/31 128/231/31
f 114/237/35 126/236/35 116/235/35
f 126/236/35 114/237/35 125/238/35
f 118/241/36 126/240/36 128/239/36
f 126/240/36 118/241/36 116/242/36
f 128/245/37 115/244/37 118/243/37
f 115/244/37 128/245/37 127/246/37
f 114/249/38 127/248/38 125/247/38
f 127/248/38 114/249/38 115/250/38
f 131/253/34 130/252/34 129/251/34
f 130/252/34 131/253/34 132/254/34
f 123/257/39 131/256/39 121/255/39
f 131/256/39 123/257/39 132/258/39
f 130/261/40 123/260/40 124/259/40
f 123/260/40 130/261/40 132/262/40
f 129/265/41 124/264/41 122/263/41
f 124/264/41 129/265/41 130/266/41
f 131/269/42 122/268/42 121/267/42
f 122/268/42 131/269/42 129/270/42

