# Created by Kenney (www.kenney.nl)

mtllib workbench.mtl

g workbench

v 0.1302 0 0.1302
v 0.1302 0 0.0837
v 0.0837 0 0.1302
v 0.10695 0 0.0837
v 0.10695 0 -0.0837
v 0.0837 0 -0.1302
v 0.0837 0 0.10695
v 0.1302 0 -0.1302
v 0.1302 0 -0.0837
v 0.0837 0 -0.10695
v -0.0837 0 0.10695
v -0.0837 0 -0.10695
v -0.10695 0 0.0837
v -0.0837 0 -0.1302
v -0.1302 0 0.1302
v -0.0837 0 0.1302
v -0.1302 0 0.0837
v -0.10695 0 -0.0837
v -0.1302 0 -0.1302
v -0.1302 0 -0.0837
v 0.0895125 0.1953 0.10695
v -0.0895125 0.1953 0.10695
v -0.0895125 0.1953 -0.10695
v 0.0895125 0.1953 -0.10695
v 0.10695 0.1953 -0.0895125
v 0.10695 0.1953 0.0895125
v -0.10695 0.1953 -0.0895125
v -0.10695 0.1953 0.0895125
v -0.1243875 0.1953 -0.1243875
v -0.1243875 0.1953 -0.0895125
v -0.0895125 0.1953 -0.1243875
v 0.0895125 0.1953 0.1243875
v 0.1243875 0.1953 0.1243875
v 0.1243875 0.1953 0.0895125
v -0.0895125 0.1953 0.1243875
v -0.1243875 0.1953 0.1243875
v -0.1243875 0.1953 0.0895125
v 0.0895125 0.1953 -0.1243875
v 0.1243875 0.1953 -0.0895125
v 0.1243875 0.1953 -0.1243875
v 0.1343875 0.2153 -0.1343875
v 0.1343875 0.1953 -0.1343875
v 0.1343875 0.2153 0.1343875
v 0.1343875 0.1953 0.1343875
v -0.1343875 0.2153 -0.0659301
v -0.1343875 0.2153 -0.1343875
v -0.1167044 0.2153 -0.05388046
v 0.03831659 0.2153 -0.1343875
v -0.1343875 0.2153 0.1343875
v -0.1343875 0.2153 -0.0418308
v 0.04125895 0.2153 0.1343875
v 0.05036623 0.2153 -0.1167044
v 0.0533086 0.2153 0.1167044
v 0.06241588 0.2153 -0.1343875
v 0.06535825 0.2153 0.1343875
v 0.06241588 0.1953 -0.1343875
v 0.06535825 0.1953 0.1343875
v 0.0533086 0.1953 0.1167044
v 0.04125895 0.1953 0.1343875
v 0.05036623 0.1953 -0.1167044
v 0.03831659 0.1953 -0.1343875
v -0.1343875 0.1953 -0.1343875
v -0.1343875 0.1953 -0.0659301
v -0.1343875 0.1953 0.1343875
v -0.1167044 0.1953 -0.05388046
v -0.1343875 0.1953 -0.0418308

vn 0 -1 0
vn 0 0 1
vn 0 0 -1
vn 1 0 0
vn -1 0 0
vn -0.9995574 0.02974873 0
vn 0 0.02974873 -0.9995574
vn 0 0.02974873 0.9995574
vn 0.9995574 0.02974873 0
vn 0 1 0
vn -0.8263792 0 0.5631141
vn -0.8263792 0 -0.5631141
vn 0.8263792 0 0.5631141
vn -0.5631141 0 0.8263792
vn -0.5631141 0 -0.8263792
vn 0.8263792 0 -0.5631141

vt 5.125984 5.125984
vt 5.125984 3.295276
vt 3.295276 5.125984
vt 4.21063 3.295276
vt 4.21063 -3.295276
vt 3.295276 -5.125984
vt 3.295276 4.21063
vt 5.125984 -5.125984
vt 5.125984 -3.295276
vt 3.295276 -4.21063
vt -3.295276 4.21063
vt -3.295276 -4.21063
vt -4.21063 3.295276
vt -3.295276 -5.125984
vt -5.125984 5.125984
vt -3.295276 5.125984
vt -5.125984 3.295276
vt -4.21063 -3.295276
vt -5.125984 -5.125984
vt -5.125984 -3.295276
vt 3.295276 0
vt -3.295276 0
vt 3.524114 7.688976
vt -3.524114 7.688976
vt -5.125984 -0.1524915
vt -4.897146 7.539889
vt -3.295276 -0.1524915
vt -3.524114 7.539889
vt 5.125984 -0.1524915
vt 3.295276 -0.1524915
vt 4.897146 7.539889
vt 3.524114 7.539889
vt -4.21063 0.09803027
vt -5.125984 0.09803027
vt -4.21063 7.790411
vt -4.897146 7.790411
vt 5.125984 0.09803027
vt 4.21063 0.09803027
vt 4.897146 7.790411
vt 4.21063 7.790411
vt 5.290846 8.476377
vt 5.290846 7.688976
vt -5.290846 8.476377
vt -5.290846 7.688976
vt 5.290846 -2.595673
vt 5.290846 -5.290846
vt 4.594663 -2.121278
vt -1.508527 -5.290846
vt 5.290846 5.290846
vt 5.290846 -1.646882
vt -1.624368 5.290846
vt -1.982923 -4.594663
vt -2.098764 4.594663
vt -2.457318 -5.290846
vt -2.573159 5.290846
vt -5.290846 5.290846
vt -5.290846 -5.290846
vt 4.21063 -3.524114
vt 4.21063 3.524114
vt 4.897146 -3.524114
vt 4.897146 3.524114
vt 4.897146 -4.897146
vt 4.897146 4.897146
vt 2.457318 -5.290846
vt 3.524114 -4.897146
vt 2.573159 5.290846
vt 3.524114 4.897146
vt 3.524114 4.21063
vt 2.098764 4.594663
vt -3.524114 4.21063
vt 1.624368 5.290846
vt -3.524114 4.897146
vt 1.982923 -4.594663
vt 3.524114 -4.21063
vt -3.524114 -4.21063
vt 1.508527 -5.290846
vt -3.524114 -4.897146
vt -4.897146 -4.897146
vt -5.290846 -2.595673
vt -4.897146 -3.524114
vt -4.897146 4.897146
vt -4.594663 -2.121278
vt -4.897146 3.524114
vt -5.290846 -1.646882
vt -4.21063 -3.524114
vt -4.21063 3.524114
vt 2.573159 7.688976
vt 2.573159 8.476377
vt 4.978777 7.688976
vt 4.978777 8.476377
vt 5.821228 7.688976
vt 5.821228 8.476377
vt -1.508527 7.688976
vt -1.508527 8.476377
vt 1.624368 7.688976
vt 1.624368 8.476377
vt -5.755996 7.688976
vt -5.755996 8.476377
vt -4.913546 7.688976
vt -4.913546 8.476377
vt -2.61509 8.476377
vt -2.61509 7.688976
vt -3.457541 8.476377
vt -3.457541 7.688976
vt -2.457318 7.688976
vt -2.457318 8.476377
vt -4.991455 7.688976
vt -5.833906 7.688976
vt -4.991455 8.476377
vt -5.833906 8.476377
vt -1.646882 7.688976
vt -1.646882 8.476377
vt 2.602412 7.688976
vt 2.602412 8.476377
vt 3.444863 7.688976
vt 3.444863 8.476377
vt -2.595673 7.688976
vt -2.595673 8.476377
vt 3.522772 8.476377
vt 3.522772 7.688976
vt 2.680322 8.476377
vt 2.680322 7.688976

usemtl woodDark

f 3/3/1 2/2/1 1/1/1
f 2/2/1 3/3/1 4/4/1
f 4/4/1 3/3/1 5/5/1
f 6/6/1 5/5/1 3/3/1
f 6/6/1 3/3/1 7/7/1
f 8/8/1 5/5/1 6/6/1
f 5/5/1 8/8/1 9/9/1
f 6/6/1 7/7/1 10/10/1
f 11/11/1 10/10/1 7/7/1
f 10/10/1 11/11/1 12/12/1
f 11/11/1 13/13/1 12/12/1
f 12/12/1 13/13/1 14/14/1
f 11/11/1 15/15/1 13/13/1
f 15/15/1 11/11/1 16/16/1
f 13/13/1 15/15/1 17/17/1
f 18/18/1 14/14/1 13/13/1
f 14/14/1 18/18/1 19/19/1
f 19/19/1 18/18/1 20/20/1
f 21/23/2 11/22/2 7/21/2
f 11/22/2 21/23/2 22/24/2
f 23/23/3 10/22/3 12/21/3
f 10/22/3 23/23/3 24/24/3
f 26/24/4 5/21/4 25/23/4
f 5/21/4 26/24/4 4/22/4
f 18/22/5 28/23/5 27/24/5
f 28/23/5 18/22/5 13/21/5

usemtl wood

f 20/27/6 29/26/6 19/25/6
f 29/26/6 20/27/6 30/28/6
f 29/31/7 14/30/7 19/29/7
f 14/30/7 29/31/7 31/32/7
f 27/35/8 20/34/8 18/33/8
f 20/34/8 27/35/8 30/36/8
f 31/39/9 12/38/9 14/37/9
f 12/38/9 31/39/9 23/40/9
f 3/37/6 21/40/6 7/38/6
f 21/40/6 3/37/6 32/39/6
f 33/31/8 3/30/8 1/29/8
f 3/30/8 33/31/8 32/32/8
f 34/28/9 1/25/9 2/27/9
f 1/25/9 34/28/9 33/26/9
f 35/36/9 11/33/9 22/35/9
f 11/33/9 35/36/9 16/34/9
f 35/28/8 15/25/8 16/27/8
f 15/25/8 35/28/8 36/26/8
f 15/29/6 37/32/6 17/30/6
f 37/32/6 15/29/6 36/31/6
f 10/33/6 38/36/6 6/34/6
f 38/36/6 10/33/6 24/35/6
f 39/39/8 5/38/8 9/37/8
f 5/38/8 39/39/8 25/40/8
f 38/28/7 8/25/7 6/27/7
f 8/25/7 38/28/7 40/26/7
f 40/31/9 9/30/9 8/29/9
f 9/30/9 40/31/9 39/32/9
f 26/35/7 2/34/7 4/33/7
f 2/34/7 26/35/7 34/36/7
f 37/39/7 13/38/7 17/37/7
f 13/38/7 37/39/7 28/40/7
f 43/43/4 42/42/4 41/41/4
f 42/42/4 43/43/4 44/44/4
f 47/47/10 46/46/10 45/45/10
f 46/46/10 47/47/10 48/48/10
f 49/49/10 48/48/10 47/47/10
f 49/49/10 47/47/10 50/50/10
f 51/51/10 48/48/10 49/49/10
f 51/51/10 52/52/10 48/48/10
f 53/53/10 52/52/10 51/51/10
f 53/53/10 54/54/10 52/52/10
f 55/55/10 54/54/10 53/53/10
f 43/56/10 54/54/10 55/55/10
f 54/54/10 43/56/10 41/57/10
f 39/60/1 26/59/1 25/58/1
f 26/59/1 39/60/1 34/61/1
f 40/62/1 34/61/1 39/60/1
f 40/62/1 33/63/1 34/61/1
f 40/62/1 42/46/1 33/63/1
f 44/49/1 33/63/1 42/46/1
f 42/46/1 40/62/1 56/64/1
f 56/64/1 40/62/1 38/65/1
f 33/63/1 44/49/1 57/66/1
f 33/63/1 57/66/1 32/67/1
f 32/67/1 57/66/1 21/68/1
f 21/68/1 57/66/1 58/69/1
f 21/68/1 58/69/1 22/70/1
f 22/70/1 58/69/1 59/71/1
f 22/70/1 59/71/1 35/72/1
f 38/65/1 60/73/1 56/64/1
f 24/74/1 60/73/1 38/65/1
f 60/73/1 24/74/1 23/75/1
f 60/73/1 23/75/1 61/76/1
f 61/76/1 23/75/1 31/77/1
f 61/76/1 31/77/1 62/57/1
f 62/57/1 31/77/1 29/78/1
f 62/57/1 29/78/1 63/79/1
f 30/80/1 63/79/1 29/78/1
f 64/56/1 35/72/1 59/71/1
f 35/72/1 64/56/1 36/81/1
f 30/80/1 65/82/1 63/79/1
f 36/81/1 64/56/1 37/83/1
f 66/84/1 37/83/1 64/56/1
f 65/82/1 37/83/1 66/84/1
f 65/82/1 30/80/1 27/85/1
f 27/85/1 37/83/1 65/82/1
f 37/83/1 27/85/1 28/86/1
f 43/41/2 57/87/2 44/42/2
f 57/87/2 43/41/2 55/88/2
f 57/91/11 53/90/11 58/89/11
f 53/90/11 57/91/11 55/92/11
f 46/41/3 61/93/3 62/42/3
f 61/93/3 46/41/3 48/94/3
f 51/96/2 64/44/2 59/95/2
f 64/44/2 51/96/2 49/43/2
f 60/99/12 54/98/12 56/97/12
f 54/98/12 60/99/12 52/100/12
f 51/103/13 58/102/13 53/101/13
f 58/102/13 51/103/13 59/104/13
f 54/106/3 42/44/3 56/105/3
f 42/44/3 54/106/3 41/43/3
f 47/109/14 63/108/14 65/107/14
f 63/108/14 47/109/14 45/110/14
f 64/42/5 50/112/5 66/111/5
f 50/112/5 64/42/5 49/41/5
f 66/115/15 47/114/15 65/113/15
f 47/114/15 66/115/15 50/116/15
f 63/117/5 46/43/5 62/44/5
f 46/43/5 63/117/5 45/118/5
f 52/121/16 61/120/16 48/119/16
f 61/120/16 52/121/16 60/122/16

g hammer

v -0.10043 0.2268077 0.01960084
v -0.08961217 0.2553 0.02584654
v -0.1095712 0.2553 0.03543378
v -0.05536713 0.2153 0.103353
v -0.03036712 0.2153 0.06005169
v -0.12543 0.2153 0.06290211
v -0.10043 0.2153 0.01960084
v -0.07437206 0.2252108 0.03464542
v -0.07437206 0.2453891 0.03464542
v -0.05642511 0.2252108 0.0450071
v -0.03036712 0.2553 0.06005169
v -0.05642511 0.2453891 0.0450071
v -0.12543 0.2553 0.06290211
v -0.05536713 0.2553 0.103353
v -0.0850145 0.2413535 0.08623604
v -0.0850145 0.2292465 0.08623604
v -0.09578267 0.2413535 0.08001903
v -0.09578267 0.2292465 0.08001903
v -0.03078266 0.2292465 -0.03256427
v -0.02001449 0.2292465 -0.02634726
v -0.03078266 0.2413535 -0.03256427
v -0.02001449 0.2413535 -0.02634726
v -0.09109132 0.2304572 0.09427459
v -0.09970586 0.2304572 0.08930098
v -0.09109132 0.2401428 0.09427459
v -0.09970586 0.2401428 0.08930098

vn -0.407131 0.3403742 -0.8475788
vn 0.5000001 0 -0.8660254
vn -0.8660254 0 -0.5000001
vn 0.8660254 0 0.5000001
vn -0.5000001 0 0.8660254
vn 0.0251909 -0.99873 -0.04363191
vn 0.890735 0 0.4545231
vn 0.0251909 0.99873 -0.04363191
vn -0.838996 0 -0.5441377
vn -0.06009619 0.9927506 0.1040896
vn -0.9211024 0 -0.3893204
vn -0.06009619 -0.9927506 0.1040896
vn 0.7977124 0 0.6030381

vt 1.223499 0.05403848
vt 0.9460598 1.247012
vt 1.817801 1.247012
vt 1.592553 2.362205
vt 1.592553 0.3937008
vt -1.592553 2.362205
vt -1.592553 0.3937008
vt 1.592553 -1.160203E-15
vt -1.592553 -1.160203E-15
vt 1.592553 0.4530616
vt 0.4079401 0.3901901
vt 0.4079401 1.184613
vt -0.4079401 0.3901901
vt 1.100765 1.574803
vt -1.592553 1.574803
vt -0.4079401 1.184613
vt 0.3937008 -4.945805E-15
vt 0.3937008 0.4530616
vt 2.362205 -4.945805E-15
vt 1.113477 1.574803
vt 2.362205 1.574803
vt -0.3937008 1.574803
vt -0.3937008 0
vt -2.362205 1.574803
vt -2.362205 0
vt 1.100765 0.3937008
vt 1.592553 1.113477
vt 0.2447641 1.025728
vt 1.592553 1.574803
vt 0.2447641 0.5490747
vt -0.2447641 1.025728
vt 1.592553 0
vt -1.592553 0
vt -0.2447641 0.5490747
vt -0.4079401 -0.3735423
vt -0.2447641 2.780069
vt 0.4079401 -0.3735423
vt 0.2447641 2.780069
vt 2.739551 1.025728
vt 2.739551 0.5490747
vt -0.4142799 1.184613
vt -0.4142799 0.3901901
vt -0.4079401 0.4528837
vt 0.4079401 0.4528837
vt -0.2447641 -2.700727
vt 0.2447641 -2.700727
vt -2.739551 0.5490747
vt -2.739551 1.025728
vt 0.4142799 0.3901901
vt 0.4142799 1.184613
vt 0.1958113 0.5967401
vt -0.1958113 0.5967401
vt 0.1958113 0.978063
vt -0.1958113 0.978063
vt 0.2447641 -2.221796
vt 0.1958113 -2.618371
vt -0.2447641 -2.221796
vt -0.1958113 -2.618371
vt 2.313952 0.5490747
vt 2.313952 1.025728
vt 2.710685 0.5967401
vt 2.710685 0.978063
vt 0.2447641 2.411075
vt -0.2447641 2.411075
vt 0.1958113 2.807651
vt -0.1958113 2.807651
vt -2.313952 1.025728
vt -2.313952 0.5490747
vt -2.710685 0.978063
vt -2.710685 0.5967401

usemtl metal

f 69/125/17 68/124/17 67/123/17
f 72/128/1 71/127/1 70/126/1
f 71/127/1 72/128/1 73/129/1
f 67/132/18 71/131/18 73/130/18
f 71/131/18 67/132/18 74/133/18
f 74/133/18 67/132/18 75/134/18
f 76/135/18 71/131/18 74/133/18
f 75/134/18 67/132/18 68/136/18
f 71/131/18 76/135/18 77/137/18
f 75/134/18 68/136/18 78/138/18
f 77/137/18 76/135/18 78/138/18
f 77/137/18 78/138/18 68/136/18
f 72/141/19 67/140/19 73/139/19
f 67/140/19 72/141/19 69/142/19
f 69/142/19 72/141/19 79/143/19
f 80/146/20 71/145/20 77/144/20
f 71/145/20 80/146/20 70/147/20
f 77/129/10 79/126/10 80/128/10
f 79/126/10 77/129/10 68/148/10
f 79/126/10 68/148/10 69/149/10
f 82/152/21 80/151/21 81/150/21
f 81/150/21 80/151/21 83/153/21
f 82/152/21 70/154/21 80/151/21
f 79/137/21 83/153/21 80/151/21
f 70/154/21 82/152/21 72/155/21
f 79/137/21 84/156/21 83/153/21
f 72/155/21 84/156/21 79/137/21
f 84/156/21 72/155/21 82/152/21

usemtl wood

f 87/150/18 86/156/18 85/152/18
f 86/156/18 87/150/18 88/153/18
f 74/159/22 86/158/22 76/157/22
f 86/158/22 74/159/22 85/160/22
f 78/163/23 86/162/23 88/161/23
f 86/162/23 78/163/23 76/164/23
f 88/167/24 75/166/24 78/165/24
f 75/166/24 88/167/24 87/168/24
f 74/171/25 87/170/25 85/169/25
f 87/170/25 74/171/25 75/172/25
f 91/175/21 90/174/21 89/173/21
f 90/174/21 91/175/21 92/176/21
f 83/179/26 91/178/26 81/177/26
f 91/178/26 83/179/26 92/180/26
f 90/183/27 83/182/27 84/181/27
f 83/182/27 90/183/27 92/184/27
f 89/187/28 84/186/28 82/185/28
f 84/186/28 89/187/28 90/188/28
f 91/191/29 82/190/29 81/189/29
f 82/190/29 91/191/29 89/192/29

g paper

v 0.1542162 0.2378331 0.01254017
v 0.1543875 0.2397146 0.01283683
v 0.03297266 0.2378331 0.08254018
v 0.03314394 0.2397146 0.08283684
v 0.1537053 0.2359838 0.01165527
v 0.03246176 0.2359838 0.08165528
v 0.1528636 0.2341984 0.01019725
v 0.03161998 0.2341984 0.08019726
v 0.03046172 0.2325073 0.0781911
v 0.1517053 0.2325073 0.00819109
v 0.0290068 0.2309395 0.07567111
v 0.1502504 0.2309395 0.005671095
v 0.02728011 0.2295219 0.0726804
v 0.1485237 0.2295219 0.002680395
v 0.02531121 0.2282787 0.06927015
v 0.1465548 0.2282787 -0.0007298626
v 0.02313377 0.2272312 0.06549871
v 0.1443774 0.2272312 -0.004501302
v 0.02078505 0.2263972 0.06143061
v 0.1420286 0.2263972 -0.008569393
v 0.01830524 0.2257911 0.05713546
v 0.1395488 0.2257911 -0.01286455
v 0.01573677 0.2254233 0.05268674
v 0.1369804 0.2254233 -0.01731326
v 0.01312359 0.2253 0.04816059
v 0.1343672 0.2253 -0.02183942
v -0.05185607 0.2253 -0.06438752
v 0.06938751 0.2253 -0.1343875

vn -0.4709692 0.3357862 -0.8157426
vn -0.4919136 0.1791207 -0.8520194
vn 0.4709692 -0.3357862 0.8157426
vn 0.4919136 -0.1791207 0.8520194
vn -0.4038931 0.5894758 -0.6995633
vn 0.4038931 -0.5894758 0.6995633
vn -0.330696 0.7500404 -0.5727825
vn 0.330696 -0.7500404 0.5727825
vn -0.2666026 0.8459859 -0.4617693
vn 0.2666026 -0.8459859 0.4617693
vn -0.2138092 0.9039593 -0.3703285
vn 0.2138092 -0.9039593 0.3703285
vn -0.1703527 0.94017 -0.2950596
vn 0.1703527 -0.94017 0.2950596
vn -0.1338156 0.9635214 -0.2317755
vn 0.1338156 -0.9635214 0.2317755
vn -0.1022147 0.9788814 -0.177041
vn 0.1022147 -0.9788814 0.177041
vn -0.07405216 0.9889718 -0.1282621
vn 0.07405216 -0.9889718 0.1282621
vn -0.04819682 0.9953433 -0.08347934
vn 0.04819682 -0.9953433 0.08347934
vn -0.02376048 0.9988702 -0.04115436
vn 0.02376048 -0.9988702 0.04115436
vn -0.01179454 0.9997217 -0.02042875
vn 0.01179454 -0.9997217 0.02042875

vt -2.755906 1.469788
vt -2.755906 1.545081
vt 2.755906 1.469788
vt 2.755906 1.545081
vt -2.755906 2.305199
vt -2.755906 2.388381
vt 2.755906 2.305199
vt 2.755906 2.388381
vt -2.755906 2.754812
vt -2.755906 2.851427
vt 2.755906 2.754812
vt 2.755906 2.851427
vt 2.755906 2.931735
vt -2.755906 2.931735
vt 2.755906 3.044653
vt -2.755906 3.044653
vt 2.755906 3.081467
vt 2.755906 2.951337
vt -2.755906 3.081467
vt -2.755906 2.951337
vt 2.755906 2.881269
vt -2.755906 2.881269
vt 2.755906 3.028239
vt -2.755906 3.028239
vt 2.755906 2.91947
vt 2.755906 2.756895
vt -2.755906 2.91947
vt -2.755906 2.756895
vt 2.755906 2.773507
vt 2.755906 2.597164
vt -2.755906 2.773507
vt -2.755906 2.597164
vt 2.755906 2.413146
vt -2.755906 2.413146
vt 2.755906 2.600976
vt -2.755906 2.600976
vt 2.755906 2.212074
vt -2.755906 2.212074
vt 2.755906 2.408787
vt -2.755906 2.408787
vt 2.755906 1.999235
vt -2.755906 1.999235
vt 2.755906 2.201994
vt -2.755906 2.201994
vt 2.755906 1.984666
vt 2.755906 1.778847
vt -2.755906 1.984666
vt -2.755906 1.778847
vt -2.755906 3.346457
vt 2.755906 3.346457
vt -2.755906 -1.770052
vt 2.755906 -1.770052

usemtl rock

f 95/195/30 94/194/31 93/193/30
f 94/194/31 95/195/30 96/196/31
f 93/193/32 94/194/33 95/195/32
f 96/196/33 95/195/32 94/194/33
f 98/199/34 93/198/30 97/197/34
f 93/198/30 98/199/34 95/200/30
f 97/197/35 93/198/32 98/199/35
f 95/200/32 98/199/35 93/198/32
f 100/203/36 97/202/34 99/201/36
f 97/202/34 100/203/36 98/204/34
f 99/201/37 97/202/35 100/203/37
f 98/204/35 100/203/37 97/202/35
f 100/207/36 102/206/38 101/205/38
f 102/206/38 100/207/36 99/208/36
f 101/205/39 102/206/39 100/207/37
f 99/208/37 100/207/37 102/206/39
f 102/211/38 103/210/40 101/209/38
f 103/210/40 102/211/38 104/212/40
f 101/209/39 103/210/41 102/211/39
f 104/212/41 102/211/39 103/210/41
f 103/215/40 106/214/42 105/213/42
f 106/214/42 103/215/40 104/216/40
f 105/213/43 106/214/43 103/215/41
f 104/216/41 103/215/41 106/214/43
f 106/219/42 107/218/44 105/217/42
f 107/218/44 106/219/42 108/220/44
f 105/217/43 107/218/45 106/219/43
f 108/220/45 106/219/43 107/218/45
f 108/223/44 109/222/46 107/221/44
f 109/222/46 108/223/44 110/224/46
f 107/221/45 109/222/47 108/223/45
f 110/224/47 108/223/45 109/222/47
f 109/227/46 112/226/48 111/225/48
f 112/226/48 109/227/46 110/228/46
f 111/225/49 112/226/49 109/227/47
f 110/228/47 109/227/47 112/226/49
f 111/231/48 114/230/50 113/229/50
f 114/230/50 111/231/48 112/232/48
f 113/229/51 114/230/51 111/231/49
f 112/232/49 111/231/49 114/230/51
f 113/235/50 116/234/52 115/233/52
f 116/234/52 113/235/50 114/236/50
f 115/233/53 116/234/53 113/235/51
f 114/236/51 113/235/51 116/234/53
f 116/239/52 117/238/54 115/237/52
f 117/238/54 116/239/52 118/240/54
f 115/237/53 117/238/55 116/239/53
f 118/240/55 116/239/53 117/238/55
f 117/243/10 120/242/10 119/241/10
f 120/242/10 117/243/10 118/244/10

